<svg xmlns="http://www.w3.org/2000/svg" xmlns:xlink="http://www.w3.org/1999/xlink" width="80" height="80" viewBox="0 0 80 80">
    <defs>
        <linearGradient id="c" x1="1.351%" y1="1.351%" y2="100%">
            <stop offset="0%" stop-color="#A438C4"/>
            <stop offset="100%" stop-color="#551468"/>
        </linearGradient>
        <path id="b" d="M17.014 8h45.972A9.014 9.014 0 0 1 72 17.014v45.972A9.014 9.014 0 0 1 62.986 72H17.014A9.014 9.014 0 0 1 8 62.986V17.014A9.014 9.014 0 0 1 17.014 8z"/>
        <filter id="a" width="153.1%" height="153.1%" x="-26.6%" y="-20.3%" filterUnits="objectBoundingBox">
            <feOffset dy="4" in="SourceAlpha" result="shadowOffsetOuter1"/>
            <feGaussianBlur in="shadowOffsetOuter1" result="shadowBlurOuter1" stdDeviation="5"/>
            <feColorMatrix in="shadowBlurOuter1" values="0 0 0 0 0 0 0 0 0 0 0 0 0 0 0 0 0 0 0.15 0"/>
        </filter>
        <filter id="d" width="133.3%" height="134.5%" x="-16.7%" y="-13.8%" filterUnits="objectBoundingBox">
            <feOffset dy="1" in="SourceAlpha" result="shadowOffsetOuter1"/>
            <feGaussianBlur in="shadowOffsetOuter1" result="shadowBlurOuter1" stdDeviation="1.5"/>
            <feColorMatrix in="shadowBlurOuter1" result="shadowMatrixOuter1" values="0 0 0 0 0 0 0 0 0 0 0 0 0 0 0 0 0 0 0.2 0"/>
            <feMerge>
                <feMergeNode in="shadowMatrixOuter1"/>
                <feMergeNode in="SourceGraphic"/>
            </feMerge>
        </filter>
    </defs>
    <g fill="none" fill-rule="evenodd">
        <g>
            <use fill="#000" filter="url(#a)" xlink:href="#b"/>
            <use fill="url(#c)" xlink:href="#b"/>
        </g>
        <g fill="#FFF" fill-rule="nonzero" filter="url(#d)" transform="translate(25.127 25.577)">
            <path d="M10.93 13.45c0 2.2 1.79 3.99 3.99 3.99s3.99-1.79 3.99-3.99-1.79-3.989-3.99-3.989-3.99 1.79-3.99 3.99zM22.893.843a.616.616 0 0 0-.826.157L18.13 6.396c-.104.143-.142.323-.104.495.038.172.148.32.302.405a7.043 7.043 0 0 1 3.627 6.153c0 .264-.018.538-.058.862a.618.618 0 0 0 .61.69h6.682a.616.616 0 0 0 .615-.575c.021-.322.036-.648.036-.976 0-5.138-2.597-9.851-6.947-12.607zM7.942 14.312a6.974 6.974 0 0 1-.059-.862 7.053 7.053 0 0 1 4.132-6.403.617.617 0 0 0 .263-.89L8.678.51A.615.615 0 0 0 7.868.3 14.911 14.911 0 0 0 0 13.45c0 .328.014.655.035.978.022.323.29.574.614.574h6.682a.617.617 0 0 0 .61-.69zM19.746 19.463a.61.61 0 0 0-.396-.284.622.622 0 0 0-.479.091 6.986 6.986 0 0 1-3.951 1.216 7.04 7.04 0 0 1-3.458-.912.617.617 0 0 0-.845.245l-3.143 5.87a.616.616 0 0 0 .246.83 14.933 14.933 0 0 0 7.2 1.85c2.864 0 5.65-.818 8.058-2.366a.616.616 0 0 0 .194-.834l-3.426-5.706z"/>
        </g>
    </g>
</svg>
