<svg xmlns="http://www.w3.org/2000/svg" width="1280" height="552" viewBox="0 0 1280 552">
    <g fill="none" fill-rule="evenodd">
        <path fill="#1B4855" d="M0-1h1279v552H0z"/>
        <path fill="#133843" d="M1205.146 419.943l-.104-5.826c6.743-.636 14.336-2.417 22.575-6.064 0 0-3.836-.748-8.89-2.397 6.366-1.417 13.137-3.583 20.248-6.731 0 0-5.141-1.003-12.009-3.208a85.878 85.878 0 0 0 3.522-1.718s-.57-.131-1.563-.4a125.434 125.434 0 0 0 15.042-5.56s-4.835-.941-11.576-2.998a98.021 98.021 0 0 0 1.993-1.005s-3.615-.825-8.703-2.626c7.213-1.758 14.824-4.29 22.778-7.81 0 0-4.375-.851-10.726-2.7.053-.026.106-.052.159-.08 0 0-1.335-.305-3.544-.944a150.358 150.358 0 0 1-7.819-2.698c5.648-1.543 11.548-3.606 17.671-6.317 0 0-9.931-1.932-21.201-6.317 5.178-1.385 10.599-3.264 16.232-5.757 0 0-7.747-1.508-16.955-4.904 5.371-1.36 11.018-3.267 16.908-5.874 0 0-7.763-1.513-16.864-4.922a95.312 95.312 0 0 0 12.605-4.572s-7.896-1.538-16.689-5.035a57.262 57.262 0 0 0 1.529-.585c4.155-1.108 8.507-2.616 13.03-4.618 0 0-6.284-1.224-13.715-3.98a58.567 58.567 0 0 0 3.813-1.806l-.222-.054a80.037 80.037 0 0 0 6.575-2.571s-5.798-1.13-12.557-3.68a50.314 50.314 0 0 0 3.434-1.621s-.747-.171-1.967-.53a69.058 69.058 0 0 0 7.541-2.83s-4.44-.865-9.848-2.802c.678-.31 1.363-.642 2.057-1.002 0 0-1.402-.32-3.461-1.012a60.08 60.08 0 0 0 8.412-3.01s-3.682-.716-8.253-2.318a57.263 57.263 0 0 0 7.005-2.574s-4.755-.926-10.041-3.032a48.858 48.858 0 0 0 7.202-2.548s-3.409-.664-7.458-2.158a44.037 44.037 0 0 0 7.286-2.504s-3.452-.675-7.41-2.197c.388-.178.78-.37 1.176-.575 0 0-.072-.016-.2-.05a40.687 40.687 0 0 0 5.014-1.84s-3.394-.662-7.17-2.165a36.36 36.36 0 0 0 5.751-1.998s-3.874-.755-7.752-2.498c.159-.076.318-.155.478-.24 0 0-1.083-.25-2.421-.802 2.103-.325 4.399-.954 6.855-2.041 0 0-3.797-.743-7.138-2.48a21.517 21.517 0 0 0 5.009-1.544s-3.242-.635-5.944-2.127a15.566 15.566 0 0 0 3.814-1.148s-4.008-.78-5.938-2.71c0 0-3.229 2.598-5.567 2.71 0 0 1.198.76 3.252 1.134-1.554.975-3.645 2.058-5.381 2.14 0 0 1.594 1.017 4.337 1.534-1.928 1.174-4.397 2.392-6.467 2.49 0 0 2.13 1.35 5.77 1.992-.832.458-1.705.809-2.486.853 0 0 .233.174.671.409-2.176 1.189-4.651 2.225-6.794 2.328 0 0 1.881 1.194 5.189 2.072-2.174 1.1-4.533 1.99-6.609 2.09 0 0 1.5.95 4.187 1.834a5.606 5.606 0 0 1-.523.057s.502.372 1.429.84c-2.174 1.037-4.467 1.834-6.513 1.932 0 0 1.857 1.18 5.17 2.199-2.582 1.3-5.375 2.346-7.838 2.463 0 0 2.325 1.48 6.443 2.636-3.051 1.549-6.366 2.805-9.282 2.944 0 0 2.331 1.484 6.495 2.773-2.615 1.156-5.31 2.002-7.743 2.119 0 0 2.836 1.796 7.847 3.219-1.201.445-2.385.74-3.498.803 0 0 .703.523 2.014 1.212-3.096 1.406-6.312 2.455-9.202 2.593 0 0 2.479 1.58 6.944 3.059-.672.157-1.333.264-1.972.3 0 0 1.105.822 3.14 1.808-3.884 1.87-8 3.319-11.662 3.493 0 0 2.139 1.359 6.037 2.825.484.328 1.58 1.024 3.211 1.82-4.276 2.025-8.779 3.575-12.797 3.766 0 0 4.276 2.727 11.848 4.83.428.19.881.38 1.357.569-5.048 2.55-10.517 4.61-15.335 4.839 0 0 4.118 2.625 11.457 4.816-5.241 2.507-10.782 4.443-15.716 4.678 0 0 5.022 3.202 13.928 5.724-5.559 2.697-11.47 4.804-16.721 5.054 0 0 5.29 3.372 14.663 5.999-6.492 3.222-13.467 5.782-19.631 6.075 0 0 5.804 3.699 16.104 6.642a85.984 85.984 0 0 1-6.769 2.92c-1.028.205-2.04.342-3.027.397 0 0 .223.167.654.454-3.849 1.294-7.659 2.156-11.222 2.326 0 0 8.068 5.14 22.154 8.45-2.77 1.105-5.515 1.842-8.079 1.986 0 0 .727.542 2.11 1.363-4.002 1.467-7.993 2.465-11.692 2.64 0 0 4.942 3.147 13.788 5.936-.103.008-.207.018-.309.024 0 0 1.158.863 3.327 2.029-4.029 1.6-8.089 2.72-11.814 2.897 0 0 7.126 4.54 19.484 7.167-2.774 1.083-5.563 1.839-8.126 1.96 0 0 8.718 5.56 23.112 6.273l-.295 7.342c-45.573 8.09-106.406 14.687-173.65 10.755a94.957 94.957 0 0 1-1.997-.682c7.213-1.757 14.825-4.29 22.779-7.81 0 0-4.375-.851-10.726-2.7.052-.026.105-.052.158-.08 0 0-1.335-.304-3.544-.944a148.17 148.17 0 0 1-7.818-2.698c5.648-1.543 11.547-3.606 17.67-6.316 0 0-9.931-1.933-21.201-6.318 5.178-1.384 10.599-3.264 16.233-5.757 0 0-7.748-1.508-16.955-4.903 5.37-1.36 11.018-3.267 16.908-5.875 0 0-7.764-1.513-16.864-4.922a95.312 95.312 0 0 0 12.605-4.572s-7.896-1.538-16.689-5.034a64.032 64.032 0 0 0 1.528-.586c4.156-1.107 8.508-2.616 13.031-4.618 0 0-6.284-1.224-13.716-3.98a58.049 58.049 0 0 0 3.813-1.806l-.222-.053a79.559 79.559 0 0 0 6.575-2.572s-5.797-1.13-12.557-3.68a50.59 50.59 0 0 0 3.434-1.621s-.747-.171-1.967-.53a68.572 68.572 0 0 0 7.541-2.83s-4.44-.863-9.848-2.802c.678-.31 1.364-.642 2.057-1.001 0 0-1.402-.321-3.461-1.012a60.045 60.045 0 0 0 8.413-3.01s-3.682-.717-8.254-2.32a57.263 57.263 0 0 0 7.006-2.572s-4.756-.927-10.042-3.033a48.589 48.589 0 0 0 7.202-2.548s-3.409-.663-7.458-2.157a44.139 44.139 0 0 0 7.286-2.505s-3.452-.674-7.41-2.195c.388-.18.781-.371 1.177-.576 0 0-.072-.016-.201-.05a40.71 40.71 0 0 0 5.015-1.841s-3.395-.661-7.171-2.164a36.334 36.334 0 0 0 5.751-2s-3.873-.754-7.752-2.496c.158-.077.318-.156.479-.24 0 0-1.083-.25-2.421-.802 2.102-.325 4.398-.955 6.854-2.041 0 0-3.797-.743-7.137-2.48a21.525 21.525 0 0 0 5.008-1.545s-3.241-.635-5.944-2.127a15.566 15.566 0 0 0 3.814-1.148s-4.008-.78-5.938-2.71c0 0-3.229 2.598-5.566 2.71 0 0 1.197.76 3.252 1.135-1.555.974-3.645 2.058-5.382 2.14 0 0 1.594 1.016 4.338 1.533-1.929 1.174-4.397 2.393-6.468 2.492 0 0 2.13 1.348 5.771 1.99-.833.459-1.705.81-2.487.854 0 0 .234.174.671.409-2.176 1.188-4.651 2.224-6.794 2.327 0 0 1.881 1.194 5.189 2.072-2.174 1.1-4.532 1.992-6.609 2.09 0 0 1.501.95 4.188 1.834a5.345 5.345 0 0 1-.524.058s.502.372 1.429.84c-2.174 1.036-4.467 1.833-6.512 1.93 0 0 1.857 1.182 5.17 2.2-2.574 1.296-5.355 2.337-7.811 2.46.111-.048.221-.093.331-.142 0 0-9.308-1.812-20.372-5.892 6.454-1.632 13.239-3.925 20.316-7.057 0 0-9.328-1.82-20.263-5.916 4.855-1.374 9.91-3.175 15.146-5.492 0 0-9.488-1.848-20.053-6.05a71.462 71.462 0 0 0 1.836-.703c4.994-1.331 10.223-3.143 15.658-5.548 0 0-7.551-1.47-16.48-4.783a69.519 69.519 0 0 0 4.582-2.17s-.095-.021-.267-.063a96.59 96.59 0 0 0 7.9-3.09s-6.966-1.358-15.088-4.421a60.068 60.068 0 0 0 4.126-1.95s-.897-.204-2.364-.635a82.511 82.511 0 0 0 9.061-3.4s-5.334-1.04-11.832-3.368c.815-.372 1.638-.77 2.471-1.203 0 0-1.684-.385-4.158-1.216a72.062 72.062 0 0 0 10.108-3.617s-4.424-.86-9.918-2.785a68.874 68.874 0 0 0 8.418-3.092s-5.713-1.113-12.065-3.644a58.386 58.386 0 0 0 8.653-3.061s-4.096-.798-8.961-2.593a53.008 53.008 0 0 0 8.755-3.01s-4.148-.81-8.903-2.637c.466-.215.937-.444 1.413-.691 0 0-.086-.02-.241-.06a48.856 48.856 0 0 0 6.025-2.213s-4.078-.794-8.615-2.601a43.449 43.449 0 0 0 6.909-2.401s-4.654-.907-9.314-3.001c.191-.091.382-.185.576-.286 0 0-1.302-.301-2.91-.966 2.527-.39 5.286-1.146 8.237-2.452 0 0-4.563-.892-8.577-2.978 1.86-.326 3.876-.91 6.018-1.857 0 0-3.895-.762-7.141-2.555a18.703 18.703 0 0 0 4.582-1.38s-4.816-.936-7.134-3.255c0 0-3.88 3.122-6.689 3.255 0 0 1.439.915 3.908 1.363-1.869 1.172-4.38 2.472-6.467 2.572 0 0 1.916 1.22 5.212 1.843-2.317 1.41-5.283 2.874-7.77 2.992 0 0 2.558 1.62 6.932 2.393-1 .549-2.048.972-2.987 1.025 0 0 .281.209.806.492-2.615 1.427-5.588 2.673-8.163 2.795 0 0 2.26 1.436 6.234 2.49-2.611 1.324-5.445 2.394-7.94 2.512 0 0 1.803 1.142 5.031 2.203a6.912 6.912 0 0 1-.629.07s.603.447 1.718 1.01c-2.613 1.243-5.369 2.202-7.826 2.319 0 0 2.231 1.42 6.212 2.642-3.103 1.563-6.459 2.819-9.417 2.96 0 0 2.793 1.78 7.741 3.166-3.666 1.862-7.649 3.372-11.153 3.539 0 0 2.8 1.783 7.804 3.33-3.142 1.39-6.38 2.408-9.304 2.547 0 0 3.408 2.159 9.428 3.868-1.441.535-2.864.89-4.202.965 0 0 .845.628 2.419 1.455-3.719 1.69-7.583 2.95-11.056 3.116 0 0 2.979 1.899 8.343 3.676-.807.19-1.601.317-2.369.36 0 0 1.327.99 3.774 2.173-4.668 2.246-9.613 3.988-14.013 4.197 0 0 2.571 1.633 7.254 3.394.58.394 1.898 1.232 3.858 2.189-5.138 2.43-10.549 4.293-15.377 4.523 0 0 5.138 3.276 14.237 5.805.513.226 1.059.454 1.63.682-6.066 3.065-12.637 5.539-18.425 5.814 0 0 4.948 3.154 13.765 5.786-6.297 3.013-12.954 5.339-18.883 5.622 0 0 6.034 3.846 16.735 6.877-6.679 3.24-13.782 5.772-20.09 6.072 0 0 6.355 4.052 17.617 7.208-7.06 3.505-14.594 6.35-21.454 7.12a56.204 56.204 0 0 1-1.522-.425 82.561 82.561 0 0 0 9.06-3.4s-5.334-1.038-11.832-3.367c.815-.372 1.638-.77 2.471-1.203 0 0-1.684-.386-4.158-1.216a72.19 72.19 0 0 0 10.108-3.617s-4.424-.861-9.917-2.785a69.028 69.028 0 0 0 8.417-3.092s-5.713-1.113-12.065-3.644a58.5 58.5 0 0 0 8.653-3.061s-4.095-.798-8.96-2.593a52.946 52.946 0 0 0 8.754-3.01s-4.148-.81-8.903-2.637a33.9 33.9 0 0 0 1.413-.692s-.086-.02-.241-.06a48.904 48.904 0 0 0 6.025-2.212s-4.077-.795-8.615-2.601a43.514 43.514 0 0 0 6.909-2.401s-4.654-.907-9.314-3.001c.191-.092.382-.186.576-.286 0 0-1.302-.301-2.91-.966 2.527-.39 5.286-1.146 8.237-2.452 0 0-4.563-.892-8.576-2.98 1.86-.325 3.875-.907 6.017-1.855 0 0-3.894-.762-7.141-2.555a18.665 18.665 0 0 0 4.582-1.381s-4.815-.935-7.134-3.255c0 0-3.88 3.122-6.689 3.255 0 0 1.439.915 3.907 1.364-1.868 1.172-4.379 2.472-6.466 2.572 0 0 1.916 1.22 5.212 1.843-2.317 1.41-5.283 2.874-7.77 2.992 0 0 2.559 1.62 6.933 2.392-1 .55-2.049.973-2.988 1.026 0 0 .281.209.806.492-2.615 1.427-5.588 2.672-8.163 2.795 0 0 2.26 1.435 6.234 2.49-2.611 1.323-5.445 2.393-7.94 2.512 0 0 1.803 1.14 5.032 2.203a6.624 6.624 0 0 1-.63.069s.604.448 1.718 1.01c-2.613 1.244-5.368 2.203-7.826 2.319 0 0 2.231 1.42 6.212 2.643-3.103 1.563-6.459 2.818-9.417 2.96 0 0 2.793 1.78 7.741 3.166-3.666 1.862-7.648 3.372-11.153 3.539 0 0 2.8 1.783 7.804 3.33-3.142 1.39-6.38 2.407-9.303 2.547 0 0 3.408 2.158 9.427 3.868-1.442.534-2.864.89-4.202.965 0 0 .845.628 2.419 1.455-3.72 1.69-7.583 2.95-11.056 3.116 0 0 2.979 1.899 8.344 3.676-.808.19-1.602.317-2.37.359 0 0 1.328.99 3.774 2.173-4.668 2.246-9.612 3.988-14.013 4.198 0 0 2.571 1.632 7.254 3.394.581.394 1.898 1.232 3.858 2.188-5.138 2.432-10.549 4.294-15.376 4.524 0 0 5.138 3.275 14.236 5.805.513.226 1.059.454 1.629.68-6.065 3.067-12.635 5.54-18.424 5.816 0 0 4.948 3.154 13.765 5.786-3.815 1.825-7.76 3.39-11.598 4.409-33.393-12.167-67.223-21.252-100.908-27.622l-.094-5.237c3.562-.335 7.572-1.277 11.924-3.202 0 0-2.027-.396-4.696-1.267 3.362-.748 6.939-1.893 10.694-3.555 0 0-2.715-.53-6.343-1.694a43.963 43.963 0 0 0 1.861-.907s-.301-.07-.826-.211a66.444 66.444 0 0 0 7.945-2.937s-2.554-.497-6.114-1.584c.349-.171.7-.347 1.053-.531 0 0-1.91-.435-4.597-1.387 3.809-.927 7.829-2.264 12.031-4.124 0 0-2.311-.45-5.666-1.425.028-.015.056-.03.084-.043 0 0-.705-.162-1.871-.5a78.89 78.89 0 0 1-4.13-1.424 66.093 66.093 0 0 0 9.333-3.336s-5.245-1.021-11.198-3.337a58.723 58.723 0 0 0 8.574-3.04s-4.092-.797-8.955-2.59a55.995 55.995 0 0 0 8.93-3.103s-4.101-.8-8.907-2.6a50.367 50.367 0 0 0 6.657-2.414s-4.17-.813-8.814-2.66c.267-.098.537-.201.807-.31a46.718 46.718 0 0 0 6.882-2.437s-3.318-.647-7.244-2.103c.661-.284 1.332-.6 2.014-.953l-.117-.028a41.963 41.963 0 0 0 3.473-1.36s-3.062-.595-6.632-1.942a26.443 26.443 0 0 0 1.813-.857s-.394-.09-1.039-.28a36.278 36.278 0 0 0 3.983-1.494s-2.345-.456-5.201-1.48c.358-.164.72-.338 1.087-.53 0 0-.741-.168-1.829-.533a31.71 31.71 0 0 0 4.443-1.591s-1.944-.378-4.359-1.223a30.37 30.37 0 0 0 3.7-1.36s-2.511-.49-5.303-1.601a25.85 25.85 0 0 0 3.804-1.346s-1.801-.351-3.939-1.14a23.196 23.196 0 0 0 3.848-1.323s-1.823-.355-3.914-1.16c.205-.094.412-.194.621-.303l-.106-.026c.852-.25 1.736-.57 2.649-.973 0 0-1.792-.35-3.787-1.143a19.109 19.109 0 0 0 3.037-1.056s-2.046-.4-4.094-1.32c.084-.04.168-.08.253-.124 0 0-.572-.133-1.279-.425a14.307 14.307 0 0 0 3.621-1.078s-2.006-.392-3.77-1.31a11.355 11.355 0 0 0 2.645-.815s-1.712-.335-3.139-1.123a8.251 8.251 0 0 0 2.014-.607s-2.117-.412-3.136-1.431c0 0-1.706 1.372-2.94 1.43 0 0 .632.403 1.717.6-.821.514-1.925 1.087-2.842 1.13 0 0 .842.537 2.291.81-1.018.62-2.322 1.264-3.416 1.316 0 0 1.125.713 3.048 1.05-.439.244-.9.429-1.314.453 0 0 .124.09.355.215-1.149.627-2.457 1.175-3.588 1.229 0 0 .993.63 2.74 1.095-1.148.582-2.394 1.05-3.49 1.104 0 0 .792.502 2.212.968a3.048 3.048 0 0 1-.277.03s.265.197.755.445c-1.148.546-2.36.968-3.44 1.019 0 0 .981.624 2.731 1.162-1.364.687-2.84 1.238-4.14 1.3 0 0 1.227.783 3.403 1.393-1.612.818-3.362 1.482-4.903 1.555 0 0 1.231.784 3.431 1.465-1.381.609-2.805 1.057-4.09 1.118 0 0 1.498.949 4.144 1.7-.634.236-1.259.392-1.847.425 0 0 .372.277 1.064.64-1.636.743-3.334 1.297-4.861 1.369 0 0 1.31.835 3.668 1.616-.355.083-.704.14-1.042.158 0 0 .584.435 1.659.955a27.05 27.05 0 0 1-1.042.473 63.155 63.155 0 0 1-8.118-2.577c.297-.11.597-.225.898-.344a51.956 51.956 0 0 0 7.661-2.715s-3.695-.72-8.064-2.34a34.332 34.332 0 0 0 2.243-1.062l-.131-.031a47.475 47.475 0 0 0 3.866-1.512s-3.409-.665-7.383-2.164a29.318 29.318 0 0 0 2.019-.953s-.439-.101-1.157-.312a40.355 40.355 0 0 0 4.434-1.663s-2.61-.508-5.79-1.648a26.18 26.18 0 0 0 1.209-.59s-.824-.187-2.035-.594a35.31 35.31 0 0 0 4.947-1.77s-2.165-.421-4.853-1.363a33.722 33.722 0 0 0 4.119-1.512s-2.796-.545-5.904-1.783a28.704 28.704 0 0 0 4.234-1.498s-2.004-.39-4.385-1.27a25.916 25.916 0 0 0 4.284-1.472s-2.03-.396-4.356-1.291c.228-.104.458-.217.691-.338l-.118-.03a23.901 23.901 0 0 0 2.949-1.082s-1.996-.39-4.216-1.272a21.516 21.516 0 0 0 3.381-1.175s-2.278-.445-4.558-1.47c.093-.044.187-.09.282-.14 0 0-.637-.146-1.424-.471a15.944 15.944 0 0 0 4.03-1.2s-2.232-.437-4.197-1.457a12.679 12.679 0 0 0 2.945-.91s-1.905-.373-3.494-1.25a9.115 9.115 0 0 0 2.242-.675s-2.356-.458-3.491-1.592c0 0-1.898 1.527-3.273 1.592 0 0 .704.448 1.912.668-.914.573-2.143 1.21-3.164 1.257 0 0 .937.598 2.551.903-1.135.689-2.586 1.406-3.803 1.464 0 0 1.252.793 3.392 1.17-.489.27-1.002.476-1.461.502 0 0 .137.102.394.24-1.279.699-2.734 1.308-3.994 1.369 0 0 1.106.702 3.05 1.218-1.278.648-2.664 1.17-3.885 1.229 0 0 .882.559 2.462 1.078a3.02 3.02 0 0 1-.308.034s.295.219.841.495c-1.279.608-2.627 1.078-3.83 1.134 0 0 1.092.695 3.04 1.293-1.519.765-3.161 1.379-4.608 1.449 0 0 1.366.87 3.788 1.549-1.794.91-3.743 1.65-5.458 1.732 0 0 1.371.872 3.819 1.63-1.537.679-3.122 1.177-4.552 1.246 0 0 1.667 1.055 4.613 1.892-.706.26-1.402.436-2.057.472 0 0 .414.308 1.184.712-1.82.828-3.71 1.444-5.41 1.525 0 0 1.458.929 4.083 1.799a6.824 6.824 0 0 1-1.16.176s.65.484 1.847 1.062c-2.284 1.1-4.703 1.953-6.857 2.055 0 0 1.258.799 3.55 1.66.284.194.928.603 1.887 1.072-1.562.739-3.175 1.37-4.739 1.769a47.718 47.718 0 0 1-5.797-1.76 27.398 27.398 0 0 0 1.813-.856s-.394-.091-1.038-.28a36.354 36.354 0 0 0 3.982-1.495s-2.345-.457-5.201-1.48c.358-.163.72-.34 1.086-.53 0 0-.74-.168-1.828-.534a31.7 31.7 0 0 0 4.444-1.59s-1.945-.378-4.36-1.224a30.132 30.132 0 0 0 3.7-1.36s-2.511-.49-5.303-1.601a25.62 25.62 0 0 0 3.804-1.346s-1.8-.35-3.939-1.14a23.288 23.288 0 0 0 3.848-1.322s-1.823-.356-3.913-1.16c.205-.093.412-.195.621-.303l-.106-.026c.852-.25 1.735-.57 2.649-.973 0 0-1.793-.35-3.788-1.144a19.178 19.178 0 0 0 3.038-1.055s-2.046-.398-4.095-1.32c.084-.04.168-.081.253-.125 0 0-.572-.132-1.279-.424a14.336 14.336 0 0 0 3.621-1.078s-2.006-.392-3.77-1.31c.817-.143 1.703-.4 2.645-.816 0 0-1.712-.335-3.139-1.123a8.233 8.233 0 0 0 2.014-.606s-2.117-.412-3.136-1.431c0 0-1.705 1.372-2.94 1.43 0 0 .633.403 1.718.6-.822.515-1.926 1.086-2.843 1.13 0 0 .842.536 2.291.81-1.019.62-2.322 1.263-3.416 1.316 0 0 1.125.712 3.048 1.05-.44.243-.9.429-1.313.452 0 0 .123.092.354.217-1.149.627-2.456 1.174-3.588 1.228 0 0 .994.63 2.74 1.095-1.148.58-2.393 1.052-3.49 1.104 0 0 .792.502 2.212.968a2.97 2.97 0 0 1-.277.03s.265.197.755.445c-1.148.547-2.36.968-3.44 1.019 0 0 .981.625 2.731 1.162-1.364.686-2.84 1.239-4.14 1.3 0 0 1.228.784 3.403 1.393-1.611.818-3.362 1.48-4.903 1.555 0 0 1.231.784 3.431 1.465-1.381.61-2.805 1.057-4.09 1.119 0 0 1.499.949 4.145 1.7-.634.234-1.26.39-1.848.424 0 0 .372.276 1.064.639-1.635.743-3.334 1.297-4.861 1.37 0 0 1.31.835 3.668 1.616a6.11 6.11 0 0 1-1.042.159s.584.434 1.66.954c-2.052.987-4.226 1.753-6.16 1.846 0 0 1.13.717 3.188 1.492.256.173.835.54 1.696.96-2.258 1.07-4.636 1.888-6.759 1.99 0 0 2.259 1.439 6.258 2.55.226.1.466.2.717.302-2.666 1.346-5.555 2.433-8.1 2.555 0 0 2.176 1.386 6.052 2.543-2.768 1.324-5.695 2.347-8.301 2.47 0 0 2.652 1.692 7.356 3.024-2.936 1.425-6.058 2.537-8.831 2.669 0 0 2.794 1.782 7.744 3.169-3.428 1.702-7.112 3.054-10.368 3.208 0 0 3.066 1.954 8.505 3.508a45.145 45.145 0 0 1-3.574 1.543c-.543.107-1.078.18-1.599.21 0 0 .118.087.345.239-2.033.684-4.045 1.139-5.927 1.229 0 0 4.261 2.715 11.701 4.464-1.463.583-2.913.97-4.267 1.048 0 0 .384.286 1.115.719-2.114.776-4.222 1.302-6.176 1.396 0 0 2.61 1.66 7.283 3.134l-.164.012s.612.456 1.757 1.072c-2.128.845-4.272 1.437-6.239 1.53 0 0 3.763 2.399 10.29 3.786-1.465.572-2.938.97-4.292 1.035 0 0 4.605 2.937 12.207 3.314l-.147 3.658a698.343 698.343 0 0 0-117.383-1.306 568.62 568.62 0 0 1-1.265-14.918c36.198 7.633 30.731-15.897 30.731-15.897 7.034-6.858.528-12.66.528-12.66 2.989-7.21-1.407-10.375-1.407-10.375.879-6.682-4.572-8.616-4.572-8.616.352-9.32-6.506-10.551-6.506-10.551-2.286-11.781-14.243-8.967-14.243-8.967-10.374-7.738-18.287 1.054-18.287 1.054-11.958-.878-12.309 11.079-12.309 11.079-8.968 2.286-5.627 10.902-5.627 10.902-11.429 1.934-7.385 13.716-7.385 13.716-10.551 10.725 1.934 16.88 1.934 16.88s-7.913 7.737 7.737 13.012c10.442 3.52 18.534 2.186 22.764.908-.169 3.945-1.111 10.026-1.655 15.2-39.808 3.479-77.491 10.278-111.816 19.61l-.087-4.894c3.964-.374 8.429-1.421 13.273-3.566 0 0-2.256-.44-5.227-1.41 3.743-.832 7.724-2.106 11.904-3.956 0 0-3.022-.59-7.06-1.886a49.02 49.02 0 0 0 2.071-1.011s-.335-.077-.919-.235a73.795 73.795 0 0 0 8.843-3.268s-2.842-.553-6.805-1.763c.388-.191.779-.387 1.172-.591 0 0-2.126-.485-5.118-1.544 4.241-1.033 8.716-2.521 13.393-4.592 0 0-2.572-.5-6.307-1.587.032-.015.062-.031.094-.048 0 0-.785-.178-2.084-.554a88.597 88.597 0 0 1-4.597-1.586 73.576 73.576 0 0 0 10.39-3.714s-5.839-1.137-12.466-3.715a64.982 64.982 0 0 0 9.544-3.385s-4.555-.886-9.968-2.882a62.279 62.279 0 0 0 9.94-3.454s-4.564-.89-9.915-2.894a55.959 55.959 0 0 0 7.411-2.688s-4.642-.904-9.812-2.96c.298-.11.598-.224.899-.344a52.112 52.112 0 0 0 7.661-2.715s-3.694-.72-8.064-2.341a33.78 33.78 0 0 0 2.242-1.061l-.13-.032a47.095 47.095 0 0 0 3.866-1.511s-3.409-.665-7.383-2.164a29.103 29.103 0 0 0 2.018-.954s-.439-.1-1.156-.311a40.432 40.432 0 0 0 4.434-1.663s-2.611-.51-5.79-1.648c.398-.182.801-.377 1.209-.59 0 0-.824-.187-2.035-.593a35.448 35.448 0 0 0 4.946-1.771s-2.164-.421-4.852-1.362a33.673 33.673 0 0 0 4.118-1.514s-2.795-.545-5.904-1.783a28.446 28.446 0 0 0 4.235-1.498s-2.004-.39-4.385-1.27a25.9 25.9 0 0 0 4.284-1.47s-2.03-.397-4.357-1.291c.228-.106.459-.218.692-.34l-.118-.027a23.842 23.842 0 0 0 2.948-1.084s-1.995-.39-4.216-1.272a21.232 21.232 0 0 0 3.382-1.176s-2.278-.443-4.558-1.467c.093-.045.187-.092.281-.141 0 0-.636-.148-1.423-.473 1.236-.19 2.586-.56 4.03-1.2 0 0-2.233-.436-4.196-1.457.91-.16 1.896-.444 2.944-.908 0 0-1.905-.373-3.494-1.25a9.164 9.164 0 0 0 2.242-.676s-2.356-.458-3.491-1.593c0 0-1.898 1.528-3.273 1.593 0 0 .704.447 1.912.667-.914.573-2.143 1.21-3.164 1.259 0 0 .937.596 2.55.9-1.134.692-2.585 1.407-3.802 1.465 0 0 1.252.794 3.393 1.17-.49.27-1.003.477-1.462.503 0 0 .137.102.394.24-1.28.698-2.734 1.309-3.994 1.368 0 0 1.105.703 3.05 1.219-1.278.647-2.664 1.17-3.885 1.229 0 0 .882.559 2.462 1.078a3.716 3.716 0 0 1-.308.034s.295.219.84.494c-1.278.609-2.626 1.078-3.829 1.136 0 0 1.092.694 3.04 1.293-1.518.763-3.161 1.379-4.608 1.447 0 0 1.366.87 3.787 1.55-1.793.91-3.742 1.649-5.457 1.73 0 0 1.37.874 3.819 1.632-1.537.679-3.122 1.177-4.553 1.245 0 0 1.668 1.057 4.614 1.893-.706.26-1.402.435-2.056.472 0 0 .413.308 1.183.712-1.82.827-3.71 1.444-5.41 1.525 0 0 1.457.928 4.083 1.799a6.736 6.736 0 0 1-1.16.175s.65.485 1.847 1.064c-2.284 1.099-4.704 1.95-6.857 2.054 0 0 1.258.798 3.549 1.66.285.193.929.603 1.889 1.07-2.515 1.19-5.163 2.103-7.525 2.215 0 0 2.515 1.602 6.966 2.84.252.11.519.222.798.334-2.968 1.5-6.183 2.71-9.016 2.845 0 0 2.422 1.543 6.736 2.83-3.081 1.475-6.339 2.614-9.24 2.752 0 0 2.953 1.882 8.189 3.365-3.212 1.559-6.621 2.775-9.668 2.957a105.845 105.845 0 0 1-10.922-3.348c4.442-1.124 9.113-2.702 13.985-4.86 0 0-6.421-1.251-13.949-4.071a78.692 78.692 0 0 0 10.426-3.781s-6.531-1.272-13.803-4.164a47.72 47.72 0 0 0 1.263-.485 73.162 73.162 0 0 0 10.779-3.82s-5.198-1.011-11.345-3.292a47.58 47.58 0 0 0 3.154-1.494s-.065-.014-.183-.044a65.764 65.764 0 0 0 5.438-2.126s-4.796-.935-10.387-3.044a41.615 41.615 0 0 0 2.841-1.341s-.618-.141-1.627-.44a56.716 56.716 0 0 0 6.237-2.34s-3.672-.714-8.145-2.317c.561-.256 1.127-.53 1.701-.828 0 0-1.16-.266-2.863-.837a49.617 49.617 0 0 0 6.958-2.49s-3.045-.593-6.827-1.917a47.313 47.313 0 0 0 5.795-2.13s-3.933-.766-8.306-2.508a40.1 40.1 0 0 0 5.958-2.107s-2.82-.55-6.169-1.785a36.344 36.344 0 0 0 6.026-2.072s-2.855-.558-6.128-1.816c.32-.147.645-.305.972-.476l-.166-.04a33.869 33.869 0 0 0 4.148-1.523s-2.807-.547-5.931-1.791c1.512-.384 3.1-.92 4.757-1.653 0 0-3.204-.625-6.412-2.066.131-.063.263-.128.396-.197 0 0-.896-.207-2.003-.664 1.739-.27 3.639-.79 5.67-1.69 0 0-3.14-.613-5.904-2.05a17.772 17.772 0 0 0 4.143-1.277s-2.681-.525-4.916-1.76a12.903 12.903 0 0 0 3.154-.95s-3.315-.645-4.911-2.24c0 0-2.671 2.148-4.605 2.24 0 0 .991.63 2.69.938-1.286.808-3.015 1.704-4.451 1.772 0 0 1.319.84 3.588 1.268-1.595.97-3.637 1.979-5.349 2.06 0 0 1.761 1.116 4.772 1.647-.688.378-1.41.669-2.057.706 0 0 .194.144.555.338-1.8.983-3.847 1.84-5.619 1.925 0 0 1.556.988 4.292 1.714-1.798.91-3.749 1.648-5.466 1.73 0 0 1.24.785 3.463 1.515-.146.023-.291.04-.433.048 0 0 .415.308 1.183.696-1.799.857-3.696 1.516-5.388 1.596 0 0 1.536.978 4.277 1.819-2.136 1.076-4.447 1.94-6.484 2.038 0 0 1.923 1.225 5.329 2.18-2.523 1.28-5.265 2.32-7.677 2.436 0 0 1.927 1.227 5.372 2.294-2.163.955-4.392 1.656-6.405 1.752 0 0 2.347 1.486 6.491 2.663-.993.367-1.972.612-2.893.664 0 0 .582.432 1.665 1.002-2.56 1.164-5.22 2.03-7.611 2.144 0 0 2.051 1.308 5.744 2.532a9.695 9.695 0 0 1-1.631.247s.914.68 2.597 1.496c-3.213 1.546-6.616 2.745-9.646 2.889 0 0 1.77 1.124 4.993 2.336.4.272 1.307.848 2.657 1.506-3.537 1.675-7.262 2.956-10.586 3.115 0 0 3.537 2.255 9.801 3.996.353.156.729.313 1.122.469-4.176 2.11-8.699 3.814-12.684 4.003 0 0 3.406 2.172 9.476 3.984-4.335 2.073-8.918 3.674-12.999 3.869 0 0 4.154 2.648 11.521 4.734-4.599 2.23-9.488 3.974-13.831 4.18 0 0 4.375 2.79 12.128 4.963-5.37 2.666-11.139 4.782-16.238 5.025 0 0 4.801 3.06 13.32 5.494a70.693 70.693 0 0 1-5.598 2.415c-.851.169-1.688.282-2.504.328 0 0 .185.138.541.376-3.184 1.07-6.335 1.784-9.282 1.924 0 0 6.673 4.25 18.324 6.99-2.291.913-4.561 1.523-6.682 1.64 0 0 .601.45 1.745 1.129-3.31 1.214-6.611 2.039-9.671 2.184 0 0 4.088 2.603 11.405 4.91-.085.006-.171.014-.256.019 0 0 .958.714 2.752 1.679-3.333 1.323-6.691 2.25-9.772 2.396 0 0 5.894 3.756 16.116 5.928-2.294.897-4.601 1.522-6.721 1.622 0 0 7.211 4.599 19.117 5.189l-.323 8.033c-29.458 11.993-54.892 25.992-75.053 41.254-35.648 26.984-81.911 24.238-127.02 9.249.848-.355 1.693-.701 2.55-1.081 0 0-4.835-.942-11.576-2.998a98.096 98.096 0 0 0 1.993-1.006s-3.615-.825-8.703-2.626c7.213-1.757 14.825-4.29 22.779-7.81 0 0-4.375-.851-10.726-2.7.052-.026.105-.052.158-.08 0 0-1.335-.304-3.544-.944a148.505 148.505 0 0 1-7.819-2.698c5.648-1.543 11.548-3.606 17.671-6.316 0 0-9.931-1.933-21.201-6.318 5.178-1.384 10.599-3.264 16.233-5.757 0 0-7.748-1.508-16.955-4.903 5.37-1.36 11.018-3.267 16.907-5.875 0 0-7.763-1.513-16.864-4.922a95.21 95.21 0 0 0 12.605-4.572s-7.896-1.538-16.688-5.034a62.43 62.43 0 0 0 1.528-.586c4.156-1.107 8.508-2.616 13.031-4.618 0 0-6.285-1.224-13.716-3.98a58.049 58.049 0 0 0 3.813-1.806l-.222-.053a79.559 79.559 0 0 0 6.575-2.572s-5.798-1.13-12.557-3.68a50.59 50.59 0 0 0 3.434-1.621s-.747-.171-1.967-.53a68.648 68.648 0 0 0 7.541-2.83s-4.44-.863-9.848-2.802c.678-.31 1.364-.642 2.057-1.001 0 0-1.402-.321-3.461-1.012a60.09 60.09 0 0 0 8.413-3.01s-3.682-.717-8.254-2.32a57.263 57.263 0 0 0 7.006-2.572s-4.756-.927-10.042-3.033a48.629 48.629 0 0 0 7.202-2.548s-3.409-.663-7.458-2.157a44.139 44.139 0 0 0 7.286-2.505s-3.452-.674-7.41-2.195c.388-.18.78-.371 1.176-.576 0 0-.071-.016-.2-.05a40.639 40.639 0 0 0 5.014-1.841s-3.393-.661-7.17-2.164a36.334 36.334 0 0 0 5.751-2s-3.874-.754-7.752-2.496c.159-.077.318-.156.479-.24 0 0-1.083-.25-2.421-.802 2.102-.325 4.398-.955 6.854-2.041 0 0-3.797-.743-7.138-2.48a21.517 21.517 0 0 0 5.009-1.545s-3.242-.635-5.944-2.127a15.566 15.566 0 0 0 3.814-1.148s-4.008-.78-5.938-2.71c0 0-3.228 2.598-5.567 2.71 0 0 1.198.76 3.252 1.135-1.554.974-3.645 2.058-5.381 2.14 0 0 1.594 1.016 4.337 1.533-1.928 1.174-4.397 2.393-6.467 2.492 0 0 2.13 1.348 5.771 1.99-.833.459-1.705.81-2.487.854 0 0 .234.174.671.409-2.176 1.188-4.651 2.224-6.794 2.327 0 0 1.881 1.194 5.189 2.072-2.174 1.1-4.532 1.992-6.609 2.09 0 0 1.5.95 4.187 1.834a5.292 5.292 0 0 1-.523.058s.502.372 1.43.84c-2.175 1.036-4.468 1.833-6.514 1.93 0 0 1.857 1.182 5.17 2.2-2.433 1.226-5.051 2.215-7.405 2.424-3.66-1.02-8.234-2.445-13.058-4.322 5.179-1.384 10.6-3.264 16.233-5.757 0 0-7.747-1.508-16.955-4.904 5.371-1.36 11.018-3.267 16.908-5.874 0 0-7.763-1.513-16.864-4.922a95.312 95.312 0 0 0 12.605-4.572s-7.896-1.538-16.689-5.034a62.488 62.488 0 0 0 1.529-.586c4.155-1.108 8.507-2.616 13.03-4.618 0 0-6.284-1.224-13.715-3.98a58.567 58.567 0 0 0 3.813-1.806s-.079-.02-.222-.053a80.415 80.415 0 0 0 6.575-2.572s-5.798-1.13-12.557-3.68a50.57 50.57 0 0 0 3.433-1.621s-.746-.171-1.966-.53a69.058 69.058 0 0 0 7.541-2.83s-4.44-.864-9.848-2.802c.678-.31 1.363-.642 2.057-1.002 0 0-1.402-.32-3.461-1.012a59.953 59.953 0 0 0 8.412-3.01s-3.682-.716-8.254-2.318a57.203 57.203 0 0 0 7.006-2.573s-4.755-.927-10.041-3.033a48.579 48.579 0 0 0 7.201-2.548s-3.408-.663-7.458-2.157a44.148 44.148 0 0 0 7.287-2.505s-3.453-.674-7.41-2.196c.388-.178.78-.37 1.176-.576 0 0-.072-.015-.2-.05a40.524 40.524 0 0 0 5.014-1.84s-3.394-.661-7.17-2.164a36.36 36.36 0 0 0 5.75-2s-3.873-.754-7.752-2.496c.159-.077.319-.156.479-.24 0 0-1.083-.25-2.421-.803 2.102-.325 4.399-.954 6.855-2.041 0 0-3.797-.742-7.138-2.48a21.496 21.496 0 0 0 5.008-1.544s-3.241-.635-5.943-2.127a15.566 15.566 0 0 0 3.814-1.148s-4.008-.78-5.938-2.71c0 0-3.229 2.598-5.567 2.71 0 0 1.198.76 3.252 1.134-1.555.975-3.645 2.058-5.381 2.14 0 0 1.594 1.017 4.337 1.534-1.928 1.174-4.397 2.393-6.467 2.49 0 0 2.13 1.35 5.77 1.993-.832.457-1.705.809-2.486.853 0 0 .233.174.671.409-2.177 1.188-4.651 2.224-6.794 2.327 0 0 1.88 1.194 5.189 2.072-2.174 1.1-4.533 1.992-6.609 2.09 0 0 1.5.95 4.187 1.834a5.002 5.002 0 0 1-.523.057s.502.373 1.429.842c-2.174 1.035-4.467 1.832-6.513 1.93 0 0 1.857 1.18 5.17 2.199-2.582 1.3-5.375 2.346-7.838 2.463 0 0 2.325 1.482 6.443 2.636-3.051 1.549-6.366 2.805-9.282 2.945 0 0 2.33 1.484 6.495 2.772-2.615 1.156-5.31 2.003-7.743 2.119 0 0 2.836 1.796 7.846 3.219-1.2.445-2.384.742-3.497.803 0 0 .703.523 2.013 1.212-3.096 1.406-6.311 2.455-9.202 2.593 0 0 2.48 1.58 6.945 3.059a11.4 11.4 0 0 1-1.973.3s1.106.823 3.141 1.808c-3.884 1.87-8 3.319-11.662 3.493 0 0 2.139 1.359 6.037 2.826.483.327 1.58 1.023 3.211 1.82-4.276 2.024-8.78 3.574-12.798 3.765 0 0 4.277 2.727 11.849 4.83.428.19.881.38 1.356.569-5.047 2.55-10.516 4.61-15.334 4.839 0 0 4.118 2.625 11.457 4.816-5.241 2.508-10.782 4.443-15.716 4.678 0 0 5.022 3.202 13.928 5.724-5.559 2.698-11.471 4.804-16.721 5.054 0 0 5.289 3.373 14.662 5.999-6.491 3.223-13.466 5.782-19.631 6.076 0 0 5.805 3.698 16.104 6.64a85.814 85.814 0 0 1-6.768 2.922c-1.028.204-2.04.34-3.027.397 0 0 .223.166.654.453-3.849 1.294-7.659 2.156-11.222 2.326 0 0 8.068 5.14 22.154 8.45-2.771 1.105-5.515 1.842-8.079 1.986 0 0 .726.542 2.11 1.363-4.002 1.468-7.993 2.465-11.693 2.64 0 0 4.942 3.147 13.789 5.936-.103.008-.207.018-.309.024 0 0 1.158.863 3.327 2.029a50.022 50.022 0 0 1-5.315 1.789C12.31 354.667-3 341.202-3 341.202v269.916h1282.026V401.565s-28.098 9.666-73.88 18.378"/>
        <path fill="#0D2E37" d="M495.911 482.296a94.567 94.567 0 0 0 9.62-2.695 71.46 71.46 0 0 0 6.231 1.62c-2.54.993-5.094 1.684-7.442 1.796 0 0 7.985 5.092 21.17 5.746l-.384 9.549c-13.579 1.743-27.329 2.673-41.532 2.78l-.198-11.046c6.177-.582 13.131-2.213 20.678-5.554 0 0-3.514-.685-8.143-2.196zm10.885-79.196a53.491 53.491 0 0 0 6.148 2.112c.392.172.807.345 1.243.519-3.536 1.787-7.295 3.303-10.842 4.015a93.911 93.911 0 0 1-7.883-2.719c.463-.171.93-.349 1.4-.536 3.187-.85 6.507-1.976 9.934-3.391zm-.008 20.332a65.31 65.31 0 0 0 2.21.67 60.507 60.507 0 0 1-6.584 2.752 108.43 108.43 0 0 1-3.252-1.138 93.62 93.62 0 0 0 7.626-2.284zm-.01-10.159c1.151.435 2.433.876 3.857 1.301-2.289 1.096-4.64 2.065-6.964 2.81-1.423-.461-2.925-.98-4.469-1.559a85.396 85.396 0 0 0 7.575-2.552zm-4.497 46.815c.912-.223 1.834-.462 2.76-.712-.823.314-1.64.586-2.453.819l-.307-.107zm3.22-26.334c.521.159 1.058.317 1.611.472a77.249 77.249 0 0 1-4.796 2.186c-.822-.298-1.65-.605-2.492-.933a98.642 98.642 0 0 0 5.677-1.725zm40.743 47.067c4.774-1.062 9.8-2.595 15.038-4.693 3.493 1.129 8.084 2.18 13.601 2.454l-.393 9.786c-13.633 3.699-27.08 6.608-40.629 8.705l-.152-8.502c6.176-.582 13.131-2.214 20.678-5.554 0 0-3.514-.685-8.143-2.196zm8.544-78.269a56.874 56.874 0 0 0 5.24 1.842c-2.767 1.324-5.624 2.462-8.415 3.24a91.114 91.114 0 0 1-5.819-2.082c.464-.17.93-.349 1.4-.537a79.41 79.41 0 0 0 7.594-2.463zm-.177 10.175c1.16.405 2.415.809 3.78 1.196a65.92 65.92 0 0 1-4.458 1.963 106.171 106.171 0 0 1-4.398-1.536 83.177 83.177 0 0 0 5.076-1.623zm-1.118 10.402c.946.311 1.95.62 3.012.917a81.548 81.548 0 0 1-3.228 1.508c-1.217-.4-2.48-.833-3.782-1.314a93.085 93.085 0 0 0 3.998-1.111zm2.796 49.36c-.798-.237-1.632-.492-2.499-.771a75.573 75.573 0 0 0 3.226-1.575s-.522-.119-1.43-.365c.084-.025.172-.057.258-.082 1.632.479 3.397.938 5.312 1.345-1.638.639-3.276 1.133-4.867 1.448zm603.8-100.754c7.33-.69 15.583-2.627 24.54-6.592 0 0-4.17-.812-9.664-2.605 6.92-1.54 14.281-3.896 22.01-7.317 0 0-5.588-1.089-13.054-3.488a89.936 89.936 0 0 0 3.828-1.868c3.565-1.999 9.021-3.984 14.653-6.477 0 0-5.256-1.023-12.584-3.26.72-.352 1.441-.716 2.167-1.093 0 0-3.93-.897-9.46-2.855 7.84-1.91 16.114-4.662 24.761-8.489 0 0-4.756-.925-11.66-2.934.172-.088-1.279-.418-3.68-1.116-2.66-.836-5.53-1.81-8.499-2.93 6.14-1.678 12.552-3.921 19.21-6.867 0 0-10.797-2.101-23.049-6.869 5.63-1.504 11.522-3.546 17.646-6.257 0 0-8.422-1.64-18.43-5.33 5.837-1.478 11.977-3.552 18.38-6.386 0 0-8.44-1.646-18.333-5.352a103.367 103.367 0 0 0 13.702-4.969s-8.583-1.671-18.142-5.473c6.18-1.84 10.91-3.48 15.827-5.656 0 0-6.83-1.331-14.91-4.328a63.457 63.457 0 0 0 4.145-1.962c2.087-.852 4.47-1.775 6.907-2.853 0 0-6.303-1.229-13.65-4a53.866 53.866 0 0 0 3.732-1.764c.51-1.393 3.243-2.404 6.06-3.65 0 0-4.827-.94-10.706-3.047a48.616 48.616 0 0 0 2.236-1.09s-1.524-.347-3.762-1.099a65.424 65.424 0 0 0 9.145-3.273s-4.003-.778-8.973-2.52a62.286 62.286 0 0 0 7.616-2.797s-5.169-1.007-10.916-3.297a52.707 52.707 0 0 0 7.83-2.77s-3.707-.72-8.108-2.345a47.848 47.848 0 0 0 7.921-2.723s-3.753-.732-8.056-2.387c2.814-1.193 4.632-1.848 6.512-2.681 0 0-3.689-.719-7.794-2.353a39.316 39.316 0 0 0 6.251-2.173s-4.21-.82-8.427-2.715c.52-.258-.657-.531-2.11-1.132 2.284-.352 4.78-1.037 7.45-2.219 0 0-4.128-.807-7.759-2.694 1.683-.294 3.506-.822 5.444-1.68 0 0-3.523-.69-6.46-2.312a16.903 16.903 0 0 0 4.145-1.248s-4.357-.847-6.454-2.945c0 0-3.51 2.824-6.052 2.945 0 0 1.302.827 3.535 1.233-1.69 1.06-3.962 2.237-5.85 2.327 0 0 1.733 1.104 4.715 1.667-2.096 1.276-4.779 2.6-7.03 2.707 0 0 2.315 1.467 6.273 2.165-.905.498-1.854.88-2.703.928-1.637 1.736-4.327 2.863-6.656 2.973 0 0 2.044 1.299 5.64 2.254-2.363 1.196-4.927 2.164-7.184 2.272 0 0 1.631 1.033 4.552 1.993-1.379 2.102-3.872 2.97-6.095 3.075 0 0 2.018 1.285 5.62 2.391-2.807 1.414-5.844 2.55-8.52 2.677 0 0 2.527 1.612 7.003 2.866-3.316 1.684-6.92 3.05-10.09 3.201 0 0 2.534 1.613 7.06 3.014-2.842 1.256-5.772 2.177-8.417 2.303 0 0 3.084 1.953 8.53 3.5-1.304.483-2.592.805-3.802.872 0 0 .765.569 2.19 1.318-3.367 1.529-6.862 2.669-10.004 2.819 0 0 2.695 1.717 7.548 3.325-2.143.325-.942 1.221 1.271 2.291-4.223 2.032-8.696 3.609-12.678 3.798 0 0 2.326 1.477 6.563 3.07.526.358 1.717 1.115 3.49 1.98-4.648 2.2-9.543 3.885-13.91 4.093 0 0 4.648 2.963 12.88 5.252-4.014 3.39-9.958 5.627-15.196 5.877 0 0 4.477 2.854 12.454 5.235-5.697 2.725-11.72 4.831-17.084 5.086 0 0 5.46 3.479 15.141 6.221-6.043 2.934-12.469 5.223-18.177 5.495 0 0 5.75 3.666 15.94 6.521-7.057 3.504-14.64 6.285-21.342 6.605 0 0 6.311 4.02 17.507 7.219a93.036 93.036 0 0 1-7.358 3.175c-3.29.431-3.048.612-2.58.925-4.183 1.406-8.325 2.344-12.198 2.528 0 0 8.77 5.587 24.083 9.188-3.012 1.199-5.996 2.001-8.783 2.156 0 0 .79.589 2.294 1.482-4.35 1.595-8.69 2.679-12.71 2.871 0 0 5.371 3.42 14.988 6.452-.336.025.923.964 3.28 2.231-4.379 1.74-8.793 2.957-12.842 3.15 0 0 7.747 4.937 21.18 7.792-3.015 1.177-6.047 1.998-8.833 2.13 0 0 9.477 6.044 25.124 6.819l-.122 3.05c-36.763-3.333-78.364-6.158-120.824-7.199l-.188-10.573c7.33-.69 15.583-2.627 24.54-6.591 0 0-4.17-.813-9.664-2.607 6.92-1.539 14.281-3.895 22.01-7.316 0 0-5.588-1.09-13.054-3.487a91.22 91.22 0 0 0 3.83-1.869c3.563-1.998 9.02-3.984 14.651-6.477 0 0-5.255-1.023-12.584-3.259.72-.353 1.441-.717 2.167-1.094 0 0-3.93-.897-9.46-2.855 7.84-1.91 16.114-4.662 24.761-8.489 0 0-4.756-.926-11.66-2.933.172-.088-1.279-.419-3.68-1.116a162.625 162.625 0 0 1-8.499-2.931c6.14-1.678 12.552-3.921 19.21-6.868 0 0-10.797-2.1-23.048-6.868 5.628-1.505 11.521-3.547 17.646-6.258 0 0-8.422-1.639-18.432-5.33 5.838-1.477 11.977-3.551 18.38-6.385 0 0-8.439-1.646-18.332-5.352a103.458 103.458 0 0 0 13.702-4.969s-8.583-1.672-18.14-5.472c6.177-1.842 10.908-3.481 15.825-5.657 0 0-6.83-1.331-14.91-4.328a62.478 62.478 0 0 0 4.146-1.963c2.087-.851 4.47-1.774 6.906-2.852 0 0-6.303-1.229-13.65-4a55.264 55.264 0 0 0 3.732-1.763c.51-1.394 3.243-2.405 6.06-3.652 0 0-4.827-.94-10.705-3.047a49.543 49.543 0 0 0 2.235-1.088s-1.524-.349-3.762-1.1a65.424 65.424 0 0 0 9.145-3.273s-4.003-.778-8.972-2.52a62.109 62.109 0 0 0 7.615-2.797s-5.169-1.007-10.916-3.297a52.82 52.82 0 0 0 7.83-2.77s-3.706-.72-8.108-2.344a48.095 48.095 0 0 0 7.921-2.723s-3.753-.734-8.055-2.388c2.813-1.193 4.631-1.848 6.511-2.681 0 0-3.689-.718-7.794-2.353a39.473 39.473 0 0 0 6.251-2.172s-4.21-.82-8.427-2.715c.521-.26-.657-.531-2.11-1.133 2.284-.352 4.781-1.037 7.45-2.218 0 0-4.127-.807-7.759-2.696a23.4 23.4 0 0 0 5.445-1.679s-3.524-.69-6.46-2.312a16.923 16.923 0 0 0 4.145-1.248s-4.358-.848-6.455-2.945c0 0-3.51 2.824-6.052 2.945 0 0 1.303.827 3.535 1.234-1.69 1.059-3.962 2.236-5.85 2.326 0 0 1.733 1.104 4.716 1.668-2.097 1.275-4.78 2.599-7.03 2.707 0 0 2.314 1.466 6.272 2.164-.905.498-1.853.881-2.703.927-1.637 1.737-4.326 2.864-6.657 2.975 0 0 2.045 1.299 5.641 2.252-2.363 1.197-4.927 2.166-7.184 2.273 0 0 1.631 1.034 4.552 1.993-1.379 2.103-3.872 2.969-6.095 3.076 0 0 2.02 1.283 5.62 2.39-2.807 1.414-5.844 2.55-8.52 2.677 0 0 2.527 1.612 7.004 2.865-3.317 1.685-6.92 3.05-10.09 3.202 0 0 2.532 1.614 7.06 3.014-2.843 1.256-5.772 2.177-8.418 2.303 0 0 3.084 1.953 8.53 3.5-1.304.482-2.59.805-3.802.873 0 0 .765.568 2.19 1.316-3.366 1.53-6.862 2.669-10.004 2.819 0 0 2.695 1.719 7.55 3.326-2.145.326-.944 1.221 1.27 2.291-4.224 2.033-8.697 3.608-12.679 3.798 0 0 2.326 1.477 6.563 3.071.525.356 1.717 1.113 3.491 1.979-4.649 2.201-9.544 3.884-13.912 4.093 0 0 4.65 2.963 12.88 5.251-4.013 3.39-9.958 5.628-15.195 5.878 0 0 4.477 2.854 12.454 5.235-5.697 2.725-11.72 4.83-17.084 5.086 0 0 5.46 3.48 15.141 6.222-6.043 2.933-12.469 5.222-18.176 5.493 0 0 5.75 3.666 15.938 6.522-7.056 3.504-14.639 6.285-21.34 6.604 0 0 6.31 4.021 17.506 7.22a93.036 93.036 0 0 1-7.358 3.175c-3.29.432-3.048.612-2.579.925-4.184 1.407-8.326 2.344-12.199 2.528 0 0 8.77 5.587 24.082 9.188-3.01 1.199-5.994 2.001-8.782 2.156 0 0 .79.59 2.294 1.482-4.35 1.596-8.689 2.68-12.71 2.871 0 0 5.372 3.42 14.988 6.452-.336.025.923.964 3.281 2.232-4.38 1.739-8.794 2.957-12.843 3.149 0 0 7.747 4.937 21.18 7.791-3.015 1.178-6.046 1.999-8.833 2.132 0 0 9.477 6.043 25.124 6.818l-.407 10.129c-52.616-.92-106.048 1.044-152.789 8.305l-.14-7.883c7.33-.691 15.584-2.628 24.54-6.591 0 0-4.17-.814-9.664-2.607 6.921-1.54 14.281-3.894 22.01-7.315 0 0-5.588-1.091-13.054-3.489a91.184 91.184 0 0 0 3.83-1.868c3.563-1.999 9.02-3.984 14.651-6.477 0 0-5.255-1.024-12.583-3.26.718-.352 1.441-.716 2.167-1.093 0 0-3.93-.897-9.462-2.854 7.841-1.91 16.115-4.662 24.762-8.491 0 0-4.756-.924-11.66-2.933.172-.088-1.279-.419-3.68-1.115a161.753 161.753 0 0 1-8.499-2.932c6.14-1.678 12.552-3.92 19.21-6.867 0 0-10.797-2.1-23.048-6.867 5.63-1.505 11.521-3.548 17.646-6.258 0 0-8.422-1.64-18.43-5.331 5.836-1.478 11.976-3.551 18.378-6.385 0 0-8.439-1.646-18.332-5.353a103.51 103.51 0 0 0 13.703-4.968s-8.584-1.672-18.142-5.473c6.18-1.841 10.91-3.48 15.827-5.656 0 0-6.832-1.33-14.91-4.327a63.256 63.256 0 0 0 4.145-1.963c2.087-.853 4.47-1.775 6.906-2.854 0 0-6.303-1.228-13.65-3.999a55.264 55.264 0 0 0 3.732-1.763c.51-1.395 3.243-2.405 6.06-3.652 0 0-4.827-.94-10.705-3.047a49.089 49.089 0 0 0 2.236-1.089s-1.524-.347-3.763-1.099a65.18 65.18 0 0 0 9.145-3.274s-4.003-.778-8.972-2.519a62.44 62.44 0 0 0 7.615-2.797s-5.169-1.008-10.916-3.297a52.861 52.861 0 0 0 7.83-2.769s-3.706-.722-8.108-2.346a47.91 47.91 0 0 0 7.921-2.723s-3.753-.733-8.055-2.387c2.813-1.193 4.632-1.849 6.512-2.681 0 0-3.69-.719-7.795-2.353a39.382 39.382 0 0 0 6.251-2.173s-4.21-.82-8.427-2.714c.521-.259-.656-.532-2.11-1.133 2.285-.353 4.781-1.037 7.451-2.219 0 0-4.128-.807-7.76-2.694a23.392 23.392 0 0 0 5.445-1.68s-3.524-.689-6.46-2.312a16.885 16.885 0 0 0 4.145-1.249s-4.358-.846-6.455-2.944c0 0-3.51 2.823-6.052 2.944 0 0 1.303.829 3.536 1.234-1.69 1.06-3.963 2.237-5.85 2.327 0 0 1.732 1.104 4.715 1.667-2.097 1.275-4.78 2.6-7.03 2.707 0 0 2.315 1.467 6.272 2.164-.905.498-1.853.881-2.703.929-1.636 1.735-4.326 2.862-6.656 2.973 0 0 2.045 1.299 5.64 2.253-2.363 1.198-4.926 2.165-7.183 2.273 0 0 1.631 1.033 4.551 1.993-1.378 2.103-3.872 2.97-6.095 3.075 0 0 2.02 1.284 5.62 2.391-2.807 1.413-5.843 2.55-8.52 2.678 0 0 2.527 1.61 7.004 2.865-3.317 1.684-6.92 3.05-10.09 3.201 0 0 2.533 1.613 7.06 3.014-2.842 1.255-5.772 2.177-8.418 2.302 0 0 3.084 1.953 8.53 3.5-1.304.484-2.59.806-3.802.873 0 0 .765.569 2.19 1.317-3.366 1.529-6.86 2.67-10.004 2.819 0 0 2.695 1.718 7.55 3.325-2.145.327-.944 1.221 1.27 2.292-4.224 2.033-8.697 3.608-12.678 3.797 0 0 2.325 1.478 6.562 3.072.526.356 1.717 1.113 3.491 1.979-4.649 2.2-9.544 3.885-13.912 4.093 0 0 4.65 2.964 12.881 5.252-4.014 3.389-9.958 5.628-15.196 5.877 0 0 4.477 2.854 12.454 5.234-5.696 2.727-11.72 4.831-17.084 5.087 0 0 5.46 3.479 15.141 6.222-6.043 2.932-12.469 5.221-18.176 5.494 0 0 5.75 3.666 15.938 6.521-7.056 3.504-14.638 6.285-21.34 6.604 0 0 6.31 4.021 17.506 7.22a92.876 92.876 0 0 1-7.358 3.175c-3.29.431-3.047.613-2.579.925-4.184 1.406-8.325 2.344-12.199 2.527 0 0 8.77 5.588 24.083 9.188-3.012 1.2-5.995 2.002-8.783 2.157 0 0 .79.589 2.294 1.483-4.35 1.594-8.689 2.678-12.71 2.87 0 0 5.372 3.42 14.99 6.451-.337.026.921.965 3.28 2.232-4.38 1.741-8.795 2.957-12.843 3.151 0 0 7.746 4.935 21.18 7.79-3.016 1.177-6.047 1.999-8.834 2.132 0 0 9.477 6.043 25.124 6.818l-.376 9.361c-29.99 5.288-56.866 12.93-78.49 23.615a9827.3 9827.3 0 0 1-39.167 19.27 778.528 778.528 0 0 1-1.54-18.519c51.297 10.818 43.55-22.528 43.55-22.528 9.967-9.719.747-17.941.747-17.941 4.236-10.218-1.994-14.703-1.994-14.703 1.246-9.469-6.479-12.21-6.479-12.21.5-13.208-9.22-14.952-9.22-14.952-3.24-16.696-20.185-12.709-20.185-12.709-14.702-10.965-25.916 1.495-25.916 1.495-16.945-1.245-17.443 15.699-17.443 15.699-12.709 3.239-7.975 15.45-7.975 15.45-16.197 2.741-10.466 19.438-10.466 19.438-14.95 15.2 2.741 23.921 2.741 23.921s-11.213 10.965 10.965 18.441c14.798 4.988 26.265 3.098 32.26 1.288-.27 6.344-1.958 16.598-2.624 24.435-55.104 26.676-99.48 46.44-141.506 58.799l-.134-7.504c6.176-.582 13.131-2.214 20.678-5.554 0 0-3.514-.686-8.143-2.196 5.831-1.297 12.033-3.282 18.546-6.165 0 0-4.709-.919-11-2.938a76.75 76.75 0 0 0 3.226-1.574c3.004-1.685 7.601-3.358 12.347-5.458 0 0-4.429-.863-10.603-2.747 1.825-.921-1.487-1.677-6.147-3.327 6.607-1.609 13.58-3.927 20.865-7.153 0 0-4.008-.779-9.825-2.472.145-.074-1.077-.353-3.1-.939a136.688 136.688 0 0 1-7.163-2.471c5.174-1.414 10.578-3.303 16.187-5.786 0 0-9.097-1.769-19.42-5.787 4.743-1.268 9.708-2.989 14.868-5.272 0 0-7.096-1.381-15.53-4.493 4.92-1.244 10.092-2.992 15.487-5.38 0 0-7.11-1.385-15.447-4.508a87.101 87.101 0 0 0 11.545-4.188s-7.23-1.408-15.285-4.611c5.206-1.551 9.192-2.933 13.335-4.766 0 0-5.756-1.121-12.563-3.646a52.226 52.226 0 0 0 3.493-1.655c1.758-.717 3.766-1.495 5.82-2.404 0 0-5.312-1.035-11.503-3.369 1.03-.44 2.078-.933 3.145-1.486.43-1.175 2.733-2.027 5.106-3.076 0 0-4.067-.793-9.02-2.568 1.884-.917.6-1.211-1.286-1.845a54.86 54.86 0 0 0 7.705-2.757s-3.372-.656-7.56-2.123a52.422 52.422 0 0 0 6.417-2.357s-4.356-.849-9.198-2.778a44.541 44.541 0 0 0 6.597-2.334s-3.122-.608-6.83-1.976a40.3 40.3 0 0 0 6.673-2.294s-3.163-.618-6.787-2.011c2.37-1.006 3.902-1.558 5.487-2.259 0 0-3.109-.607-6.568-1.984a33.052 33.052 0 0 0 5.267-1.83s-3.548-.691-7.1-2.287c.146-1.252 2.25-1.828 4.5-2.824 0 0-3.479-.68-6.539-2.271a19.74 19.74 0 0 0 4.588-1.415s-2.969-.582-5.444-1.948a14.272 14.272 0 0 0 3.493-1.052s-3.672-.713-5.439-2.481c0 0-2.957 2.379-5.099 2.481 0 0 1.097.698 2.98 1.039-1.425.893-3.34 1.885-4.93 1.961 0 0 1.46.93 3.973 1.405-1.767 1.075-4.028 2.191-5.924 2.281 0 0 1.951 1.236 5.285 1.824-2.277.781-2.063.941-1.663 1.156-1.993 1.088-4.26 2.038-6.223 2.131 0 0 1.723 1.094 4.753 1.899-1.99 1.009-4.152 1.824-6.054 1.915 0 0 1.375.87 3.836 1.678-1.162 1.772-3.262 2.502-5.136 2.592 0 0 1.701 1.082 4.736 2.014-2.366 1.191-4.924 2.148-7.179 2.256 0 0 2.13 1.357 5.901 2.414-2.795 1.42-5.83 2.57-8.502 2.698 0 0 2.135 1.359 5.95 2.54-2.396 1.058-4.864 1.834-7.093 1.94 0 0 2.598 1.646 7.187 2.949-1.099.407-2.184.679-3.204.736 0 0 .645.479 1.844 1.11-2.835 1.288-5.78 2.248-8.428 2.375 0 0 2.271 1.447 6.36 2.801-1.806.275-.794 1.029 1.071 1.931-3.558 1.713-7.328 3.04-10.682 3.199 0 0 1.96 1.245 5.53 2.588.442.301 1.446.939 2.941 1.668-3.917 1.855-8.042 3.273-11.722 3.449 0 0 3.917 2.497 10.852 4.425-2.04 2.179-5.514 3.598-8.834 4.363a90.867 90.867 0 0 1-6.936-2.255 53.188 53.188 0 0 0 3.493-1.653c1.758-.718 3.765-1.495 5.82-2.404 0 0-5.312-1.035-11.503-3.37 1.03-.44 2.078-.932 3.145-1.486.43-1.174 2.733-2.026 5.106-3.077 0 0-4.067-.792-9.02-2.566 1.884-.918.6-1.212-1.287-1.845a54.962 54.962 0 0 0 7.706-2.758s-3.372-.656-7.56-2.123a52.422 52.422 0 0 0 6.417-2.357s-4.356-.849-9.198-2.778a44.467 44.467 0 0 0 6.597-2.334s-3.123-.607-6.832-1.976a40.37 40.37 0 0 0 6.675-2.294s-3.163-.617-6.788-2.012c2.371-1.005 3.903-1.557 5.487-2.259 0 0-3.108-.605-6.568-1.982a33.27 33.27 0 0 0 5.268-1.831s-3.548-.69-7.1-2.287c.146-1.251 2.25-1.828 4.5-2.824 0 0-3.479-.68-6.539-2.27a19.739 19.739 0 0 0 4.587-1.416s-2.969-.581-5.443-1.947a14.29 14.29 0 0 0 3.493-1.053s-3.672-.714-5.439-2.481c0 0-2.957 2.38-5.099 2.481 0 0 1.097.697 2.98 1.039-1.425.894-3.34 1.885-4.93 1.961 0 0 1.46.93 3.973 1.404-1.767 1.076-4.028 2.192-5.924 2.282 0 0 1.95 1.236 5.285 1.824-2.277.781-2.064.941-1.663 1.156-1.993 1.088-4.26 2.038-6.223 2.131 0 0 1.723 1.095 4.753 1.898-1.992 1.009-4.152 1.825-6.054 1.915 0 0 1.375.871 3.836 1.68-1.162 1.772-3.262 2.502-5.136 2.591 0 0 1.701 1.082 4.735 2.015-2.365 1.19-4.923 2.148-7.179 2.255 0 0 2.13 1.358 5.902 2.415-2.795 1.419-5.83 2.57-8.502 2.697 0 0 2.134 1.36 5.95 2.54-2.396 1.058-4.865 1.834-7.093 1.94 0 0 2.598 1.646 7.187 2.949-1.099.408-2.184.679-3.204.736 0 0 .644.478 1.844 1.109-2.835 1.289-5.78 2.249-8.428 2.375 0 0 2.271 1.447 6.36 2.803-1.806.274-.794 1.028 1.071 1.931-3.558 1.712-7.328 3.04-10.682 3.199 0 0 1.96 1.245 5.53 2.588.442.3 1.446.938 2.94 1.668-3.705 1.754-7.592 3.104-11.116 3.395a91.84 91.84 0 0 1-6.463-2.118 53.73 53.73 0 0 0 3.493-1.654c1.76-.718 3.765-1.495 5.82-2.404 0 0-5.31-1.035-11.503-3.371a45.284 45.284 0 0 0 3.145-1.485c.43-1.175 2.733-2.026 5.106-3.076 0 0-4.067-.792-9.02-2.568 1.884-.918.6-1.211-1.286-1.843a55.125 55.125 0 0 0 7.705-2.758s-3.372-.656-7.56-2.124a52.588 52.588 0 0 0 6.417-2.357s-4.355-.849-9.198-2.778a44.532 44.532 0 0 0 6.597-2.333s-3.122-.608-6.83-1.976a40.493 40.493 0 0 0 6.673-2.295s-3.162-.618-6.787-2.011c2.37-1.005 3.902-1.558 5.486-2.259 0 0-3.108-.606-6.567-1.982a33.361 33.361 0 0 0 5.267-1.831s-3.548-.692-7.1-2.289c.146-1.25 2.25-1.828 4.5-2.823 0 0-3.479-.679-6.539-2.27a19.676 19.676 0 0 0 4.587-1.416s-2.968-.58-5.443-1.948a14.229 14.229 0 0 0 3.493-1.052s-3.67-.713-5.439-2.481c0 0-2.957 2.379-5.099 2.481 0 0 1.097.698 2.98 1.039-1.425.893-3.34 1.886-4.93 1.961 0 0 1.46.93 3.973 1.405-1.767 1.075-4.028 2.19-5.924 2.281 0 0 1.951 1.236 5.285 1.823-2.277.783-2.064.942-1.663 1.158-1.993 1.088-4.259 2.037-6.223 2.131 0 0 1.723 1.094 4.753 1.898-1.99 1.009-4.15 1.824-6.053 1.915 0 0 1.374.87 3.835 1.679-1.16 1.771-3.262 2.502-5.136 2.591 0 0 1.701 1.083 4.736 2.014-2.366 1.192-4.924 2.15-7.179 2.257 0 0 2.13 1.357 5.901 2.414-2.794 1.419-5.83 2.57-8.502 2.697 0 0 2.134 1.36 5.95 2.539-2.396 1.059-4.864 1.835-7.093 1.942 0 0 2.598 1.645 7.187 2.949-1.099.406-2.184.678-3.203.734 0 0 .644.48 1.844 1.11-2.836 1.289-5.78 2.25-8.429 2.376 0 0 2.271 1.447 6.36 2.802-1.806.274-.794 1.028 1.071 1.93-3.558 1.712-7.327 3.04-10.682 3.2 0 0 1.96 1.245 5.53 2.588.442.3 1.447.938 2.941 1.667-3.917 1.855-8.042 3.274-11.722 3.449 0 0 3.917 2.498 10.853 4.425-3.382 2.857-8.39 4.743-12.804 4.952 0 0 3.772 2.406 10.494 4.412-4.8 2.296-9.875 4.07-14.395 4.285 0 0 4.6 2.932 12.758 5.242-5.092 2.472-10.507 4.4-15.316 4.629 0 0 4.845 3.09 13.43 5.496-5.946 2.952-12.335 5.295-17.98 5.564 0 0 5.316 3.388 14.75 6.084a78.58 78.58 0 0 1-6.2 2.675c-5.699 1.964-9.189 2.754-12.453 2.909 0 0 7.39 4.708 20.293 7.743-2.538 1.009-5.052 1.685-7.4 1.816 0 0 .665.496 1.932 1.249-3.666 1.344-7.322 2.257-10.709 2.419 0 0 4.526 2.882 12.63 5.435-.284.022.776.813 2.763 1.881-3.69 1.467-7.409 2.493-10.82 2.655 0 0 6.526 4.159 17.845 6.564-2.54.992-5.095 1.685-7.442 1.796 0 0 7.985 5.093 21.17 5.745l-.436 10.817a392.538 392.538 0 0 1-13.26-.44c-36.95-1.855-81.878-13.212-127.144-25.701l-.196-10.95c6.177-.581 13.131-2.214 20.678-5.554 0 0-3.514-.686-8.143-2.196 5.831-1.297 12.033-3.282 18.546-6.164 0 0-4.709-.919-11-2.939a76.786 76.786 0 0 0 3.226-1.575c3.004-1.684 7.601-3.356 12.347-5.458 0 0-4.429-.861-10.603-2.746 1.825-.921-1.487-1.677-6.147-3.326 6.607-1.61 13.58-3.929 20.865-7.154 0 0-4.008-.779-9.825-2.471.145-.075-1.077-.354-3.1-.94a138.162 138.162 0 0 1-7.162-2.47c5.173-1.415 10.577-3.304 16.186-5.787 0 0-9.097-1.77-19.42-5.787 4.743-1.267 9.708-2.989 14.868-5.272 0 0-7.096-1.382-15.53-4.492 4.92-1.244 10.092-2.993 15.487-5.38 0 0-7.11-1.387-15.447-4.509a87.306 87.306 0 0 0 11.546-4.188s-7.232-1.408-15.286-4.611c5.206-1.551 9.192-2.932 13.335-4.766 0 0-5.756-1.122-12.563-3.646a53.73 53.73 0 0 0 3.493-1.654c1.758-.718 3.766-1.495 5.82-2.405 0 0-5.31-1.035-11.503-3.369 1.03-.44 2.078-.933 3.145-1.486.43-1.175 2.733-2.026 5.106-3.076 0 0-4.067-.793-9.02-2.569 1.884-.917.6-1.21-1.286-1.843a54.997 54.997 0 0 0 7.705-2.758s-3.372-.656-7.56-2.123a52.269 52.269 0 0 0 6.417-2.358s-4.355-.847-9.198-2.777a44.501 44.501 0 0 0 6.597-2.334s-3.122-.607-6.83-1.976a40.476 40.476 0 0 0 6.673-2.293s-3.162-.619-6.787-2.012c2.37-1.006 3.903-1.559 5.487-2.26 0 0-3.109-.605-6.568-1.982a33.252 33.252 0 0 0 5.267-1.83s-3.548-.692-7.1-2.289c.146-1.25 2.25-1.828 4.5-2.823 0 0-3.479-.679-6.539-2.27a19.773 19.773 0 0 0 4.588-1.415s-2.969-.582-5.444-1.949a14.267 14.267 0 0 0 3.493-1.051s-3.672-.715-5.439-2.483c0 0-2.957 2.38-5.099 2.483 0 0 1.097.697 2.98 1.038-1.425.893-3.34 1.886-4.93 1.962 0 0 1.46.929 3.973 1.404-1.767 1.074-4.028 2.19-5.924 2.281 0 0 1.951 1.236 5.285 1.823-2.277.783-2.063.942-1.663 1.158-1.993 1.088-4.26 2.037-6.223 2.131 0 0 1.723 1.093 4.753 1.898-1.99 1.008-4.152 1.824-6.053 1.914 0 0 1.374.871 3.835 1.68-1.162 1.771-3.262 2.502-5.136 2.592 0 0 1.701 1.082 4.736 2.013-2.366 1.192-4.924 2.149-7.179 2.256 0 0 2.13 1.358 5.901 2.414-2.795 1.42-5.83 2.57-8.502 2.697 0 0 2.135 1.361 5.95 2.54-2.396 1.059-4.864 1.835-7.093 1.941 0 0 2.598 1.646 7.187 2.949-1.099.407-2.184.679-3.203.735 0 0 .644.48 1.844 1.11-2.836 1.289-5.78 2.249-8.429 2.376 0 0 2.271 1.447 6.36 2.802-1.806.274-.794 1.028 1.071 1.93-3.558 1.713-7.327 3.04-10.682 3.199 0 0 1.96 1.246 5.53 2.588.442.301 1.446.939 2.941 1.668-3.917 1.854-8.042 3.274-11.722 3.449 0 0 3.917 2.497 10.853 4.425-3.382 2.857-8.39 4.743-12.804 4.952 0 0 3.772 2.405 10.494 4.411-4.8 2.297-9.875 4.07-14.395 4.286 0 0 4.6 2.932 12.758 5.243-5.092 2.471-10.507 4.399-15.316 4.629 0 0 4.845 3.089 13.43 5.494-5.946 2.953-12.335 5.297-17.98 5.565 0 0 5.316 3.388 14.75 6.083a78.22 78.22 0 0 1-6.2 2.676c-5.699 1.964-9.189 2.754-12.453 2.909 0 0 7.39 4.708 20.292 7.742-2.537 1.01-5.05 1.685-7.4 1.817 0 0 .666.496 1.934 1.249-3.666 1.344-7.323 2.258-10.71 2.418 0 0 4.526 2.883 12.63 5.436-.284.022.776.813 2.763 1.881-3.69 1.466-7.409 2.492-10.82 2.655 0 0 6.526 4.159 17.845 6.564-2.54.992-5.095 1.685-7.443 1.796 0 0 7.986 5.092 21.17 5.745l-.335 8.334c-48.195-13.412-96.208-27.487-134.844-32.157l-.136-7.663c7.33-.691 15.584-2.628 24.54-6.592 0 0-4.17-.813-9.664-2.606 6.921-1.54 14.281-3.895 22.01-7.317 0 0-5.588-1.09-13.054-3.487a91.154 91.154 0 0 0 3.828-1.868c3.565-1.999 9.021-3.985 14.653-6.478 0 0-5.256-1.022-12.583-3.26a104.82 104.82 0 0 0 2.167-1.092s-3.93-.897-9.462-2.855c7.841-1.911 16.115-4.662 24.762-8.489 0 0-4.756-.926-11.66-2.935.172-.088-1.279-.419-3.68-1.114a162.677 162.677 0 0 1-8.499-2.932c6.14-1.677 12.552-3.921 19.21-6.867 0 0-10.797-2.101-23.048-6.869 5.63-1.504 11.521-3.547 17.645-6.258 0 0-8.42-1.638-18.43-5.33 5.837-1.476 11.977-3.551 18.38-6.385 0 0-8.44-1.645-18.333-5.351a103.662 103.662 0 0 0 13.703-4.969s-8.584-1.672-18.142-5.474c6.18-1.84 10.91-3.479 15.826-5.656 0 0-6.83-1.331-14.91-4.327a63.5 63.5 0 0 0 4.146-1.963c2.087-.851 4.47-1.774 6.906-2.853 0 0-6.303-1.229-13.65-4a54.783 54.783 0 0 0 3.732-1.763c.51-1.394 3.243-2.405 6.06-3.651 0 0-4.827-.94-10.705-3.047a49.605 49.605 0 0 0 2.236-1.089s-1.525-.349-3.763-1.1a65.287 65.287 0 0 0 9.145-3.272s-4.003-.78-8.973-2.521a62.06 62.06 0 0 0 7.616-2.797s-5.169-1.006-10.916-3.296a52.985 52.985 0 0 0 7.83-2.77s-3.706-.722-8.108-2.346a48.025 48.025 0 0 0 7.921-2.722s-3.753-.734-8.055-2.388c2.813-1.192 4.632-1.848 6.512-2.681 0 0-3.69-.718-7.795-2.352a39.482 39.482 0 0 0 6.251-2.173s-4.21-.82-8.427-2.715c.521-.259-.656-.531-2.11-1.133 2.285-.352 4.781-1.037 7.45-2.219 0 0-4.127-.806-7.759-2.694a23.4 23.4 0 0 0 5.444-1.68s-3.523-.689-6.46-2.311a16.909 16.909 0 0 0 4.145-1.249s-4.357-.847-6.454-2.945c0 0-3.51 2.824-6.052 2.945 0 0 1.302.828 3.536 1.233-1.69 1.06-3.963 2.238-5.85 2.327 0 0 1.732 1.104 4.714 1.667-2.096 1.277-4.779 2.601-7.029 2.707 0 0 2.315 1.467 6.272 2.165-.905.499-1.853.88-2.703.928-1.636 1.737-4.326 2.864-6.656 2.974 0 0 2.045 1.299 5.64 2.253-2.363 1.197-4.926 2.165-7.184 2.272 0 0 1.632 1.033 4.552 1.993-1.378 2.103-3.872 2.969-6.095 3.076 0 0 2.02 1.284 5.62 2.39-2.807 1.413-5.843 2.55-8.52 2.678 0 0 2.527 1.61 7.004 2.865-3.317 1.685-6.92 3.05-10.09 3.201 0 0 2.533 1.614 7.06 3.015-2.843 1.256-5.773 2.176-8.418 2.303 0 0 3.084 1.953 8.53 3.5-1.304.482-2.592.804-3.8.872 0 0 .763.568 2.187 1.317-3.365 1.53-6.86 2.669-10.003 2.819 0 0 2.695 1.717 7.55 3.326-2.145.325-.944 1.22 1.27 2.291-4.224 2.032-8.697 3.607-12.678 3.797 0 0 2.325 1.477 6.562 3.071.526.356 1.717 1.114 3.491 1.979-4.649 2.201-9.544 3.885-13.912 4.093 0 0 4.65 2.964 12.88 5.252-4.013 3.39-9.957 5.628-15.195 5.878 0 0 4.477 2.854 12.454 5.234-5.697 2.725-11.72 4.831-17.084 5.086 0 0 5.46 3.48 15.141 6.222-6.043 2.933-12.469 5.222-18.176 5.493 0 0 5.75 3.667 15.938 6.522-7.056 3.504-14.639 6.286-21.34 6.605 0 0 6.31 4.021 17.506 7.22a93.783 93.783 0 0 1-7.358 3.175c-3.29.43-3.047.611-2.579.925-4.184 1.406-8.325 2.343-12.199 2.528 0 0 8.77 5.587 24.083 9.187-3.012 1.2-5.996 2-8.783 2.157 0 0 .79.588 2.294 1.482-4.35 1.595-8.69 2.679-12.71 2.87 0 0 5.372 3.421 14.988 6.452-.336.026.923.964 3.28 2.232-4.379 1.74-8.793 2.957-12.84 3.149 0 0 7.745 4.938 21.178 7.791-3.015 1.178-6.047 1.999-8.833 2.132 0 0 9.477 6.043 25.124 6.818l-.258 6.419c-18.767-1.476-34.9-.295-47.166 4.903-18.489 7.835-37.775 9.672-55.778 8.375l-.21-11.833c8.183-.772 17.4-2.934 27.398-7.36 0 0-4.656-.908-10.789-2.91 7.726-1.719 15.944-4.349 24.574-8.169 0 0-6.239-1.217-14.575-3.893a103.15 103.15 0 0 0 4.275-2.086c3.98-2.232 10.071-4.449 16.36-7.232 0 0-5.869-1.142-14.05-3.64.802-.393 1.608-.799 2.42-1.22 0 0-4.39-1.002-10.565-3.188 8.754-2.132 17.993-5.205 27.647-9.478 0 0-5.31-1.032-13.019-3.276.193-.098-1.427-.467-4.108-1.245a180.52 180.52 0 0 1-9.49-3.273c6.855-1.873 14.015-4.377 21.448-7.667 0 0-12.054-2.345-25.733-7.669 6.285-1.679 12.864-3.96 19.702-6.986 0 0-9.404-1.83-20.579-5.952 6.518-1.649 13.373-3.964 20.522-7.128 0 0-9.423-1.838-20.469-5.976 4.904-1.388 10.011-3.207 15.3-5.548 0 0-9.584-1.867-20.256-6.11 6.9-2.056 12.181-3.886 17.67-6.316 0 0-7.627-1.485-16.647-4.832a70.165 70.165 0 0 0 4.63-2.191c2.33-.951 4.988-1.981 7.71-3.186 0 0-7.037-1.371-15.24-4.464a61.996 61.996 0 0 0 4.166-1.969c.57-1.557 3.621-2.686 6.766-4.077 0 0-5.389-1.05-11.953-3.402a55.268 55.268 0 0 0 2.497-1.216s-1.702-.389-4.2-1.228a72.977 72.977 0 0 0 10.21-3.654s-4.469-.87-10.018-2.814a69.388 69.388 0 0 0 8.503-3.123s-5.772-1.124-12.188-3.681a59.007 59.007 0 0 0 8.741-3.092s-4.137-.805-9.05-2.619a53.464 53.464 0 0 0 8.842-3.04s-4.19-.818-8.994-2.665c3.142-1.332 5.172-2.064 7.271-2.993 0 0-4.119-.802-8.703-2.627a44.04 44.04 0 0 0 6.98-2.425s-4.702-.917-9.409-3.032c.581-.289-.733-.593-2.358-1.264 2.553-.394 5.34-1.159 8.32-2.478 0 0-4.609-.9-8.663-3.008 1.88-.33 3.915-.918 6.08-1.876 0 0-3.935-.77-7.215-2.581a18.85 18.85 0 0 0 4.63-1.394s-4.866-.946-7.208-3.287c0 0-3.919 3.152-6.757 3.287 0 0 1.455.925 3.948 1.377-1.887 1.183-4.425 2.498-6.532 2.598 0 0 1.935 1.233 5.265 1.862-2.34 1.424-5.337 2.903-7.849 3.022 0 0 2.584 1.638 7.002 2.417-1.01.556-2.068.982-3.017 1.036-1.827 1.938-4.83 3.196-7.432 3.321 0 0 2.283 1.449 6.298 2.515-2.639 1.336-5.5 2.417-8.02 2.537 0 0 1.82 1.154 5.081 2.225-.635.07-.026.521 1.1 1.091-2.639 1.257-5.423 2.224-7.906 2.342 0 0 2.254 1.434 6.276 2.669-3.135 1.579-6.525 2.848-9.513 2.99 0 0 2.821 1.798 7.82 3.199-3.704 1.881-7.727 3.406-11.267 3.574 0 0 2.83 1.802 7.884 3.365-3.174 1.403-6.445 2.432-9.398 2.572 0 0 3.443 2.18 9.523 3.908-1.456.539-2.893.899-4.244.974 0 0 .853.634 2.443 1.47-3.757 1.707-7.66 2.981-11.169 3.148 0 0 3.01 1.918 8.43 3.713-2.395.364-1.054 1.363 1.417 2.558-4.715 2.269-9.709 4.028-14.154 4.239 0 0 2.596 1.651 7.327 3.43.586.398 1.917 1.243 3.897 2.209-5.19 2.457-10.655 4.338-15.532 4.57 0 0 5.19 3.309 14.381 5.864-4.48 3.785-11.118 6.284-16.966 6.562 0 0 4.998 3.187 13.905 5.845-6.36 3.043-13.085 5.393-19.074 5.679 0 0 6.095 3.884 16.905 6.946-6.748 3.274-13.922 5.831-20.295 6.134 0 0 6.42 4.093 17.796 7.281-7.879 3.912-16.345 7.017-23.827 7.374 0 0 7.046 4.489 19.546 8.061-2.703 1.3-5.458 2.5-8.215 3.545a26.636 26.636 0 0 1-3.674.481c-3.877 2.122-8.5 3.168-12.826 3.374 0 0 9.791 6.238 26.888 10.259-3.362 1.338-6.693 2.233-9.805 2.407 0 0 .881.657 2.561 1.655-4.857 1.78-9.702 2.99-14.19 3.205 0 0 5.997 3.819 16.733 7.203-.375.029 1.031 1.077 3.663 2.493-4.89 1.941-9.817 3.3-14.338 3.515 0 0 8.65 5.512 23.647 8.699-3.367 1.315-6.75 2.232-9.862 2.38 0 0 10.581 6.747 28.051 7.613l-.414 10.324C28.468 445.855-1 428.516-1 428.516v123.746h1280l2.026-161.398s-50.377-8.215-120.863-14.928l-.075-4.201z"/>
    </g>
</svg>
