<svg xmlns="http://www.w3.org/2000/svg" width="1280" height="448" viewBox="0 0 1280 448">
    <g fill="none" fill-rule="evenodd">
        <path fill="#133843" d="M1218.946 198.102c6.842-.646 14.548-2.453 22.91-6.154 0 0-3.894-.76-9.023-2.433 6.46-1.438 13.332-3.636 20.548-6.83 0 0-5.217-1.018-12.187-3.256a87.148 87.148 0 0 0 3.575-1.744c3.327-1.866 8.42-3.72 13.678-6.047 0 0-4.906-.956-11.747-3.043.67-.33 1.346-.67 2.022-1.02 0 0-3.668-.837-8.832-2.665 7.32-1.784 15.044-4.353 23.116-7.926 0 0-4.44-.863-10.885-2.739.161-.082-1.193-.392-3.435-1.04a152.584 152.584 0 0 1-7.935-2.738c5.732-1.566 11.72-3.66 17.933-6.41 0 0-10.078-1.961-21.515-6.411 5.254-1.406 10.756-3.313 16.472-5.843 0 0-7.862-1.53-17.206-4.976 5.45-1.38 11.181-3.316 17.159-5.961 0 0-7.879-1.536-17.114-4.995a96.724 96.724 0 0 0 12.791-4.64s-8.013-1.56-16.936-5.11c5.768-1.718 10.185-3.248 14.775-5.28 0 0-6.377-1.242-13.918-4.039a59.434 59.434 0 0 0 3.87-1.833c1.948-.795 4.171-1.657 6.446-2.663 0 0-5.884-1.147-12.743-3.735a51.06 51.06 0 0 0 3.485-1.645c.475-1.302 3.027-2.246 5.657-3.409 0 0-4.506-.879-9.994-2.844a46.67 46.67 0 0 0 2.087-1.017s-1.423-.325-3.512-1.027a60.97 60.97 0 0 0 8.537-3.055s-3.737-.726-8.376-2.352a58.112 58.112 0 0 0 7.11-2.612s-4.826-.94-10.19-3.077c2.33-.62 4.77-1.464 7.308-2.586 0 0-3.46-.674-7.569-2.19a44.69 44.69 0 0 0 7.394-2.541s-3.503-.685-7.52-2.23c2.627-1.113 4.325-1.725 6.08-2.501 0 0-3.445-.672-7.277-2.197a36.899 36.899 0 0 0 5.836-2.028s-3.931-.766-7.867-2.535c.486-.242-.613-.496-1.971-1.057 2.134-.33 4.464-.968 6.956-2.072 0 0-3.853-.754-7.244-2.515a21.836 21.836 0 0 0 5.084-1.568s-3.29-.645-6.032-2.159a15.797 15.797 0 0 0 3.87-1.165s-4.067-.791-6.026-2.749c0 0-3.277 2.636-5.65 2.75 0 0 1.216.772 3.3 1.15-1.576.99-3.698 2.089-5.46 2.173 0 0 1.618 1.03 4.401 1.556-1.956 1.19-4.462 2.427-6.562 2.527 0 0 2.161 1.37 5.855 2.021-.844.465-1.73.821-2.523.866-1.527 1.621-4.039 2.673-6.214 2.777 0 0 1.91 1.212 5.266 2.103-2.206 1.116-4.6 2.02-6.707 2.122 0 0 1.523.964 4.25 1.86-1.287 1.963-3.614 2.772-5.69 2.871 0 0 1.884 1.198 5.246 2.232-2.62 1.319-5.455 2.38-7.954 2.5 0 0 2.36 1.502 6.538 2.674-3.096 1.572-6.46 2.847-9.42 2.988 0 0 2.366 1.506 6.592 2.814-2.654 1.173-5.389 2.032-7.858 2.15 0 0 2.878 1.823 7.964 3.267-1.22.452-2.42.752-3.55.815 0 0 .713.53 2.044 1.23-3.142 1.427-6.406 2.491-9.339 2.631 0 0 2.516 1.604 7.047 3.105-2.001.304-.88 1.138 1.185 2.139-3.941 1.898-8.118 3.368-11.834 3.545 0 0 2.17 1.379 6.126 2.866.491.333 1.603 1.04 3.259 1.848-4.34 2.054-8.91 3.627-12.987 3.821 0 0 4.34 2.768 12.024 4.903-3.746 3.165-9.296 5.255-14.186 5.487 0 0 4.18 2.664 11.627 4.887-5.318 2.545-10.942 4.51-15.949 4.748 0 0 5.097 3.25 14.135 5.809-5.642 2.736-11.64 4.875-16.97 5.128 0 0 5.37 3.422 14.881 6.088-6.588 3.27-13.666 5.868-19.922 6.165 0 0 5.89 3.754 16.343 6.74a87.258 87.258 0 0 1-6.87 2.964c-6.314 2.177-10.18 3.052-13.796 3.224 0 0 8.188 5.216 22.482 8.576-2.81 1.12-5.596 1.869-8.198 2.015 0 0 .737.55 2.141 1.383-4.061 1.489-8.111 2.502-11.865 2.68 0 0 5.015 3.193 13.992 6.023-.314.024.862.9 3.063 2.084-4.089 1.624-8.21 2.76-11.99 2.94 0 0 7.232 4.608 19.773 7.273-2.815 1.099-5.645 1.866-8.246 1.99 0 0 8.847 5.641 23.455 6.365l-.3 7.45c-46.248 8.21-107.983 14.905-176.223 10.915 5.293-2.475 13.018-5.045 21.09-8.618 0 0-4.44-.864-10.885-2.739.16-.081-1.195-.39-3.437-1.04a150.365 150.365 0 0 1-7.933-2.738c5.731-1.566 11.718-3.66 17.931-6.41 0 0-10.078-1.961-21.515-6.411 5.255-1.405 10.756-3.313 16.474-5.843 0 0-7.863-1.53-17.206-4.975 5.45-1.38 11.18-3.316 17.158-5.962 0 0-7.879-1.536-17.114-4.995a96.724 96.724 0 0 0 12.792-4.64s-8.013-1.56-16.936-5.109c5.768-1.718 10.184-3.25 14.774-5.28 0 0-6.377-1.243-13.919-4.04a58.909 58.909 0 0 0 3.87-1.833c1.948-.794 4.173-1.656 6.447-2.663 0 0-5.883-1.147-12.743-3.734a51.34 51.34 0 0 0 3.485-1.646c.476-1.301 3.027-2.245 5.656-3.409 0 0-4.506-.877-9.994-2.844a47.21 47.21 0 0 0 2.088-1.016s-1.423-.326-3.512-1.027c2.73-.75 5.579-1.746 8.537-3.055 0 0-3.736-.727-8.376-2.353a58.113 58.113 0 0 0 7.11-2.611s-4.827-.941-10.191-3.078a49.31 49.31 0 0 0 7.309-2.586s-3.46-.673-7.569-2.189c2.345-.58 4.813-1.4 7.394-2.542 0 0-3.503-.684-7.52-2.228 2.628-1.114 4.324-1.727 6.08-2.503 0 0-3.445-.671-7.277-2.196a36.873 36.873 0 0 0 5.836-2.029s-3.93-.766-7.867-2.534c.486-.242-.613-.496-1.97-1.057 2.132-.33 4.463-.97 6.955-2.072 0 0-3.853-.754-7.243-2.516a21.844 21.844 0 0 0 5.082-1.568s-3.289-.645-6.032-2.159a15.797 15.797 0 0 0 3.87-1.165s-4.067-.791-6.025-2.749c0 0-3.277 2.636-5.649 2.75 0 0 1.215.771 3.3 1.151-1.578.988-3.699 2.089-5.461 2.172 0 0 1.617 1.03 4.402 1.555-1.958 1.192-4.462 2.429-6.564 2.53 0 0 2.162 1.367 5.857 2.02-.846.465-1.73.82-2.524.866-1.527 1.62-4.04 2.672-6.214 2.776 0 0 1.909 1.212 5.266 2.103-2.206 1.117-4.6 2.021-6.707 2.122 0 0 1.523.964 4.25 1.86-1.288 1.963-3.615 2.771-5.69 2.87 0 0 1.885 1.2 5.247 2.232-2.613 1.316-5.435 2.372-7.927 2.498.336-.145-9.11-1.984-20.338-6.125 6.55-1.656 13.435-3.983 20.617-7.161 0 0-9.466-1.846-20.563-6.004 4.927-1.394 10.057-3.222 15.37-5.573 0 0-9.629-1.876-20.35-6.139 6.931-2.065 12.238-3.904 17.753-6.344 0 0-7.663-1.492-16.724-4.854a70.549 70.549 0 0 0 4.65-2.203c2.34-.954 5.012-1.99 7.746-3.2 0 0-7.07-1.377-15.312-4.486a60.958 60.958 0 0 0 4.188-1.978c.57-1.562 3.637-2.697 6.796-4.095 0 0-5.413-1.055-12.008-3.418a54.402 54.402 0 0 0 2.508-1.221s-1.709-.39-4.22-1.234a73.13 73.13 0 0 0 10.258-3.67s-4.49-.874-10.065-2.827a69.894 69.894 0 0 0 8.543-3.138s-5.798-1.13-12.244-3.698a59.25 59.25 0 0 0 8.781-3.106s-4.156-.81-9.093-2.632a53.793 53.793 0 0 0 8.884-3.053s-4.21-.822-9.035-2.677c3.157-1.339 5.195-2.075 7.304-3.008 0 0-4.138-.806-8.743-2.64a44.093 44.093 0 0 0 7.012-2.436s-4.723-.92-9.452-3.046c.584-.29-.737-.596-2.369-1.27 2.565-.395 5.365-1.163 8.36-2.489 0 0-4.631-.905-8.705-3.022 1.888-.33 3.934-.922 6.107-1.885 0 0-3.952-.773-7.247-2.592a18.98 18.98 0 0 0 4.65-1.4s-4.887-.95-7.24-3.304c0 0-3.937 3.168-6.787 3.303 0 0 1.46.929 3.965 1.383-1.896 1.19-4.444 2.509-6.562 2.61 0 0 1.944 1.239 5.289 1.87-2.351 1.432-5.361 2.917-7.885 3.037 0 0 2.596 1.645 7.034 2.429-1.014.557-2.078.986-3.03 1.04-1.837 1.947-4.854 3.212-7.467 3.336 0 0 2.294 1.457 6.327 2.526-2.65 1.344-5.526 2.43-8.058 2.55 0 0 1.83 1.159 5.105 2.235-.638.071-.026.525 1.106 1.096-2.652 1.262-5.449 2.235-7.942 2.354 0 0 2.264 1.44 6.304 2.68-3.15 1.587-6.555 2.862-9.557 3.005 0 0 2.834 1.806 7.856 3.213-3.72 1.89-7.763 3.422-11.319 3.591 0 0 2.842 1.81 7.92 3.38-3.188 1.41-6.474 2.443-9.442 2.584 0 0 3.459 2.191 9.568 3.925-1.462.543-2.906.904-4.264.98 0 0 .857.637 2.455 1.476-3.775 1.716-7.696 2.994-11.22 3.163 0 0 3.023 1.927 8.466 3.73-2.404.365-1.057 1.37 1.426 2.57-4.737 2.28-9.755 4.048-14.22 4.26 0 0 2.609 1.657 7.361 3.444.589.4 1.926 1.25 3.915 2.221-5.214 2.468-10.705 4.357-15.605 4.59 0 0 5.214 3.325 14.448 5.892-4.501 3.802-11.17 6.313-17.044 6.592 0 0 5.022 3.2 13.97 5.872-6.39 3.057-13.147 5.418-19.163 5.705 0 0 6.123 3.903 16.983 6.979-6.778 3.289-13.987 5.857-20.388 6.162 0 0 6.449 4.112 17.878 7.315-7.165 3.557-14.81 6.444-21.772 7.226 1.425-1.35 4.49-2.483 7.65-3.882 0 0-5.413-1.054-12.008-3.417a54.402 54.402 0 0 0 2.508-1.221s-1.709-.392-4.22-1.234a73.26 73.26 0 0 0 10.258-3.67s-4.49-.875-10.064-2.827a70.05 70.05 0 0 0 8.542-3.138s-5.798-1.13-12.244-3.698a59.367 59.367 0 0 0 8.781-3.106s-4.155-.81-9.092-2.632a53.73 53.73 0 0 0 8.883-3.054s-4.21-.821-9.035-2.676c3.155-1.34 5.195-2.075 7.304-3.008 0 0-4.137-.807-8.743-2.64a44.16 44.16 0 0 0 7.012-2.437s-4.723-.92-9.452-3.045c.584-.29-.737-.596-2.369-1.27 2.565-.396 5.364-1.164 8.36-2.489 0 0-4.631-.905-8.704-3.023 1.888-.33 3.932-.922 6.106-1.884 0 0-3.951-.773-7.247-2.592a18.941 18.941 0 0 0 4.65-1.402s-4.886-.949-7.24-3.303c0 0-3.937 3.168-6.788 3.303 0 0 1.46.929 3.965 1.384-1.895 1.19-4.444 2.509-6.561 2.61 0 0 1.944 1.239 5.289 1.87-2.352 1.432-5.362 2.917-7.885 3.037 0 0 2.597 1.645 7.035 2.428-1.014.558-2.079.987-3.032 1.04-1.836 1.948-4.853 3.212-7.466 3.336 0 0 2.294 1.457 6.326 2.527-2.65 1.343-5.525 2.429-8.057 2.55 0 0 1.83 1.158 5.106 2.235-.639.07-.026.525 1.104 1.095-2.651 1.263-5.447 2.236-7.942 2.354 0 0 2.265 1.44 6.305 2.682-3.15 1.586-6.555 2.86-9.557 3.004 0 0 2.834 1.806 7.856 3.213-3.72 1.89-7.762 3.422-11.319 3.591 0 0 2.842 1.81 7.92 3.38-3.189 1.41-6.474 2.442-9.44 2.584 0 0 3.458 2.19 9.566 3.925-1.463.542-2.907.904-4.264.98 0 0 .857.637 2.454 1.476-3.775 1.716-7.695 2.994-11.22 3.162 0 0 3.024 1.928 8.468 3.731-2.405.364-1.057 1.37 1.425 2.57-4.737 2.279-9.754 4.047-14.22 4.26 0 0 2.609 1.656 7.36 3.444.59.4 1.927 1.25 3.916 2.22-5.214 2.468-10.705 4.358-15.604 4.591 0 0 5.214 3.324 14.447 5.892-4.502 3.802-11.169 6.312-17.044 6.592 0 0 5.022 3.2 13.97 5.872-3.872 1.852-7.876 3.44-11.77 4.474-33.888-12.347-68.22-21.567-102.404-28.031l-.095-5.315c3.614-.34 7.684-1.296 12.1-3.25 0 0-2.057-.401-4.765-1.285 3.411-.76 7.041-1.921 10.852-3.608 0 0-2.755-.537-6.437-1.72 3.646-1.906 6.336-2.885 9.113-4.114 0 0-2.592-.505-6.204-1.608 1.068-.539-.87-.98-3.597-1.946 3.866-.94 7.945-2.298 12.21-4.185 0 0-2.346-.457-5.75-1.446-3.126-.964-4.54-1.443-6.005-1.997a67.072 67.072 0 0 0 9.471-3.385s-5.323-1.036-11.364-3.386a59.593 59.593 0 0 0 8.701-3.085s-4.152-.81-9.088-2.629a56.825 56.825 0 0 0 9.063-3.149s-4.162-.81-9.04-2.638a51.114 51.114 0 0 0 6.756-2.45s-4.231-.825-8.944-2.699c3.046-.908 5.38-1.716 7.803-2.788 0 0-3.367-.657-7.352-2.134.671-.289 1.352-.61 2.044-.968 1.03-.42 2.204-.874 3.406-1.407 0 0-3.107-.605-6.73-1.972 1.84-.87 1.44-.96.785-1.154a36.816 36.816 0 0 0 4.042-1.516s-2.38-.463-5.278-1.502c.69-1.475 2.194-2.001 3.756-2.693 0 0-1.973-.384-4.424-1.241a30.82 30.82 0 0 0 3.755-1.38s-2.548-.497-5.381-1.625a26.232 26.232 0 0 0 3.86-1.366s-1.828-.356-3.997-1.157a23.54 23.54 0 0 0 3.905-1.343s-1.85-.36-3.972-1.176c1.387-.588 2.284-.912 3.21-1.322 0 0-1.818-.354-3.843-1.16.98-.25 2.009-.596 3.082-1.072 0 0-2.076-.405-4.154-1.338.086-.732 1.316-1.07 2.633-1.652 0 0-2.036-.398-3.826-1.33.83-.145 1.729-.404 2.685-.827 0 0-1.738-.34-3.186-1.14 2.044-.616-.105-1.034-1.139-2.068 0 0-1.73 1.393-2.983 1.452.91 1.13-.211 1.711-1.142 1.756 1.292 1.45-.031 2.104-1.142 2.157 0 0 1.142.723 3.094 1.066-2.14 1.313-3.467 1.87-4.615 1.924 0 0 1.008.64 2.78 1.112-1.164.59-2.429 1.066-3.54 1.12 0 0 .803.51 2.244.982-.68 1.036-1.91 1.465-3.006 1.516 0 0 .996.634 2.771 1.18-1.384.697-2.882 1.256-4.2 1.32 0 0 1.244.793 3.453 1.412-1.636.83-3.412 1.504-4.976 1.579 0 0 1.25.795 3.482 1.486-1.402.618-2.847 1.073-4.15 1.135 0 0 1.52.963 4.205 1.725-2.455 1.835-4.178 2.397-5.728 2.47 0 0 1.33.847 3.722 1.64-1.057.16-.465.602.626 1.13-2.892.031-5.986-.82-9.295-2.136 3.391-1.01 5.987-1.91 8.685-3.104 0 0-3.75-.73-8.183-2.375a34.841 34.841 0 0 0 2.276-1.077c1.145-.468 2.453-.975 3.79-1.566 0 0-3.459-.675-7.492-2.196.671-.286 1.354-.607 2.05-.967.278-.766 1.78-1.32 3.325-2.005 0 0-2.649-.515-5.876-1.672 1.227-.598.39-.789-.838-1.202a35.834 35.834 0 0 0 5.02-1.795s-2.197-.428-4.925-1.384a34.222 34.222 0 0 0 4.18-1.535s-2.837-.553-5.991-1.809a29.13 29.13 0 0 0 4.296-1.52s-2.033-.396-4.45-1.288a26.3 26.3 0 0 0 4.348-1.495s-2.06-.402-4.42-1.31c1.543-.655 2.541-1.015 3.573-1.471 0 0-2.025-.395-4.278-1.291a21.835 21.835 0 0 0 3.431-1.193s-2.312-.451-4.625-1.49c.095-.815 1.465-1.19 2.93-1.84 0 0-2.265-.443-4.259-1.478a12.866 12.866 0 0 0 2.989-.923s-1.933-.379-3.546-1.269c2.275-.685-.116-1.15-1.268-2.3 0 0-1.926 1.55-3.321 1.615 1.013 1.26-.234 1.906-1.27 1.954 0 0 .95.606 2.588.916-1.152.7-2.624 1.427-3.86 1.486 0 0 1.271.804 3.443 1.187-2.38 1.462-3.857 2.08-5.136 2.142 0 0 1.122.713 3.095 1.236-1.297.658-2.703 1.189-3.942 1.248 0 0 .895.567 2.498 1.094-.757 1.153-2.125 1.63-3.346 1.687 0 0 1.109.705 3.085 1.312-1.541.777-3.207 1.4-4.676 1.47 0 0 1.386.885 3.844 1.573-1.82.924-3.798 1.674-5.539 1.757 0 0 1.392.885 3.876 1.655-1.56.689-3.168 1.194-4.62 1.264 0 0 1.692 1.07 4.682 1.92-2.088.48-1.667.792-.886 1.202-1.847.84-3.765 1.465-5.49 1.547 0 0 1.48.943 4.143 1.826-1.177.179-.517.67.697 1.256-2.317 1.117-4.772 1.982-6.958 2.086 0 0 1.276.81 3.602 1.685.289.196.942.611 1.915 1.087-1.585.75-3.222 1.39-4.809 1.795a48.425 48.425 0 0 1-5.883-1.786c1.84-.868 1.44-.96.787-1.152a36.893 36.893 0 0 0 4.04-1.518s-2.379-.463-5.277-1.502c.69-1.475 2.194-2 3.757-2.692 0 0-1.974-.385-4.425-1.243a30.578 30.578 0 0 0 3.755-1.38s-2.548-.496-5.382-1.625a26 26 0 0 0 3.86-1.366s-1.826-.354-3.997-1.156a23.633 23.633 0 0 0 3.905-1.342s-1.85-.362-3.97-1.178c1.386-.587 2.283-.91 3.21-1.32 0 0-1.82-.355-3.844-1.162.98-.248 2.008-.596 3.083-1.07 0 0-2.076-.404-4.156-1.339.087-.733 1.318-1.07 2.634-1.652 0 0-2.036-.398-3.826-1.329.829-.146 1.728-.405 2.684-.829 0 0-1.737-.34-3.185-1.14 2.043-.614-.105-1.032-1.14-2.066 0 0-1.73 1.392-2.983 1.452.91 1.13-.21 1.71-1.141 1.754 1.29 1.453-.032 2.104-1.142 2.158 0 0 1.142.722 3.093 1.066-2.14 1.315-3.465 1.87-4.614 1.925 0 0 1.009.64 2.78 1.11-1.165.59-2.428 1.068-3.541 1.121 0 0 .803.51 2.244.982-.68 1.038-1.91 1.465-3.005 1.517 0 0 .995.634 2.771 1.179-1.384.696-2.882 1.257-4.201 1.32 0 0 1.246.795 3.453 1.413-1.635.83-3.412 1.503-4.976 1.578 0 0 1.25.795 3.482 1.487-1.401.619-2.846 1.072-4.15 1.135 0 0 1.52.963 4.206 1.725-2.455 1.833-4.179 2.395-5.729 2.47 0 0 1.33.847 3.723 1.64-1.058.16-.465.601.627 1.129-2.082 1.001-4.289 1.779-6.251 1.873 0 0 1.146.728 3.235 1.514-.57 2.06-2.984 2.89-5.138 2.994 0 0 2.292 1.46 6.35 2.589-1.977 1.671-4.91 2.774-7.492 2.898 0 0 2.208 1.407 6.142 2.58-2.81 1.344-5.78 2.383-8.424 2.508 0 0 2.691 1.716 7.465 3.068-2.98 1.446-6.148 2.575-8.962 2.709 0 0 2.835 1.808 7.859 3.216-3.479 1.727-7.218 3.099-10.522 3.255 0 0 3.112 1.983 8.631 3.56a45.814 45.814 0 0 1-3.627 1.566c-3.335 1.15-5.377 1.612-7.287 1.703 0 0 4.324 2.755 11.874 4.53-1.484.592-2.956.986-4.33 1.064-1.014 1.517-3.153 2.05-5.136 2.146 0 0 2.649 1.686 7.39 3.18-.166.013.456.475 1.618 1.1-2.16.858-4.336 1.459-6.332 1.554 0 0 3.819 2.434 10.443 3.841-1.487.58-2.982.986-4.356 1.05 0 0 4.673 2.981 12.388 3.364l-.15 3.712a708.692 708.692 0 0 0-119.122-1.325 577.046 577.046 0 0 1-1.284-15.14c36.735 7.747 31.187-16.132 31.187-16.132 7.138-6.96.536-12.848.536-12.848 3.033-7.315-1.428-10.528-1.428-10.528.892-6.781-4.64-8.744-4.64-8.744.357-9.458-6.602-10.707-6.602-10.707-2.32-11.956-14.455-9.1-14.455-9.1-10.527-7.853-18.558 1.07-18.558 1.07-12.135-.892-12.491 11.242-12.491 11.242-9.1 2.32-5.71 11.064-5.71 11.064-11.599 1.963-7.495 13.92-7.495 13.92-10.707 10.883 1.963 17.13 1.963 17.13s-8.03 7.851 7.851 13.204c10.597 3.572 18.81 2.219 23.102.922-.172 4.003-1.128 10.174-1.68 15.426-40.398 3.53-78.64 10.43-113.473 19.9l-.088-4.967c4.023-.38 8.554-1.442 13.47-3.619 0 0-2.29-.445-5.305-1.43 3.799-.845 7.839-2.138 12.08-4.015 0 0-3.066-.599-7.164-1.914.693-.32 1.392-.658 2.102-1.026 1.955-1.097 4.95-2.187 8.041-3.555 0 0-2.884-.561-6.906-1.79 1.19-.599-.968-1.091-4.004-2.166 4.304-1.048 8.845-2.558 13.591-4.66 0 0-2.61-.507-6.4-1.61-3.48-1.071-5.055-1.607-6.685-2.22 3.37-.921 6.89-2.153 10.544-3.77 0 0-5.925-1.154-12.65-3.77a65.945 65.945 0 0 0 9.685-3.435s-4.623-.9-10.116-2.925a63.202 63.202 0 0 0 10.087-3.505s-4.631-.903-10.062-2.937a56.788 56.788 0 0 0 7.521-2.728s-4.71-.917-9.957-3.004c3.391-1.01 5.988-1.91 8.687-3.104 0 0-3.75-.73-8.184-2.376a34.28 34.28 0 0 0 2.275-1.076c1.146-.468 2.454-.975 3.792-1.566 0 0-3.46-.675-7.493-2.196.671-.286 1.354-.607 2.048-.968.28-.766 1.78-1.319 3.327-2.004 0 0-2.65-.516-5.876-1.672 1.227-.598.39-.789-.838-1.2a35.974 35.974 0 0 0 5.02-1.798s-2.197-.427-4.925-1.382a34.172 34.172 0 0 0 4.18-1.537s-2.837-.553-5.992-1.809a28.867 28.867 0 0 0 4.297-1.52s-2.033-.396-4.45-1.288c1.38-.34 2.83-.822 4.348-1.493 0 0-2.06-.403-4.422-1.31 1.545-.655 2.544-1.015 3.575-1.472 0 0-2.025-.395-4.279-1.291a21.547 21.547 0 0 0 3.432-1.194s-2.312-.45-4.625-1.488c.095-.816 1.465-1.192 2.93-1.841 0 0-2.266-.443-4.258-1.479.924-.161 1.924-.45 2.988-.921 0 0-1.933-.379-3.546-1.269 2.275-.686-.116-1.15-1.267-2.303 0 0-1.926 1.551-3.322 1.617 1.013 1.258-.234 1.905-1.27 1.955 0 0 .95.604 2.587.914-1.15.701-2.623 1.427-3.858 1.486 0 0 1.27.805 3.443 1.188-2.382 1.461-3.858 2.081-5.137 2.141 0 0 1.122.714 3.096 1.237-1.297.657-2.704 1.189-3.943 1.248 0 0 .895.567 2.498 1.094-.757 1.153-2.125 1.63-3.345 1.688 0 0 1.108.705 3.085 1.312-1.54.775-3.208 1.4-4.677 1.469 0 0 1.387.884 3.843 1.573-1.82.924-3.797 1.673-5.537 1.756 0 0 1.39.886 3.875 1.656-1.56.689-3.168 1.194-4.62 1.263 0 0 1.692 1.073 4.682 1.921-2.086.48-1.667.792-.886 1.202-1.847.839-3.765 1.465-5.49 1.547 0 0 1.479.942 4.143 1.826-1.177.178-.517.67.698 1.257-2.318 1.116-4.774 1.98-6.959 2.085 0 0 1.277.81 3.602 1.685.289.195.942.611 1.917 1.086-2.553 1.208-5.24 2.133-7.637 2.247 0 0 2.552 1.626 7.07 2.883-2.203 1.86-5.465 3.09-8.34 3.225 0 0 2.457 1.566 6.835 2.873-3.126 1.496-6.433 2.652-9.377 2.792 0 0 2.997 1.91 8.31 3.415-3.259 1.582-6.718 2.816-9.81 3a107.414 107.414 0 0 1-11.084-3.397c4.507-1.14 9.248-2.742 14.192-4.931 0 0-6.516-1.27-14.156-4.132a79.858 79.858 0 0 0 10.58-3.837s-6.627-1.291-14.007-4.226c4.77-1.422 8.423-2.687 12.22-4.368 0 0-5.274-1.027-11.513-3.342a48.285 48.285 0 0 0 3.201-1.516c1.612-.656 3.452-1.369 5.333-2.202 0 0-4.867-.949-10.54-3.09a42.232 42.232 0 0 0 2.882-1.36c.393-1.077 2.504-1.857 4.679-2.82 0 0-3.727-.726-8.266-2.352 1.726-.84.549-1.11-1.18-1.69a50.353 50.353 0 0 0 7.062-2.527s-3.09-.602-6.928-1.945a48.014 48.014 0 0 0 5.88-2.161s-3.99-.778-8.429-2.546a40.695 40.695 0 0 0 6.047-2.138s-2.862-.558-6.26-1.812a36.883 36.883 0 0 0 6.115-2.103s-2.898-.566-6.22-1.843c2.172-.921 3.577-1.427 5.028-2.069 0 0-2.848-.555-6.019-1.817a30.426 30.426 0 0 0 4.828-1.678s-3.252-.634-6.507-2.096c.134-1.147 2.062-1.676 4.123-2.588 0 0-3.187-.623-5.992-2.082 1.3-.226 2.708-.634 4.205-1.296 0 0-2.72-.532-4.989-1.785a13.094 13.094 0 0 0 3.2-.964s-3.363-.655-4.983-2.274c0 0-2.71 2.18-4.673 2.274 0 0 1.005.64 2.73.951-1.305.82-3.06 1.73-4.517 1.798 0 0 1.338.853 3.64 1.287-1.618.986-3.69 2.009-5.428 2.09 0 0 1.788 1.133 4.843 1.672-2.087.717-1.89.863-1.524 1.06-1.827.997-3.904 1.867-5.702 1.953 0 0 1.579 1.003 4.355 1.74-1.824.924-3.804 1.672-5.547 1.755 0 0 1.259.797 3.515 1.538-1.065 1.624-2.99 2.293-4.707 2.374 0 0 1.559.993 4.34 1.846-2.167 1.092-4.513 1.97-6.58 2.069 0 0 1.952 1.243 5.408 2.212-2.56 1.3-5.343 2.355-7.79 2.472 0 0 1.955 1.245 5.451 2.328-2.195.97-4.457 1.68-6.5 1.778 0 0 2.382 1.508 6.587 2.702-2.936.674-2.345 1.113-1.246 1.691-2.598 1.181-5.297 2.061-7.724 2.176 0 0 2.082 1.327 5.83 2.57-1.656.25-.728.94.98 1.768-3.26 1.57-6.714 2.786-9.79 2.932 0 0 1.797 1.14 5.068 2.37.406.277 1.326.861 2.696 1.529-3.59 1.7-7.37 3-10.743 3.161 0 0 3.59 2.289 9.946 4.055-3.099 2.619-7.689 4.347-11.733 4.539 0 0 3.457 2.204 9.617 4.043-4.4 2.103-9.05 3.728-13.192 3.926 0 0 4.215 2.687 11.692 4.804-4.667 2.264-9.629 4.033-14.036 4.243 0 0 4.44 2.83 12.307 5.036-5.45 2.705-11.304 4.853-16.478 5.1 0 0 4.872 3.105 13.517 5.575a71.74 71.74 0 0 1-5.68 2.45c-5.224 1.802-8.422 2.525-11.412 2.667 0 0 6.771 4.314 18.595 7.094-2.325.926-4.628 1.545-6.78 1.665 0 0 .609.456 1.77 1.145-3.36 1.232-6.709 2.07-9.814 2.216 0 0 4.148 2.642 11.574 4.983-.26.02.712.744 2.533 1.723-3.383 1.343-6.79 2.284-9.917 2.432 0 0 5.981 3.811 16.355 6.016-2.328.91-4.67 1.544-6.82 1.646 0 0 7.317 4.667 19.4 5.266l-.328 8.152c-29.895 12.17-55.706 26.377-76.166 41.865-36.176 27.384-83.125 24.597-128.902 9.386.86-.36 1.718-.711 2.588-1.097 0 0-4.907-.956-11.748-3.042.67-.33 1.346-.67 2.023-1.021 0 0-3.669-.838-8.832-2.665 7.32-1.783 15.044-4.353 23.116-7.926 0 0-4.44-.864-10.885-2.739.16-.081-1.194-.39-3.436-1.04a150.705 150.705 0 0 1-7.935-2.738c5.732-1.566 11.72-3.66 17.933-6.41 0 0-10.078-1.961-21.515-6.411 5.255-1.405 10.756-3.313 16.473-5.843 0 0-7.862-1.53-17.206-4.975 5.45-1.38 11.181-3.316 17.158-5.962 0 0-7.878-1.536-17.114-4.995a96.62 96.62 0 0 0 12.792-4.64s-8.013-1.56-16.936-5.109c5.769-1.718 10.185-3.25 14.775-5.28 0 0-6.378-1.243-13.92-4.04a58.91 58.91 0 0 0 3.87-1.833c1.949-.794 4.173-1.656 6.447-2.663 0 0-5.883-1.147-12.743-3.734a51.34 51.34 0 0 0 3.485-1.646c.475-1.301 3.027-2.245 5.657-3.409 0 0-4.506-.877-9.994-2.844a47.212 47.212 0 0 0 2.087-1.016s-1.422-.326-3.512-1.027c2.73-.75 5.58-1.746 8.538-3.055 0 0-3.737-.727-8.377-2.353a58.112 58.112 0 0 0 7.11-2.611s-4.826-.941-10.19-3.078a49.35 49.35 0 0 0 7.308-2.586s-3.46-.673-7.568-2.189c2.345-.58 4.813-1.4 7.394-2.542 0 0-3.504-.684-7.52-2.228 2.627-1.114 4.324-1.727 6.079-2.503 0 0-3.444-.671-7.277-2.196a36.873 36.873 0 0 0 5.837-2.029s-3.932-.766-7.867-2.534c.486-.242-.613-.496-1.971-1.057 2.133-.33 4.463-.97 6.955-2.072 0 0-3.853-.754-7.243-2.516a21.836 21.836 0 0 0 5.083-1.568s-3.29-.645-6.032-2.159a15.797 15.797 0 0 0 3.87-1.165s-4.067-.791-6.026-2.749c0 0-3.275 2.636-5.65 2.75 0 0 1.217.771 3.301 1.151-1.577.988-3.699 2.089-5.46 2.172 0 0 1.617 1.03 4.4 1.555-1.956 1.192-4.462 2.429-6.562 2.53 0 0 2.161 1.367 5.856 2.02-.845.465-1.73.82-2.524.866-1.527 1.62-4.039 2.672-6.213 2.776 0 0 1.909 1.212 5.266 2.103-2.207 1.117-4.6 2.021-6.707 2.122 0 0 1.522.964 4.249 1.86-1.287 1.963-3.614 2.771-5.69 2.87 0 0 1.884 1.2 5.246 2.232-2.469 1.245-5.126 2.248-7.515 2.46-3.714-1.035-8.356-2.48-13.251-4.386 5.256-1.404 10.757-3.312 16.473-5.842 0 0-7.861-1.53-17.206-4.977 5.45-1.379 11.181-3.315 17.159-5.96 0 0-7.878-1.536-17.114-4.996a96.724 96.724 0 0 0 12.792-4.64s-8.013-1.56-16.937-5.108c5.769-1.72 10.185-3.25 14.775-5.281 0 0-6.377-1.242-13.918-4.04a59.435 59.435 0 0 0 3.87-1.832c1.948-.796 4.171-1.657 6.447-2.664 0 0-5.884-1.147-12.744-3.733a51.32 51.32 0 0 0 3.484-1.646c.476-1.302 3.029-2.246 5.658-3.41 0 0-4.506-.877-9.994-2.844a46.674 46.674 0 0 0 2.087-1.017s-1.422-.324-3.512-1.027a60.841 60.841 0 0 0 8.537-3.054s-3.737-.727-8.377-2.353a58.05 58.05 0 0 0 7.11-2.61s-4.825-.941-10.19-3.079a49.299 49.299 0 0 0 7.308-2.585s-3.458-.673-7.568-2.19c2.345-.58 4.814-1.399 7.395-2.541 0 0-3.504-.684-7.52-2.229 2.626-1.113 4.324-1.726 6.079-2.503 0 0-3.445-.67-7.277-2.196a36.898 36.898 0 0 0 5.836-2.028s-3.93-.766-7.867-2.534c.486-.243-.613-.498-1.971-1.059 2.133-.33 4.464-.968 6.957-2.07 0 0-3.854-.754-7.244-2.517a21.814 21.814 0 0 0 5.082-1.568s-3.29-.644-6.031-2.158a15.797 15.797 0 0 0 3.87-1.165s-4.067-.792-6.026-2.75c0 0-3.276 2.636-5.65 2.75 0 0 1.217.772 3.301 1.15-1.578.99-3.699 2.09-5.46 2.173 0 0 1.617 1.031 4.4 1.556-1.956 1.192-4.462 2.429-6.562 2.528 0 0 2.161 1.369 5.855 2.022-.844.463-1.73.82-2.523.865-1.528 1.62-4.039 2.672-6.213 2.777 0 0 1.908 1.211 5.266 2.102-2.207 1.118-4.6 2.022-6.707 2.122 0 0 1.522.965 4.249 1.86-1.287 1.963-3.614 2.772-5.69 2.872 0 0 1.884 1.198 5.246 2.231-2.62 1.32-5.454 2.38-7.954 2.5 0 0 2.36 1.504 6.539 2.675-3.097 1.572-6.46 2.846-9.42 2.988 0 0 2.365 1.506 6.591 2.813-2.653 1.174-5.388 2.033-7.857 2.15 0 0 2.878 1.823 7.962 3.268-1.218.451-2.42.753-3.549.814 0 0 .713.531 2.043 1.23-3.142 1.427-6.405 2.492-9.339 2.632 0 0 2.517 1.603 7.048 3.104-2.002.305-.88 1.14 1.186 2.14-3.942 1.897-8.119 3.368-11.835 3.544 0 0 2.17 1.38 6.126 2.868.49.332 1.604 1.038 3.259 1.847-4.34 2.054-8.91 3.627-12.988 3.82 0 0 4.34 2.768 12.025 4.903-3.746 3.166-9.296 5.255-14.185 5.488 0 0 4.179 2.663 11.626 4.887-5.318 2.545-10.941 4.509-15.948 4.747 0 0 5.096 3.25 14.134 5.81-5.641 2.737-11.641 4.874-16.969 5.128 0 0 5.368 3.423 14.88 6.088-6.588 3.27-13.666 5.868-19.922 6.166 0 0 5.89 3.753 16.342 6.74a87.086 87.086 0 0 1-6.868 2.964c-6.314 2.175-10.18 3.05-13.797 3.223 0 0 8.188 5.216 22.483 8.576-2.812 1.12-5.597 1.868-8.199 2.014 0 0 .737.55 2.141 1.384-4.061 1.49-8.111 2.501-11.866 2.68 0 0 5.015 3.192 13.993 6.023-.313.024.862.9 3.063 2.083a50.763 50.763 0 0 1-5.394 1.816C8.537 137.77-7 124.106-7 124.106v252.012h1301.026V185.364s-28.514 9.809-74.975 18.65l-.105-5.912z"/>
        <path fill="#0D2E37" d="M488.49 331.788a95.818 95.818 0 0 0 9.748-2.731 72.406 72.406 0 0 0 6.313 1.641c-2.574 1.007-5.161 1.707-7.54 1.82 0 0 8.09 5.16 21.45 5.822l-.39 9.676c-13.758 1.766-27.69 2.708-42.081 2.816l-.2-11.192c6.258-.59 13.304-2.242 20.951-5.627 0 0-3.56-.694-8.25-2.225zm11.03-80.245a54.2 54.2 0 0 0 6.229 2.14c.397.174.817.35 1.26.526-3.584 1.81-7.392 3.347-10.986 4.068a95.154 95.154 0 0 1-7.988-2.755c.47-.173.943-.354 1.418-.543 3.23-.861 6.594-2.002 10.066-3.436zm-.009 20.601c.718.23 1.456.458 2.238.68a61.308 61.308 0 0 1-6.67 2.788 109.864 109.864 0 0 1-3.295-1.154 94.86 94.86 0 0 0 7.727-2.314zm-.01-10.293c1.166.44 2.465.887 3.908 1.318-2.32 1.11-4.701 2.092-7.056 2.847a105.684 105.684 0 0 1-4.528-1.58 86.527 86.527 0 0 0 7.675-2.585zm-4.556 47.435c.924-.226 1.858-.469 2.796-.722-.834.318-1.663.594-2.485.83-.105-.036-.206-.07-.311-.108zm3.262-26.683a74.14 74.14 0 0 0 1.633.478 78.271 78.271 0 0 1-4.86 2.215c-.833-.302-1.673-.613-2.525-.945a99.948 99.948 0 0 0 5.752-1.748zm41.283 47.69c4.837-1.076 9.93-2.63 15.237-4.755 3.539 1.144 8.19 2.209 13.78 2.486l-.397 9.916c-13.814 3.748-27.439 6.695-41.167 8.82l-.154-8.614c6.257-.59 13.305-2.244 20.951-5.628 0 0-3.56-.694-8.25-2.225zm8.657-79.305a57.627 57.627 0 0 0 5.31 1.866c-2.805 1.342-5.7 2.495-8.527 3.283a92.32 92.32 0 0 1-5.896-2.11c.47-.172.942-.353 1.418-.544a80.46 80.46 0 0 0 7.695-2.495zm-.18 10.31c1.176.41 2.447.82 3.83 1.211a66.793 66.793 0 0 1-4.517 1.99c-1.42-.464-2.917-.98-4.456-1.557a84.278 84.278 0 0 0 5.143-1.644zm-1.132 10.54a70.93 70.93 0 0 0 3.051.928 82.628 82.628 0 0 1-3.27 1.528 111.323 111.323 0 0 1-3.832-1.331 94.319 94.319 0 0 0 4.05-1.126zm2.833 50.013c-.809-.24-1.654-.499-2.532-.781a76.574 76.574 0 0 0 3.268-1.596s-.529-.12-1.45-.37c.086-.025.176-.058.263-.083 1.653.485 3.442.95 5.382 1.363-1.66.647-3.32 1.148-4.931 1.467zm611.793-102.088c7.427-.7 15.79-2.662 24.866-6.68 0 0-4.226-.822-9.792-2.639 7.011-1.56 14.47-3.948 22.301-7.414 0 0-5.662-1.103-13.227-3.534a91.127 91.127 0 0 0 3.879-1.893c3.612-2.025 9.14-4.037 14.847-6.563 0 0-5.326-1.036-12.75-3.303.728-.356 1.46-.725 2.195-1.107 0 0-3.983-.909-9.586-2.893 7.945-1.935 16.328-4.724 25.09-8.601 0 0-4.82-.938-11.816-2.973.176-.09-1.295-.424-3.727-1.131a162.237 162.237 0 0 1-8.612-2.969c6.22-1.7 12.718-3.973 19.463-6.958 0 0-10.939-2.128-23.353-6.96 5.705-1.524 11.675-3.593 17.88-6.34 0 0-8.534-1.661-18.675-5.4 5.915-1.498 12.136-3.6 18.623-6.47 0 0-8.55-1.668-18.575-5.423 4.45-1.26 9.085-2.91 13.884-5.035 0 0-8.697-1.693-18.382-5.546 6.26-1.864 11.054-3.526 16.036-5.73 0 0-6.921-1.35-15.107-4.386a64.297 64.297 0 0 0 4.2-1.988c2.114-.863 4.529-1.798 6.998-2.89 0 0-6.386-1.246-13.832-4.054 1.24-.527 2.5-1.12 3.783-1.787.516-1.411 3.286-2.436 6.14-3.698 0 0-4.89-.953-10.848-3.088a49.259 49.259 0 0 0 2.266-1.104s-1.544-.352-3.812-1.114a66.29 66.29 0 0 0 9.266-3.316s-4.056-.788-9.092-2.553a63.11 63.11 0 0 0 7.717-2.834s-5.237-1.02-11.06-3.341a53.405 53.405 0 0 0 7.932-2.807s-3.755-.73-8.214-2.376a48.482 48.482 0 0 0 8.026-2.759s-3.803-.741-8.163-2.418c2.852-1.21 4.694-1.873 6.598-2.717 0 0-3.737-.728-7.897-2.384a39.837 39.837 0 0 0 6.334-2.202s-4.267-.83-8.539-2.75c.527-.262-.665-.539-2.138-1.148 2.315-.356 4.844-1.05 7.55-2.248 0 0-4.183-.818-7.863-2.73 1.706-.298 3.553-.833 5.517-1.702 0 0-3.57-.7-6.546-2.343 1.294-.21 2.698-.6 4.2-1.264 0 0-4.415-.858-6.54-2.984 0 0-3.557 2.861-6.132 2.984 0 0 1.32.838 3.582 1.25-1.712 1.073-4.014 2.266-5.927 2.357 0 0 1.756 1.119 4.777 1.69-2.124 1.292-4.842 2.634-7.123 2.742 0 0 2.346 1.486 6.356 2.194-.917.504-1.879.891-2.739.94-1.658 1.759-4.384 2.9-6.744 3.012 0 0 2.071 1.316 5.715 2.284-2.394 1.212-4.992 2.193-7.28 2.302 0 0 1.653 1.047 4.613 2.02-1.397 2.13-3.923 3.009-6.176 3.115 0 0 2.045 1.302 5.695 2.423-2.844 1.433-5.922 2.584-8.633 2.712 0 0 2.56 1.634 7.096 2.904-3.36 1.707-7.012 3.09-10.224 3.244 0 0 2.568 1.634 7.153 3.054-2.88 1.272-5.848 2.205-8.528 2.333 0 0 3.125 1.979 8.643 3.546-1.321.49-2.626.816-3.852.884 0 0 .775.577 2.218 1.335-3.41 1.55-6.952 2.705-10.136 2.857 0 0 2.73 1.74 7.648 3.369-2.171.33-.954 1.237 1.288 2.321-4.279 2.059-8.811 3.657-12.846 3.848 0 0 2.357 1.497 6.65 3.111.533.363 1.74 1.13 3.536 2.006-4.71 2.23-9.67 3.937-14.095 4.147 0 0 4.71 3.003 13.05 5.322-4.066 3.435-10.088 5.701-15.396 5.955 0 0 4.537 2.892 12.62 5.304-5.773 2.761-11.876 4.895-17.31 5.153 0 0 5.53 3.525 15.34 6.304-6.122 2.973-12.634 5.292-18.417 5.568 0 0 5.826 3.714 16.15 6.607-7.15 3.55-14.833 6.368-21.624 6.692 0 0 6.395 4.074 17.74 7.315a94.269 94.269 0 0 1-7.456 3.217c-3.335.437-3.089.62-2.614.937-4.239 1.425-8.436 2.375-12.36 2.562 0 0 8.886 5.66 24.402 9.31-3.052 1.214-6.075 2.027-8.9 2.184 0 0 .8.597 2.325 1.501-4.409 1.617-8.805 2.715-12.88 2.91 0 0 5.444 3.465 15.188 6.537-.34.025.935.977 3.324 2.26-4.437 1.763-8.91 2.997-13.012 3.192 0 0 7.85 5.003 21.46 7.895-3.055 1.193-6.127 2.025-8.95 2.159 0 0 9.602 6.124 25.457 6.909l-.124 3.09c-37.25-3.377-79.401-6.24-122.424-7.294l-.19-10.713c7.427-.7 15.79-2.662 24.865-6.678 0 0-4.225-.824-9.792-2.642 7.011-1.56 14.47-3.946 22.301-7.413 0 0-5.662-1.104-13.227-3.533a92.435 92.435 0 0 0 3.88-1.894c3.611-2.024 9.14-4.036 14.846-6.562 0 0-5.324-1.037-12.75-3.303.728-.357 1.46-.726 2.195-1.108 0 0-3.982-.909-9.586-2.893 7.945-1.935 16.328-4.724 25.09-8.601 0 0-4.82-.939-11.815-2.972.175-.09-1.296-.425-3.728-1.13a164.78 164.78 0 0 1-8.612-2.97c6.221-1.7 12.718-3.974 19.463-6.96 0 0-10.938-2.127-23.352-6.959 5.703-1.524 11.674-3.593 17.88-6.34 0 0-8.534-1.661-18.676-5.4 5.915-1.498 12.135-3.599 18.623-6.47 0 0-8.55-1.668-18.574-5.423 4.45-1.26 9.084-2.911 13.883-5.035 0 0-8.697-1.694-18.381-5.545 6.26-1.866 11.053-3.527 16.035-5.731 0 0-6.921-1.35-15.107-4.386a63.303 63.303 0 0 0 4.2-1.989c2.115-.862 4.529-1.797 6.998-2.89 0 0-6.386-1.245-13.832-4.052 1.24-.53 2.5-1.122 3.783-1.787.516-1.412 3.286-2.437 6.14-3.7 0 0-4.89-.953-10.847-3.088a50.2 50.2 0 0 0 2.265-1.102s-1.544-.354-3.812-1.114a66.29 66.29 0 0 0 9.266-3.317s-4.056-.788-9.09-2.553a62.93 62.93 0 0 0 7.715-2.834s-5.237-1.02-11.06-3.34a53.52 53.52 0 0 0 7.932-2.808s-3.754-.73-8.214-2.375a48.732 48.732 0 0 0 8.026-2.759s-3.803-.743-8.162-2.42c2.85-1.208 4.693-1.872 6.598-2.716 0 0-3.738-.727-7.898-2.384a39.996 39.996 0 0 0 6.334-2.2s-4.267-.832-8.538-2.752c.527-.263-.666-.538-2.14-1.148 2.316-.356 4.846-1.05 7.55-2.247 0 0-4.181-.818-7.862-2.732a23.71 23.71 0 0 0 5.518-1.7s-3.571-.7-6.547-2.344c1.294-.21 2.698-.6 4.2-1.264 0 0-4.415-.86-6.54-2.984 0 0-3.556 2.861-6.132 2.984 0 0 1.32.838 3.582 1.25-1.712 1.073-4.014 2.266-5.927 2.357 0 0 1.756 1.119 4.778 1.69-2.125 1.292-4.843 2.634-7.124 2.743 0 0 2.346 1.485 6.356 2.193-.917.504-1.877.892-2.739.939-1.658 1.76-4.383 2.902-6.745 3.014 0 0 2.072 1.317 5.716 2.282-2.394 1.213-4.992 2.195-7.28 2.303 0 0 1.653 1.048 4.613 2.02-1.397 2.13-3.923 3.008-6.176 3.116 0 0 2.046 1.3 5.695 2.422-2.844 1.433-5.922 2.584-8.633 2.712 0 0 2.56 1.634 7.097 2.903-3.361 1.708-7.012 3.09-10.225 3.245 0 0 2.567 1.635 7.155 3.054-2.881 1.272-5.849 2.206-8.53 2.333 0 0 3.125 1.979 8.643 3.547-1.321.488-2.625.815-3.852.884 0 0 .775.576 2.218 1.333-3.41 1.55-6.952 2.705-10.136 2.857 0 0 2.73 1.742 7.65 3.37-2.173.33-.956 1.237 1.286 2.321-4.279 2.06-8.811 3.656-12.846 3.848 0 0 2.357 1.497 6.65 3.112.532.36 1.74 1.128 3.537 2.005-4.71 2.23-9.67 3.936-14.096 4.148 0 0 4.71 3.002 13.05 5.32-4.066 3.435-10.09 5.703-15.396 5.956 0 0 4.537 2.892 12.62 5.304-5.773 2.761-11.876 4.894-17.31 5.154 0 0 5.53 3.526 15.34 6.304-6.122 2.972-12.634 5.291-18.416 5.566 0 0 5.825 3.714 16.149 6.608-7.15 3.55-14.833 6.368-21.623 6.691 0 0 6.394 4.075 17.738 7.316a94.269 94.269 0 0 1-7.455 3.217c-3.334.438-3.089.62-2.613.937-4.24 1.426-8.437 2.375-12.36 2.562 0 0 8.884 5.66 24.4 9.31-3.05 1.214-6.073 2.027-8.898 2.184 0 0 .8.598 2.324 1.502-4.408 1.617-8.804 2.715-12.878 2.909 0 0 5.443 3.465 15.186 6.537-.34.025.935.977 3.325 2.262-4.438 1.762-8.91 2.996-13.013 3.19 0 0 7.85 5.003 21.46 7.894-3.055 1.194-6.126 2.026-8.95 2.16 0 0 9.603 6.124 25.457 6.909l-.413 10.263c-53.312-.932-107.452 1.058-154.812 8.415l-.141-7.987c7.427-.7 15.79-2.663 24.864-6.679 0 0-4.225-.824-9.791-2.641 7.012-1.56 14.47-3.946 22.3-7.412 0 0-5.661-1.105-13.226-3.535a92.393 92.393 0 0 0 3.88-1.893c3.611-2.025 9.14-4.037 14.846-6.563 0 0-5.325-1.037-12.75-3.303.728-.357 1.46-.725 2.196-1.107 0 0-3.983-.91-9.587-2.892 7.944-1.935 16.328-4.724 25.09-8.604 0 0-4.82-.936-11.815-2.971.174-.09-1.296-.425-3.729-1.13a163.894 163.894 0 0 1-8.611-2.971c6.221-1.7 12.718-3.972 19.463-6.958 0 0-10.939-2.128-23.352-6.958 5.704-1.525 11.674-3.595 17.88-6.34 0 0-8.534-1.662-18.675-5.402 5.914-1.498 12.135-3.598 18.622-6.47 0 0-8.55-1.668-18.575-5.424a104.88 104.88 0 0 0 13.885-5.033s-8.698-1.695-18.383-5.546c6.261-1.865 11.055-3.526 16.037-5.73 0 0-6.922-1.348-15.108-4.385a64.093 64.093 0 0 0 4.2-1.99c2.115-.863 4.529-1.798 6.998-2.89 0 0-6.387-1.245-13.832-4.053 1.24-.529 2.5-1.121 3.783-1.786.516-1.414 3.286-2.437 6.14-3.7 0 0-4.891-.953-10.847-3.088a49.739 49.739 0 0 0 2.266-1.103s-1.544-.352-3.813-1.114a66.043 66.043 0 0 0 9.266-3.317s-4.056-.788-9.09-2.552a63.267 63.267 0 0 0 7.715-2.835s-5.237-1.02-11.06-3.34a53.561 53.561 0 0 0 7.933-2.806s-3.755-.731-8.215-2.377a48.544 48.544 0 0 0 8.026-2.759s-3.803-.743-8.162-2.419c2.85-1.208 4.693-1.873 6.598-2.716 0 0-3.739-.729-7.898-2.384a39.903 39.903 0 0 0 6.334-2.202s-4.266-.83-8.539-2.75c.528-.262-.664-.539-2.139-1.148 2.317-.358 4.846-1.05 7.55-2.248 0 0-4.182-.818-7.862-2.73 1.707-.299 3.554-.833 5.517-1.702 0 0-3.57-.698-6.546-2.343 1.294-.21 2.698-.6 4.2-1.265 0 0-4.415-.858-6.54-2.983 0 0-3.556 2.86-6.132 2.983 0 0 1.32.84 3.583 1.25-1.713 1.074-4.016 2.267-5.928 2.358 0 0 1.755 1.118 4.778 1.689-2.125 1.292-4.843 2.634-7.123 2.743 0 0 2.345 1.486 6.355 2.192-.917.505-1.878.893-2.739.942-1.658 1.758-4.383 2.9-6.744 3.012 0 0 2.072 1.316 5.715 2.283-2.395 1.214-4.992 2.194-7.279 2.303 0 0 1.653 1.047 4.612 2.02-1.397 2.13-3.924 3.009-6.176 3.115 0 0 2.046 1.301 5.694 2.423-2.844 1.431-5.92 2.583-8.632 2.713 0 0 2.56 1.631 7.096 2.903-3.36 1.706-7.011 3.09-10.224 3.243 0 0 2.567 1.635 7.154 3.054-2.88 1.272-5.848 2.206-8.53 2.333 0 0 3.126 1.979 8.644 3.546-1.322.49-2.626.817-3.853.885 0 0 .776.576 2.218 1.334-3.41 1.55-6.95 2.706-10.135 2.857 0 0 2.73 1.74 7.649 3.369-2.173.33-.956 1.237 1.287 2.322-4.28 2.06-8.811 3.656-12.845 3.847 0 0 2.356 1.498 6.649 3.113.533.36 1.74 1.128 3.537 2.005-4.71 2.23-9.67 3.936-14.096 4.147 0 0 4.71 3.003 13.051 5.322-4.067 3.434-10.09 5.702-15.397 5.955 0 0 4.536 2.891 12.619 5.303-5.771 2.763-11.875 4.895-17.31 5.154 0 0 5.532 3.525 15.341 6.305-6.123 2.97-12.634 5.29-18.416 5.566 0 0 5.825 3.715 16.149 6.608-7.15 3.55-14.832 6.368-21.623 6.691 0 0 6.394 4.074 17.738 7.316a94.106 94.106 0 0 1-7.456 3.217c-3.333.436-3.087.62-2.613.937-4.24 1.425-8.435 2.375-12.36 2.56 0 0 8.886 5.662 24.402 9.31-3.052 1.216-6.075 2.029-8.9 2.186 0 0 .8.596 2.325 1.502-4.408 1.615-8.804 2.714-12.879 2.908 0 0 5.444 3.466 15.188 6.537-.34.026.934.977 3.323 2.261-4.438 1.764-8.91 2.996-13.012 3.193 0 0 7.849 5 21.46 7.893-3.055 1.193-6.126 2.026-8.95 2.16 0 0 9.602 6.123 25.456 6.909l-.38 9.485c-30.389 5.358-57.62 13.1-79.53 23.927a9957.477 9957.477 0 0 1-39.685 19.525 788.834 788.834 0 0 1-1.562-18.764c51.977 10.961 44.127-22.826 44.127-22.826 10.1-9.848.758-18.179.758-18.179 4.292-10.353-2.02-14.897-2.02-14.897 1.262-9.595-6.565-12.372-6.565-12.372.505-13.383-9.342-15.15-9.342-15.15-3.283-16.917-20.453-12.877-20.453-12.877-14.896-11.11-26.259 1.515-26.259 1.515-17.17-1.262-17.674 15.906-17.674 15.906-12.877 3.282-8.08 15.655-8.08 15.655-16.412 2.777-10.605 19.695-10.605 19.695-15.149 15.402 2.777 24.238 2.777 24.238s-11.361 11.11 11.11 18.685c14.994 5.054 26.613 3.14 32.688 1.305-.275 6.428-1.984 16.818-2.66 24.759-55.833 27.029-100.796 47.055-143.379 59.577l-.135-7.603c6.257-.59 13.304-2.243 20.951-5.628 0 0-3.56-.695-8.25-2.225 5.908-1.314 12.192-3.325 18.791-6.246 0 0-4.771-.931-11.146-2.977a77.766 77.766 0 0 0 3.27-1.595c3.043-1.707 7.7-3.403 12.51-5.53 0 0-4.488-.875-10.744-2.784 1.85-.933-1.506-1.699-6.228-3.37 6.694-1.631 13.759-3.98 21.141-7.248 0 0-4.06-.79-9.955-2.505.147-.075-1.091-.358-3.142-.952a138.499 138.499 0 0 1-7.257-2.503c5.243-1.433 10.718-3.347 16.401-5.863 0 0-9.217-1.792-19.677-5.864 4.806-1.284 9.837-3.028 15.065-5.341 0 0-7.19-1.4-15.735-4.553 4.984-1.26 10.225-3.031 15.692-5.451 0 0-7.205-1.403-15.652-4.568a88.254 88.254 0 0 0 11.698-4.243s-7.327-1.427-15.487-4.672c5.275-1.572 9.313-2.972 13.511-4.83 0 0-5.832-1.135-12.73-3.694a52.918 52.918 0 0 0 3.54-1.677c1.781-.726 3.816-1.514 5.896-2.435 0 0-5.381-1.05-11.654-3.414a47.319 47.319 0 0 0 3.186-1.506c.436-1.19 2.77-2.053 5.174-3.116 0 0-4.12-.804-9.14-2.602 1.91-.93.608-1.227-1.302-1.87a55.586 55.586 0 0 0 7.807-2.793s-3.417-.665-7.66-2.151a53.116 53.116 0 0 0 6.502-2.389s-4.414-.86-9.32-2.814a45.131 45.131 0 0 0 6.684-2.365s-3.163-.616-6.921-2.002a40.833 40.833 0 0 0 6.762-2.325s-3.205-.626-6.877-2.037c2.402-1.02 3.954-1.58 5.56-2.29 0 0-3.15-.614-6.655-2.01a33.49 33.49 0 0 0 5.337-1.854s-3.595-.7-7.194-2.317c.148-1.269 2.278-1.852 4.558-2.862 0 0-3.524-.689-6.624-2.3a20.001 20.001 0 0 0 4.648-1.434s-3.008-.59-5.516-1.974a14.461 14.461 0 0 0 3.54-1.066s-3.721-.722-5.512-2.514c0 0-2.996 2.41-5.166 2.514 0 0 1.111.707 3.018 1.053-1.442.905-3.383 1.91-4.994 1.987 0 0 1.478.942 4.026 1.423-1.79 1.09-4.082 2.22-6.003 2.311 0 0 1.977 1.253 5.355 1.849-2.307.791-2.09.953-1.685 1.17-2.02 1.103-4.316 2.066-6.305 2.16 0 0 1.746 1.109 4.816 1.924-2.018 1.023-4.207 1.848-6.134 1.94 0 0 1.393.882 3.886 1.7-1.177 1.796-3.305 2.536-5.204 2.627 0 0 1.724 1.096 4.8 2.04-2.398 1.208-4.99 2.177-7.275 2.287 0 0 2.157 1.375 5.98 2.446-2.833 1.438-5.909 2.604-8.615 2.733 0 0 2.163 1.377 6.027 2.574-2.426 1.072-4.927 1.858-7.185 1.966 0 0 2.632 1.667 7.282 2.988-1.114.412-2.213.688-3.247.745 0 0 .654.486 1.869 1.125-2.873 1.305-5.857 2.278-8.54 2.407 0 0 2.301 1.466 6.444 2.838-1.83.278-.804 1.042 1.085 1.956-3.605 1.736-7.425 3.08-10.823 3.242 0 0 1.985 1.261 5.602 2.622.45.305 1.466.951 2.981 1.69-3.969 1.88-8.148 3.316-11.877 3.495 0 0 3.969 2.53 10.996 4.483-2.067 2.208-5.587 3.646-8.951 4.421a92.07 92.07 0 0 1-7.028-2.285 53.892 53.892 0 0 0 3.54-1.675c1.78-.727 3.814-1.515 5.895-2.436 0 0-5.381-1.048-11.654-3.414a46.83 46.83 0 0 0 3.187-1.506c.434-1.19 2.769-2.053 5.173-3.118 0 0-4.12-.802-9.14-2.6 1.91-.93.608-1.228-1.303-1.869a55.69 55.69 0 0 0 7.808-2.795s-3.417-.664-7.66-2.15a53.116 53.116 0 0 0 6.502-2.389s-4.414-.86-9.32-2.815a45.056 45.056 0 0 0 6.684-2.365s-3.164-.615-6.922-2.002a40.904 40.904 0 0 0 6.763-2.324s-3.205-.625-6.878-2.039c2.403-1.018 3.955-1.577 5.56-2.289 0 0-3.15-.613-6.655-2.008a33.71 33.71 0 0 0 5.338-1.855s-3.595-.7-7.195-2.317c.149-1.268 2.28-1.853 4.56-2.862 0 0-3.525-.689-6.625-2.3a20 20 0 0 0 4.647-1.435s-3.008-.588-5.515-1.972a14.48 14.48 0 0 0 3.54-1.067s-3.721-.724-5.511-2.514c0 0-2.997 2.411-5.167 2.514 0 0 1.112.706 3.018 1.052-1.442.906-3.383 1.91-4.995 1.987 0 0 1.48.943 4.027 1.423-1.79 1.09-4.082 2.221-6.003 2.312 0 0 1.976 1.253 5.355 1.848-2.307.792-2.091.954-1.685 1.172-2.02 1.102-4.316 2.065-6.305 2.159 0 0 1.746 1.11 4.816 1.923-2.019 1.022-4.207 1.85-6.134 1.94 0 0 1.393.883 3.886 1.703-1.177 1.795-3.305 2.535-5.204 2.625 0 0 1.724 1.096 4.798 2.042-2.396 1.205-4.988 2.176-7.274 2.284 0 0 2.158 1.376 5.98 2.447-2.832 1.438-5.908 2.604-8.614 2.733 0 0 2.162 1.378 6.027 2.574-2.426 1.072-4.928 1.858-7.185 1.965 0 0 2.632 1.668 7.282 2.989-1.114.413-2.213.688-3.247.745 0 0 .653.485 1.869 1.124-2.873 1.306-5.858 2.279-8.54 2.406 0 0 2.301 1.467 6.444 2.84-1.83.278-.804 1.042 1.086 1.957-3.606 1.735-7.425 3.08-10.824 3.241 0 0 1.985 1.262 5.602 2.623.45.304 1.466.95 2.98 1.69-3.754 1.777-7.692 3.145-11.263 3.44a93.057 93.057 0 0 1-6.549-2.146c1.16-.5 2.34-1.054 3.54-1.676 1.782-.728 3.815-1.515 5.896-2.436 0 0-5.38-1.049-11.655-3.416a45.883 45.883 0 0 0 3.187-1.504c.435-1.19 2.77-2.053 5.174-3.117 0 0-4.121-.803-9.14-2.602 1.91-.93.608-1.227-1.303-1.867a55.854 55.854 0 0 0 7.807-2.795s-3.416-.665-7.66-2.152a53.284 53.284 0 0 0 6.502-2.388s-4.412-.86-9.32-2.815a45.122 45.122 0 0 0 6.685-2.364s-3.164-.616-6.922-2.002a41.03 41.03 0 0 0 6.763-2.326s-3.204-.626-6.877-2.037c2.401-1.018 3.953-1.579 5.558-2.29 0 0-3.149-.613-6.654-2.007a33.803 33.803 0 0 0 5.337-1.856s-3.595-.7-7.194-2.319c.148-1.266 2.28-1.852 4.559-2.86 0 0-3.524-.688-6.625-2.3a19.937 19.937 0 0 0 4.648-1.435s-3.007-.588-5.515-1.974a14.417 14.417 0 0 0 3.54-1.066s-3.72-.722-5.512-2.514c0 0-2.996 2.41-5.166 2.514 0 0 1.111.707 3.018 1.053-1.443.905-3.383 1.911-4.995 1.987 0 0 1.48.942 4.026 1.424-1.79 1.089-4.08 2.219-6.002 2.31 0 0 1.977 1.253 5.355 1.848-2.307.793-2.091.954-1.685 1.173-2.02 1.103-4.315 2.064-6.305 2.16 0 0 1.745 1.108 4.815 1.923-2.017 1.022-4.206 1.848-6.133 1.94 0 0 1.393.881 3.886 1.701-1.176 1.795-3.305 2.535-5.204 2.625 0 0 1.724 1.098 4.799 2.041-2.398 1.208-4.99 2.179-7.274 2.287 0 0 2.157 1.375 5.979 2.446-2.831 1.438-5.907 2.604-8.615 2.733 0 0 2.163 1.378 6.028 2.572-2.427 1.073-4.927 1.86-7.186 1.968 0 0 2.633 1.667 7.282 2.988-1.113.411-2.213.687-3.245.744 0 0 .652.486 1.868 1.124-2.873 1.307-5.857 2.28-8.54 2.408 0 0 2.3 1.466 6.444 2.839-1.83.278-.805 1.042 1.085 1.956-3.605 1.734-7.424 3.08-10.823 3.242 0 0 1.986 1.261 5.602 2.622.449.304 1.467.95 2.98 1.69-3.968 1.879-8.148 3.317-11.876 3.494 0 0 3.969 2.531 10.996 4.484-3.426 2.894-8.502 4.805-12.973 5.017 0 0 3.822 2.438 10.633 4.47-4.864 2.327-10.006 4.124-14.586 4.342 0 0 4.661 2.971 12.927 5.312-5.16 2.504-10.646 4.458-15.519 4.69 0 0 4.91 3.13 13.608 5.569-6.025 2.99-12.498 5.365-18.219 5.637 0 0 5.387 3.433 14.945 6.165a79.62 79.62 0 0 1-6.28 2.71c-5.775 1.99-9.311 2.79-12.619 2.948 0 0 7.488 4.77 20.562 7.845-2.572 1.023-5.119 1.708-7.499 1.84 0 0 .675.503 1.959 1.266-3.715 1.362-7.42 2.287-10.851 2.451 0 0 4.586 2.92 12.796 5.507-.287.022.787.824 2.8 1.906-3.738 1.486-7.506 2.526-10.964 2.69 0 0 6.614 4.214 18.083 6.65-2.575 1.006-5.163 1.708-7.54 1.82 0 0 8.09 5.161 21.448 5.822l-.44 10.96a397.735 397.735 0 0 1-13.437-.446c-37.438-1.88-82.96-13.387-128.826-26.041l-.199-11.095c6.259-.589 13.305-2.243 20.952-5.628 0 0-3.56-.695-8.25-2.225 5.907-1.314 12.191-3.325 18.79-6.245 0 0-4.77-.932-11.145-2.978a77.803 77.803 0 0 0 3.269-1.596c3.044-1.706 7.701-3.4 12.51-5.53 0 0-4.487-.873-10.743-2.783 1.849-.933-1.507-1.699-6.229-3.37 6.695-1.631 13.76-3.98 21.142-7.248 0 0-4.061-.79-9.955-2.504.147-.076-1.092-.359-3.142-.953a139.992 139.992 0 0 1-7.256-2.502c5.241-1.434 10.717-3.348 16.4-5.864 0 0-9.217-1.793-19.677-5.864 4.806-1.283 9.836-3.028 15.065-5.341 0 0-7.19-1.4-15.736-4.552 4.984-1.26 10.226-3.032 15.692-5.451 0 0-7.205-1.405-15.651-4.569a88.461 88.461 0 0 0 11.699-4.243s-7.328-1.427-15.489-4.672c5.275-1.572 9.314-2.971 13.512-4.83 0 0-5.832-1.136-12.73-3.694 1.16-.5 2.34-1.053 3.54-1.676 1.78-.727 3.816-1.514 5.896-2.436 0 0-5.38-1.05-11.655-3.414a47.32 47.32 0 0 0 3.187-1.506c.436-1.19 2.77-2.052 5.174-3.116 0 0-4.121-.804-9.14-2.603 1.91-.93.607-1.226-1.303-1.868a55.725 55.725 0 0 0 7.807-2.794s-3.416-.665-7.66-2.151a52.96 52.96 0 0 0 6.502-2.39s-4.413-.858-9.32-2.813a45.09 45.09 0 0 0 6.685-2.365s-3.164-.615-6.922-2.002a41.012 41.012 0 0 0 6.763-2.324s-3.204-.627-6.877-2.038c2.401-1.02 3.954-1.58 5.56-2.29 0 0-3.15-.613-6.656-2.009a33.692 33.692 0 0 0 5.337-1.854s-3.595-.701-7.194-2.32c.148-1.266 2.28-1.851 4.559-2.86 0 0-3.524-.688-6.625-2.3a20.035 20.035 0 0 0 4.649-1.433s-3.008-.59-5.516-1.975a14.456 14.456 0 0 0 3.539-1.065s-3.72-.725-5.511-2.516c0 0-2.996 2.412-5.166 2.516 0 0 1.111.706 3.018 1.052-1.443.905-3.383 1.91-4.994 1.988 0 0 1.479.941 4.025 1.422-1.79 1.088-4.081 2.22-6.002 2.311 0 0 1.977 1.253 5.355 1.848-2.307.793-2.09.954-1.685 1.173-2.02 1.102-4.317 2.064-6.306 2.16 0 0 1.746 1.107 4.816 1.922-2.017 1.022-4.207 1.848-6.133 1.94 0 0 1.392.882 3.886 1.702-1.177 1.794-3.305 2.535-5.204 2.626 0 0 1.724 1.096 4.799 2.04-2.398 1.208-4.99 2.177-7.274 2.286 0 0 2.157 1.376 5.979 2.446-2.832 1.438-5.907 2.604-8.615 2.732 0 0 2.163 1.38 6.028 2.574-2.427 1.073-4.927 1.86-7.186 1.967 0 0 2.632 1.667 7.282 2.988-1.113.412-2.213.688-3.245.744 0 0 .652.487 1.868 1.125-2.873 1.306-5.857 2.279-8.54 2.408 0 0 2.3 1.466 6.444 2.839-1.83.277-.805 1.041 1.085 1.955-3.605 1.736-7.424 3.08-10.823 3.242 0 0 1.986 1.262 5.602 2.622.449.305 1.466.951 2.98 1.69-3.968 1.879-8.148 3.317-11.876 3.495 0 0 3.968 2.53 10.996 4.483-3.427 2.895-8.502 4.806-12.973 5.018 0 0 3.822 2.437 10.633 4.47-4.864 2.327-10.006 4.123-14.586 4.342 0 0 4.661 2.97 12.927 5.312-5.16 2.504-10.646 4.458-15.519 4.69 0 0 4.91 3.13 13.608 5.567-6.025 2.992-12.498 5.367-18.219 5.639 0 0 5.387 3.433 14.945 6.164a79.255 79.255 0 0 1-6.28 2.711c-5.775 1.99-9.311 2.79-12.619 2.948 0 0 7.488 4.77 20.561 7.844-2.57 1.023-5.118 1.707-7.498 1.841 0 0 .675.503 1.96 1.266-3.715 1.361-7.42 2.288-10.852 2.45 0 0 4.586 2.92 12.796 5.508-.287.022.787.823 2.8 1.906-3.738 1.485-7.507 2.525-10.964 2.69 0 0 6.614 4.214 18.083 6.65-2.574 1.006-5.163 1.708-7.542 1.82 0 0 8.092 5.16 21.45 5.821l-.34 8.445c-48.832-13.59-97.48-27.851-136.628-32.583l-.138-7.764c7.427-.7 15.79-2.663 24.865-6.68 0 0-4.226-.824-9.792-2.64 7.012-1.56 14.47-3.947 22.301-7.414 0 0-5.662-1.105-13.227-3.533a92.362 92.362 0 0 0 3.879-1.893c3.612-2.025 9.14-4.038 14.847-6.564 0 0-5.326-1.035-12.75-3.303.728-.357 1.46-.724 2.196-1.106 0 0-3.983-.91-9.587-2.893 7.945-1.937 16.328-4.724 25.09-8.602 0 0-4.82-.938-11.815-2.973.175-.09-1.296-.425-3.728-1.13a164.831 164.831 0 0 1-8.612-2.97c6.22-1.7 12.718-3.973 19.463-6.958 0 0-10.939-2.129-23.352-6.96 5.704-1.524 11.674-3.594 17.879-6.34 0 0-8.533-1.66-18.674-5.401 5.914-1.496 12.135-3.598 18.622-6.47 0 0-8.55-1.667-18.575-5.422 4.45-1.26 9.085-2.91 13.885-5.034 0 0-8.698-1.695-18.382-5.547 6.26-1.864 11.054-3.525 16.035-5.73 0 0-6.921-1.35-15.107-4.385a64.34 64.34 0 0 0 4.2-1.99c2.115-.861 4.529-1.797 6.998-2.89 0 0-6.386-1.245-13.832-4.053 1.24-.529 2.5-1.12 3.783-1.786.517-1.413 3.286-2.437 6.14-3.7 0 0-4.89-.952-10.847-3.087.747-.34 1.5-.707 2.266-1.103 0 0-1.545-.354-3.813-1.115a66.151 66.151 0 0 0 9.266-3.315s-4.056-.79-9.092-2.555a62.882 62.882 0 0 0 7.717-2.834s-5.237-1.019-11.06-3.34a53.687 53.687 0 0 0 7.933-2.806s-3.755-.731-8.215-2.377a48.66 48.66 0 0 0 8.026-2.758s-3.803-.744-8.162-2.42c2.85-1.207 4.694-1.872 6.598-2.716 0 0-3.738-.728-7.898-2.383a40.005 40.005 0 0 0 6.334-2.202s-4.266-.83-8.539-2.751c.528-.262-.664-.538-2.138-1.148 2.316-.357 4.845-1.05 7.55-2.248 0 0-4.182-.817-7.863-2.73 1.706-.299 3.553-.833 5.517-1.702 0 0-3.57-.698-6.546-2.342 1.294-.21 2.698-.6 4.2-1.265 0 0-4.415-.859-6.54-2.984 0 0-3.556 2.861-6.132 2.984 0 0 1.32.839 3.583 1.249-1.713 1.074-4.015 2.268-5.927 2.358 0 0 1.755 1.118 4.776 1.689-2.124 1.294-4.842 2.635-7.122 2.743 0 0 2.346 1.486 6.355 2.193-.917.506-1.878.892-2.739.94-1.657 1.76-4.383 2.903-6.744 3.014 0 0 2.072 1.316 5.715 2.283-2.394 1.213-4.991 2.193-7.28 2.302 0 0 1.654 1.047 4.613 2.02-1.396 2.13-3.923 3.008-6.176 3.116 0 0 2.046 1.301 5.695 2.422-2.845 1.431-5.92 2.583-8.633 2.713 0 0 2.56 1.631 7.097 2.903-3.361 1.707-7.012 3.09-10.225 3.243 0 0 2.568 1.636 7.154 3.055-2.88 1.273-5.849 2.205-8.529 2.334 0 0 3.125 1.979 8.643 3.546-1.321.489-2.626.815-3.851.884 0 0 .774.575 2.217 1.334-3.41 1.55-6.952 2.704-10.136 2.856 0 0 2.73 1.74 7.65 3.37-2.173.33-.956 1.237 1.286 2.322-4.279 2.059-8.811 3.655-12.845 3.847 0 0 2.356 1.497 6.649 3.112.533.36 1.74 1.129 3.537 2.005-4.71 2.23-9.67 3.936-14.096 4.147 0 0 4.71 3.003 13.05 5.322-4.066 3.435-10.088 5.702-15.396 5.956 0 0 4.537 2.891 12.62 5.303-5.773 2.76-11.876 4.895-17.311 5.153 0 0 5.531 3.526 15.341 6.305-6.123 2.971-12.634 5.29-18.416 5.565 0 0 5.825 3.716 16.149 6.609-7.15 3.55-14.833 6.369-21.623 6.692 0 0 6.394 4.074 17.738 7.316a95.025 95.025 0 0 1-7.455 3.217c-3.334.435-3.088.619-2.613.937-4.24 1.425-8.436 2.374-12.361 2.561 0 0 8.886 5.661 24.402 9.309-3.052 1.216-6.076 2.027-8.9 2.186 0 0 .801.595 2.325 1.501-4.408 1.616-8.805 2.715-12.878 2.908 0 0 5.443 3.467 15.186 6.538-.34.026.935.976 3.324 2.261-4.437 1.763-8.91 2.996-13.011 3.19 0 0 7.848 5.004 21.459 7.895-3.055 1.194-6.127 2.026-8.95 2.16 0 0 9.602 6.123 25.457 6.909l-.262 6.504c-19.015-1.496-35.363-.3-47.79 4.967-18.734 7.94-38.275 9.8-56.517 8.486l-.214-11.99c8.293-.782 17.63-2.972 27.762-7.457 0 0-4.717-.92-10.932-2.948 7.829-1.742 16.155-4.407 24.9-8.277 0 0-6.322-1.234-14.768-3.945 1.43-.66 2.871-1.357 4.331-2.114 4.032-2.261 10.205-4.508 16.576-7.327 0 0-5.946-1.158-14.235-3.689.813-.398 1.63-.81 2.451-1.236 0 0-4.447-1.015-10.704-3.23 8.87-2.16 18.231-5.274 28.013-9.603 0 0-5.38-1.046-13.191-3.32.195-.1-1.446-.473-4.163-1.261a182.91 182.91 0 0 1-9.615-3.317c6.946-1.897 14.2-4.435 21.732-7.768 0 0-12.214-2.376-26.074-7.77 6.368-1.702 13.034-4.013 19.963-7.08 0 0-9.529-1.853-20.852-6.03 6.605-1.67 13.55-4.016 20.794-7.222 0 0-9.548-1.863-20.74-6.055 4.969-1.407 10.144-3.25 15.502-5.622 0 0-9.71-1.892-20.524-6.19 6.99-2.084 12.343-3.938 17.904-6.4 0 0-7.728-1.505-16.867-4.896 1.538-.661 3.1-1.396 4.69-2.22 2.361-.964 5.055-2.008 7.813-3.229 0 0-7.13-1.389-15.442-4.523a62.817 62.817 0 0 0 4.222-1.995c.576-1.577 3.669-2.721 6.855-4.13 0 0-5.46-1.065-12.11-3.448a56 56 0 0 0 2.53-1.232s-1.725-.394-4.257-1.244c3.309-.91 6.76-2.116 10.345-3.703 0 0-4.527-.881-10.15-2.85a70.307 70.307 0 0 0 8.616-3.165s-5.849-1.139-12.35-3.73a59.788 59.788 0 0 0 8.857-3.133s-4.192-.815-9.17-2.653a54.172 54.172 0 0 0 8.96-3.08s-4.247-.83-9.114-2.701c3.184-1.35 5.24-2.091 7.367-3.033 0 0-4.173-.812-8.818-2.661a44.623 44.623 0 0 0 7.073-2.458s-4.765-.929-9.534-3.072c.589-.292-.743-.6-2.39-1.28 2.588-.4 5.41-1.175 8.431-2.511 0 0-4.67-.912-8.778-3.048 1.904-.334 3.967-.93 6.16-1.9 0 0-3.986-.781-7.31-2.616a19.099 19.099 0 0 0 4.69-1.413s-4.929-.958-7.302-3.33c0 0-3.97 3.194-6.846 3.33 0 0 1.474.938 4 1.396-1.912 1.198-4.484 2.53-6.618 2.632 0 0 1.96 1.25 5.334 1.887-2.372 1.443-5.407 2.941-7.953 3.062 0 0 2.619 1.66 7.095 2.449-1.023.563-2.095.995-3.057 1.05-1.851 1.963-4.895 3.238-7.53 3.364 0 0 2.313 1.469 6.381 2.549-2.674 1.353-5.574 2.449-8.127 2.57 0 0 1.845 1.17 5.15 2.255-1.56 2.379-4.381 3.359-6.897 3.478 0 0 2.284 1.453 6.36 2.705-3.177 1.6-6.612 2.885-9.64 3.03 0 0 2.859 1.821 7.923 3.24-3.752 1.906-7.829 3.452-11.415 3.622 0 0 2.866 1.826 7.988 3.41-3.216 1.421-6.53 2.464-9.523 2.605 0 0 3.49 2.21 9.65 3.96-1.476.546-2.932.911-4.3.987 0 0 .864.643 2.475 1.49-3.807 1.73-7.762 3.02-11.317 3.19 0 0 3.05 1.943 8.54 3.761-2.425.37-1.066 1.381 1.437 2.592-4.777 2.3-9.837 4.082-14.341 4.295 0 0 2.63 1.673 7.424 3.476.594.403 1.942 1.26 3.948 2.238-5.258 2.49-10.796 4.395-15.737 4.63 0 0 5.259 3.353 14.571 5.942-4.54 3.835-11.265 6.367-17.19 6.65 0 0 5.064 3.228 14.089 5.921-6.446 3.084-13.259 5.465-19.327 5.755 0 0 6.176 3.935 17.129 7.038-6.837 3.317-14.106 5.908-20.564 6.215 0 0 6.505 4.147 18.032 7.377-7.983 3.964-16.562 7.11-24.143 7.472 0 0 7.14 4.548 19.805 8.168a105.859 105.859 0 0 1-8.324 3.592 26.99 26.99 0 0 1-3.722.487c-3.929 2.15-8.614 3.21-12.996 3.419 0 0 9.92 6.32 27.244 10.394-3.407 1.356-6.782 2.263-9.935 2.44 0 0 .893.665 2.595 1.676-4.921 1.804-9.83 3.03-14.379 3.248 0 0 6.078 3.87 16.956 7.298-.38.03 1.044 1.091 3.711 2.526-4.955 1.967-9.947 3.344-14.528 3.562 0 0 8.764 5.584 23.96 8.814-3.411 1.332-6.84 2.261-9.992 2.411 0 0 10.721 6.837 28.422 7.714l-.42 10.46C14.859 294.865-15 277.297-15 277.297v169.967h1296.947L1284 239.145s-51.044-8.324-122.463-15.126l-.076-4.256z"/>
    </g>
</svg>
