<svg xmlns="http://www.w3.org/2000/svg" xmlns:xlink="http://www.w3.org/1999/xlink" width="72" height="68" viewBox="0 0 72 68">
    <defs>
        <rect id="b" width="574" height="113" rx="8"/>
        <filter id="a" width="110.5%" height="153.1%" x="-5.2%" y="-15.9%" filterUnits="objectBoundingBox">
            <feOffset dy="12" in="SourceAlpha" result="shadowOffsetOuter1"/>
            <feGaussianBlur in="shadowOffsetOuter1" result="shadowBlurOuter1" stdDeviation="8"/>
            <feColorMatrix in="shadowBlurOuter1" values="0 0 0 0 0 0 0 0 0 0 0 0 0 0 0 0 0 0 0.1 0"/>
        </filter>
        <filter id="c" width="333.3%" height="354.5%" x="-116.7%" y="-90.9%" filterUnits="objectBoundingBox">
            <feOffset dy="20" in="SourceAlpha" result="shadowOffsetOuter1"/>
            <feGaussianBlur in="shadowOffsetOuter1" result="shadowBlurOuter1" stdDeviation="20"/>
            <feColorMatrix in="shadowBlurOuter1" result="shadowMatrixOuter1" values="0 0 0 0 0.0716015935 0 0 0 0 0.335496114 0 0 0 0 0.380155187 0 0 0 0.2 0"/>
            <feMerge>
                <feMergeNode in="shadowMatrixOuter1"/>
                <feMergeNode in="SourceGraphic"/>
            </feMerge>
        </filter>
        <linearGradient id="d" x1="100%" x2="5.664%" y1="33.584%" y2="62.486%">
            <stop offset="0%" stop-color="#2BC959"/>
            <stop offset="100%" stop-color="#10744D"/>
        </linearGradient>
        <linearGradient id="e" x1="35.445%" x2="85.853%" y1="97.005%" y2="28.144%">
            <stop offset="0%" stop-color="#2BC959"/>
            <stop offset="100%" stop-color="#10744D"/>
        </linearGradient>
        <linearGradient id="f" x1="0%" x2="52.376%" y1="2.957%" y2="72.415%">
            <stop offset="0%" stop-color="#2BC959"/>
            <stop offset="100%" stop-color="#10744D"/>
        </linearGradient>
        <linearGradient id="g" x1="17.027%" y1="40.641%" y2="30.592%">
            <stop offset="0%" stop-color="#ADF101"/>
            <stop offset="100%" stop-color="#0FAB02"/>
        </linearGradient>
        <linearGradient id="h" x1="100%" x2="0%" y1="85.197%" y2="37.21%">
            <stop offset="0%" stop-color="#ADF101"/>
            <stop offset="100%" stop-color="#0FAB02"/>
        </linearGradient>
        <linearGradient id="i" x1="67.694%" x2="75.077%" y1="9.917%" y2="91.998%">
            <stop offset="0%" stop-color="#ADF101"/>
            <stop offset="100%" stop-color="#0FAB02"/>
        </linearGradient>
    </defs>
    <g fill="none" fill-rule="evenodd">
        <g transform="translate(-18 -24)">
            <use fill="#000" filter="url(#a)" xlink:href="#b"/>
            <use fill="#FFF" xlink:href="#b"/>
        </g>
        <g filter="url(#c)" transform="translate(6 7)">
            <path fill="url(#d)" d="M23.567 9.654c-1.879-1.393-3.59-2.157-4.911-2.157-2.95 0-5.7 1.157-7.743 3.257-2.044 2.1-3.17 4.928-3.17 7.958 0 3.002 1.098 5.822 3.093 7.946l.7.677-5.376 5.273-.494-.478c-3.45-3.544-5.35-8.274-5.35-13.317 0-5.042 1.9-9.771 5.35-13.316C9.115 1.952 13.705 0 18.589 0c2.958 0 6.043 1.217 9.355 3.701L29.24 1.94c.25-.342.778-.201.836.223l1.126 8.317a.479.479 0 0 1-.4.542l-8.091 1.157c-.414.06-.69-.424-.438-.765l1.294-1.76z"/>
            <path fill="url(#e)" d="M50.3 36.28l1.495 1.541c.295.303.085.82-.332.82l-8.17-.01a.474.474 0 0 1-.467-.481l.01-8.398c0-.428.505-.642.799-.34l1.405 1.449 4.412-4.203c1.994-2.124 3.093-4.944 3.093-7.946 0-3.018-1.109-5.85-3.123-7.978-1.69-1.736-3.863-2.36-6.402-2.626-2.337-.244-6.606.717-8.17 1.472L33.62 2.833C35.66 2.116 39.385.611 43.02.611c4.524 0 8.536 1.666 11.603 4.819 3.406 3.5 5.283 8.218 5.283 13.282 0 5.08-1.872 9.84-5.269 13.403l-.058.058-4.278 4.108z"/>
            <path fill="url(#f)" d="M13.371 39.591l-1.506 1.701c-.28.317-.793.128-.813-.3l-.386-8.388a.476.476 0 0 1 .445-.503l8.16-.397c.417-.02.65.487.369.804l-1.493 1.687L30.145 45.3l7.97-7.696 5.105 5.567-10.343 10.014-.048.041c-.761.652-1.74 1.026-2.684 1.026-.974 0-1.903-.355-2.687-1.027l-.046-.04L13.37 39.591z"/>
            <path fill="url(#g)" d="M43.507 42.894l-5.392-5.289-7.97 7.696s-3.674 3.97-8.735 2.074l5.651 5.473s3.119 3.584 6.848-.66l9.598-9.294z"/>
            <path fill="url(#h)" d="M33.621 2.833S38.045.466 43.526.606C49.48.76 56.63 3.798 59.382 14.161c0 0-12.257-9.804-24.533-4.582l-1.228-6.746z"/>
            <path fill="url(#i)" d="M6.16 32.608S-7.007 20.154 5.478 5.67c.92 3.422 1.506 5.997 2.379 14.485.095 1.987 1.343 5.072 3.68 7.18L6.16 32.609z"/>
        </g>
    </g>
</svg>
