<svg xmlns="http://www.w3.org/2000/svg" width="48" height="53" viewBox="0 0 48 53">
    <defs>
        <filter id="a" width="152.8%" height="146.3%" x="-26.4%" y="-20.7%" filterUnits="objectBoundingBox">
            <feOffset dy="1" in="SourceAlpha" result="shadowOffsetOuter1"/>
            <feGaussianBlur in="shadowOffsetOuter1" result="shadowBlurOuter1" stdDeviation="3"/>
            <feColorMatrix in="shadowBlurOuter1" result="shadowMatrixOuter1" values="0 0 0 0 0 0 0 0 0 0 0 0 0 0 0 0 0 0 0.15 0"/>
            <feMerge>
                <feMergeNode in="shadowMatrixOuter1"/>
                <feMergeNode in="SourceGraphic"/>
            </feMerge>
        </filter>
        <linearGradient id="b" x1="0%" x2="95.191%" y1="0%" y2="100%">
            <stop offset="0%" stop-color="#52EA02"/>
            <stop offset="100%" stop-color="#0FAB02"/>
        </linearGradient>
    </defs>
    <g fill="none" fill-rule="evenodd" filter="url(#a)" transform="translate(6 5)">
        <path fill="url(#b)" d="M25.354 7.183a10.94 10.94 0 0 1 3.071 3.143 9.802 9.802 0 0 1 1.489 4.076c.2 1.529.05 3.074-.453 4.637-.628 1.914-1.639 3.906-3.033 5.98-1.821 2.728-4.033 5.361-6.633 7.898-.615.588-1.212.883-1.79.883-.565 0-1.155-.295-1.77-.883-1.935-1.915-3.575-3.743-4.919-5.487-1.583-2.05-2.876-4.099-3.882-6.149-.992-2.095-1.47-4.048-1.432-5.86.05-2.605 1.068-4.909 3.053-6.914 1.357-1.358 2.92-2.332 4.692-2.921a4.08 4.08 0 0 1 .452-.153c2.386-.577 4.906-.577 7.556 0a12.24 12.24 0 0 1 3.599 1.75"/>
        <path fill="#FFF" d="M12.116 12.355l.044-.046A4.314 4.314 0 0 1 15.26 11c.71 0 1.45.29 2.246.881l.31-.42a.112.112 0 0 1 .201.054l.27 1.98a.114.114 0 0 1-.095.13l-1.942.276c-.1.014-.166-.102-.105-.183l.31-.419c-.45-.332-.862-.514-1.179-.514-.708 0-1.367.276-1.858.776a2.686 2.686 0 0 0-.759 1.998 74.616 74.616 0 0 1 .04.38c.021.128.052.254.091.377.12.358.34.754.657 1.078l.12.116-1.29 1.256-.01-.01-.108-.104a4.46 4.46 0 0 1-.996-1.563c-.396-.954-.576-2.242.197-3.667.183-.362.416-.7.695-1.004l.059-.068v.005zM24.699 13.4c.313.625.478 1.325.478 2.056 0 1.21-.449 2.344-1.264 3.192l-.014.014-1.027.978.359.367c.07.072.02.196-.08.196l-1.96-.003a.113.113 0 0 1-.113-.114l.003-2c0-.102.12-.153.191-.081l.338.345 1.059-1.001a2.736 2.736 0 0 0 .742-1.893c0-.718-.266-1.393-.75-1.9-.405-.413-.927-.562-1.536-.625-.47-.049-1.262.103-1.729.26a4.623 4.623 0 0 0-.232.09l-.295-1.606a5.323 5.323 0 0 1 2.377-.53c1.22.03 2.65.563 3.453 2.255zm-8.76 8.883l-1.93-1.854-.361.405a.112.112 0 0 1-.196-.072l-.092-1.997a.114.114 0 0 1 .107-.12l1.958-.094c.1-.005.156.115.089.19l-.359.403 2.88 2.645 1.88-1.802.033-.031 1.294 1.26-2.304 2.213a1.968 1.968 0 0 1-.246.236l-.001.002-.012.01c-.117.099-.256.171-.4.21a.883.883 0 0 1-.507-.003 1.024 1.024 0 0 1-.382-.208l-.011-.01-.007-.006c-.05-.043-.077-.074-.077-.074l-1.357-1.303z"/>
    </g>
</svg>
