<svg xmlns="http://www.w3.org/2000/svg" xmlns:xlink="http://www.w3.org/1999/xlink" width="450" height="450" viewBox="0 0 450 450">
    <defs>
        <path id="b" d="M33.251 157.406l.131-.494a22.37 22.37 0 0 0-.401.312l.27.182zM7.45 154.772a.537.537 0 0 1-.172-.406c-.03-.749.538-1.307 1.033-1.778.745-.714.978-1.012.428-1.69-.43-.578-.931-1.169-1.413-1.746-.849-1.029-1.731-2.074-2.404-3.173-.45-.54-.57-1.186-.689-1.796-2.82-3.139-2.524-3.802-2.285-4.342.012-.976-.286-1.36-.603-1.743-.448-.575-.931-1.152-1.168-1.884-.156-.523-.324-1.254.055-1.85.38-.61 1.121-.713 1.814-.817.031-4.604 1.995-6.924 3.934-7.9.86-4.604 1.166-6.347 1.405-6.854.297-.679.671-1.08 1.008-1.428.373-.384.675-.697.853-1.483.258-1.777.432-3.05.96-3.994.237-.434.658-.731 1.028-.994 1.281-1.987 1.713-2.04 2.11-2.091.484-.053.83-.106 1.306-.454.475-.33.864-.68 1.271-1.062.495-.454.992-.926 1.605-1.292 2.475-1.551 7.227-3.277 10.553-3.365 2.217.11 2.647.028 3.039-.262.814-1.307 1.195-2.005 2.168-2.266 2.295-.111 3.872.194 4.78.889 2.736.088 2.91-1.221 3.003-2.546.5-2.424.85-4.412 1.3-6.243.275-1.08.478-2.215.666-3.313.246-1.36.495-2.754.896-4.114 1.264-4.394 2.442-8.7 2.632-12.835.05-1.76-.047-1.917-1.067-2.982-.82-.855-1.367-1.551-1.453-2.18-.065-.68.324-1.097.54-1.341.143-.464.06-.963-.166-1.45l-3.97-2.683c.388.123.81.338 1.223.618l2.574 1.74c-.643-1.072-1.92-2.031-2.935-2.358-1.039-.943-1.086-1.745-1.13-2.547-.046-2.023-.1-4.271.256-5.824.467-1.847 2.128-2.162 3.465-2.44 1.768-.43 2.242-.566 2.782-.566 1.12.165 1.477.39 1.763.583l.05-.01-5.434-3.674c.368.249.975.377 2.424.34-1.077-.035-1.477-.218-1.767-.51-.685-.679-.673-1.708-.658-2.808.014-.487.012-1.011-.04-1.551-.216-2.651.958-3.365 2.93-4.22.634-.302 1.037-.44 1.462-.44 3.33.976 3.877.907 4.33.858 1.432-.086 2.14-.123 2.864-.156a31.159 31.159 0 0 1 2.19-.088c1.46.12 2.17.19 2.738.19 1.135-1.916 1.247-2.718 1.922-2.875.757-.017 1.191.625 1.402.96.97 1.267 1.693 1.054 2.043.801.458-.332.867-.82 1.295-1.324.607-.716 1.248-1.466 2.16-1.97 1.123.451 1.419.923 1.698 1.395l.283.389 12.095 8.175a2.372 2.372 0 0 1 .509.458c.143.168.252.339.352.507.196.274.356.49.5.68.028.034.054.071.079.103.065.085.126.163.184.235l.074-.033c.195-.078 1.6-.434 2.616-.434 1.023.408 1.346.928 1.418 1.428l.577.39c.084-.153.164-.333.288-.513.45-.654.96-.78 1.362-.78 1.398-1.103 1.48-1.574 1.87-1.958.548-.471 1.205-.504 1.773-.524 2.12-1.237 2.565-1.708 3.672-1.882.935-.157.935-.157 1.446-.54 1.039-.802 1.596-1.012 2.101-1.186.836-.297 1.235-.436 1.303-1.587-.205-1.22-.383-2.18.566-2.86.526-.313 1.197-.297 1.835-.313.56-.201 1.06-.39 1.504-.567l-5.286-3.574c.72.487 1.614.254 2.033.373.7.192.97.384 5.891.576l.833.563a.716.716 0 0 0 .028-.562c-4.921-.192-5.191-.386-5.891-.575-.427-.124-1.346.121-2.074-.401-.685-.717-.585-1.71-.509-2.583.06-1.534-.006-2.178-.072-2.806-1.063-2.005-.78-2.878-.648-3.226.26-.646.667-.994 1.02-1.291 1.118-1.744.938-2.092.578-2.702-.246-.437-.557-.977-.673-1.726-2.377-1.796-3.645-2.563-3.94-3.627-.174-.56-.02-1.117.39-1.587.35-.468 1.347-.622 2.388-.622 1.254 0 2.571.223 2.906.395.717.376.982.896 1.142 1.333l1.367.923c1.108.06 1.867.443 2.535.779.61.295 1.19.575 2.03.645 2.28-.049 3.059.037 3.64.419.515.308.743.8.92 1.198l.02.014c2.823-1.53 2.663-2.452 3.612-3.167 1.059-.82 3.438-.94 5.833-.94 1.262.12 1.892.189 2.375.189 1.223-1.935 1.777-2.003 2.242-2.056 2.178-1.97 2.643-2.004 3.058-2.04 4.625-1.517 4.827-1.936 5.338-2.302.209-.716.878-1.15 1.387-1.498.808-.525.95-.699.857-1.065-1.202-1.256-1.988-2.109-1.605-2.843 3.632.388 4.264.308 4.66.263 3.462.035 3.48.645 3.501 1.044.131.174.247.32.35.45L159.29 11.1l.075.057c.027.025.052.049.072.072a.58.58 0 0 1 .074.106c.008.016.01.03.051.145.016.066.018.129.022.188.152.201.281.363.395.508.049.06.1.135.14.188.089.12.169.24.237.354.018.031.047.063.085.149.08.156.15.325.21.546.042.22.062.47.058.74-.002.2-.02.408-.053.614-.004.025-.012.05-.043.197-.018.088-.031.176-.055.26a3.456 3.456 0 0 1-.153.42c-.027.062-.052.124-.086.183-.037.072-.08.143-.123.207a1.62 1.62 0 0 1-.143.184c.145.178.282.331.417.482.098.107.192.207.286.303.074.074.146.153.217.221.103.102.203.198.3.29.105.097.207.195.304.29l.24.228c.073.072.142.149.212.221.05.053.102.104.167.18.195.223.37.476.532.763.015.03.037.047.084.149.113.221.22.46.315.745.096.376.186.681.284.97.03.095.066.179.1.267.074.195.154.383.246.565.06.122.123.245.196.368.037.063.072.123.113.188.13.207.274.42.452.66.176.15.317.283.487.46.047.054.08.11.118.165.025.038.056.075.097.137.055.106.096.22.135.478.016.115.032.227.018.499-.014.08-.031.16-.05.234a3.024 3.024 0 0 1-.073.214c-.02.045-.041.086-.1.213a2.425 2.425 0 0 1-.139.227 3.83 3.83 0 0 1-.213.276c-.141.162-.298.309-.462.45-.166.143-.334.272-.495.395-.32.282-.587.55-.824.826a5.85 5.85 0 0 0-.495.659c-.049.074-.09.147-.133.221a6.13 6.13 0 0 0-.217.395c-.139.278-.262.55-.38.828-.193.47-.4.964-.653 1.442-.039.072-.078.143-.12.215a3.293 3.293 0 0 0-.376 1.039l-.03.205a9.18 9.18 0 0 0-.063.709c-.043.51-.086 1.042-.123 1.573l-.014.205c-.033.515-.056 1.02-.068 1.509l-.006.268c-.004.387 0 .763.031 1.232a7.083 7.083 0 0 0 .15 1.043c.038.16.087.297.14.427.033.076.058.166.098.229.268.39.461.714.657 1.06.047.09.065.15.102.23a5.66 5.66 0 0 1 .22.5c.812-.71 1.523-.717 2.127-.717.518 0 1 0 1.418-.176 1.654-1.556 2.123-1.624 2.58-1.624 4.258-1.931 4.765-2.14 5.96-2.403.44-.068.863-.094 1.27-.094.536 0 1.047.043 1.556.094.518.04.996.08 1.489.08a57.793 57.793 0 0 1 1.99-.049c1.14 0 2.289.08 3.623.37.835.233 1.506.329 2.007.329-.485-3.555-.624-4.113.188-4.776.897-.91 1.49-1.376 1.9-1.585a.704.704 0 0 0-.065-.05l.07.047c.569-.288.787-.08.98.123 1.592.59 2.447.119 3.212-.278.63-.349 1.224-.664 1.78-.82.252-.063 1.765-.468 3.344-.468 1.025 0 2.078.17 2.833.713.424.312.733.716.906 1.191l2.36 1.595c2.619.926 3.041.854 3.435.735.366-.121.7-.418 1.072-.731.405-.35.83-.717 1.334-.855 1.106-.102 1.573.105 2.006.297 4.065.575 4.099 1.186 4.124 1.481 1.002.198 3.363-.562 4.128-.959.623-1.256.722-1.708.961-2.25.276-.575.673-1.203 1.053-1.796.94-1.604 1.234-2.162 1.526-2.737 1.078-2.076 2.115-4.028 3.549-5.946.377-.489.835-.855 1.278-1.22.405-.331.774-.629 1.062-1.012.851-1.448 1.105-1.918 1.499-2.407.36-.54.808-1.133 1.258-1.743.538-.732 1.127-1.5 1.58-2.25 2.05.593 2.491.785 2.826 1.168.4.455.71.837.948 1.162l11.996 8.11a1.443 1.443 0 0 1 .307.278c.204.23.38.44.538.635.055.064.098.123.147.186.1.125.194.25.276.364.047.062.088.123.13.184a5.4 5.4 0 0 1 .18.277c.032.055.066.108.167.302.11.215.182.4.233.64.018.1.028.193.03.336-.004.08-.01.157-.016.23-.018.199-.03.39-.04.74 0 .126.01.241.044.48.008.031.02.055.102.233l.551.371c.07.05.133.096.19.143.06.053.114.102.168.168.055.065.1.128.157.257.016.035.027.07.074.276.014.094.022.195.024.454a24.572 24.572 0 0 1-.294 2.353 49.07 49.07 0 0 0-.19 1.499c-.017.15-.019.301-.03.454-.036.401-.065.804-.06 1.207l.466.317a2.22 2.22 0 0 1 .61.581c.038.049.067.094.098.143.036.055.085.108.114.164.049.092.068.188.102.284.031.088.072.172.094.26.005.03.023.057.045.282.035.243.054.471.052.696-.002.024.006.053 0 .286-.005.16.004.3.006.448.002.139.01.276.028.403.033.213.082.417.2.597.252.217.473.403.668.575.059.051.102.098.153.145.131.12.26.239.397.385.06.069.1.145.153.216.055.076.117.15.182.26.082.152.146.32.215.597.041.193.055.393.041.698-.004.086-.016.168-.023.256-.012.096-.014.194-.03.288-.015.111-.037.223-.057.329.72.994 1.235 1.674 1.634 2.189l4.99 3.371c.138.094.26.186.371.28.1.084.18.17.358.35.162.184.297.378.487.71.033.06.055.133.086.2.084.174.165.352.235.542.04.103.07.21.106.317.056.18.107.364.152.551.016.061.038.118.059.267.114.561.172 1.13.17 1.82-.008.293-.03.578-.072.852-.031.198-.073.39-.182.746-.024.07-.045.144-.07.21a3.968 3.968 0 0 1-.347.654 3.168 3.168 0 0 1-.233.302c-.033.037-.072.066-.105.103-.037.04-.075.075-.114.112-.06.059-.115.123-.182.178-.064.057-.148.094-.217.147-.229.176-.47.34-.726.487-.105.059-.203.121-.31.178-.341.18-.686.346-1.02.499-.61.28-1.15.542-1.59.837l-.213.152c2.575.143 2.981.385 3.346.606 1.882 1.03 2.325 1.239 2.76 1.64.459.406.704.75.795 1.076l3.739 2.527c.356-.254.724-.47 1.063-.604.45-.215.864-.293 1.254-.293.593 0 1.129.184 1.655.364 1.246.33 1.796.365 2.381.399.481.035.93.052 1.409.123 2.45.043 3.218.137 3.893.558 3.731 1.43 4.168 1.796 4.606 2.144 1.774 1.135 2.25 1.412 2.487 2.111 1.371-.024 2.318.194 3.14.401 2.485.487 4.369.837 5.394 1.708 4.214 1.937 4.66 2.546 5.108 3.156.43.408.767.72 1.037.973l11.05 7.471c.067.045.128.087.186.13.177-.044.348-.088.52-.134.59-.139 1.18-.297 1.803-.418.612-.131 1.106-.204 1.538-.204.95 0 1.614.352 2.618 1.215 1.209 1.098 3.267 1.395 4.776 1.622 2.678-.015 3.193-.047 3.686-.047 1.091 0 2.083.159 2.715.832.225.233.37.515.46.83l.6.406c1.36.202 3.085.646 4.064 1.413 1.043-.806 1.487-1.113 2.12-1.113.389 0 .849.115 1.502.346 8.81-.87 9.577-.61 10.327-.33.461.156.939.33 1.38.488 1.466.523 2.732 1.429 3.947 2.284.912.645 1.773 1.273 2.706 1.727 3.04 1.414 5.276 2.713 7.56 5.133l9.968 6.738c.552.372 1.086.773 1.61 1.215.028.025.057.053.084.076.045.04.092.084.137.123.535.466 1.065.97 1.595 1.544.39.407.786.757 1.197 1.098.472.39.959.76 1.493 1.152.14.121.268.237.387.35 1.388.19 1.897.24 2.417.24 2.53-.087 3.094-.048 3.643-.005.55.033 1.117.068 1.695.068 3.793.141 4.16.593 4.51.994.778.647 1.324 1.188 1.706 1.65 7.54 5.106 11.426 7.769 11.659 7.988.195.165.35.311.782.7.245.236.458.453.644.664.172.196.315.38.54.718.055.088.12.178.415.933.008.034.004.059.023.959-.021.245-.035.48.075 1.622.254.417.45.761.74 1.3.163.312.298.588.424.903.08.205.137.38.195 1.354l-.084 2.336c.843.573 1.284.875 1.323.908.066.057.13.117.561.874.016.05.043.1.08 1.06.087.24.17.455.572 1.376.043.09.086.182.477.961.022.043.041.088.307.818.012.045.026.086.112 1.213-.012.074-.027.143-.356.84-.028.036-.053.074-.024.999.006.07.01.149.108.95.012.08.023.151.102.934a201.938 201.938 0 0 1-.636 4.009c-.07.427-.143.837-.27 1.571-.084.476-.166.93-.3 1.624-.066.337-.129.655-.256 1.27-.074.352-.149.683-.229 1.013-.05.204-.1.395-.399 1.29-.262.495-.483.915-.878 1.676-.169.325-.317.623-.57 1.143-.15.325-.281.626-.399.921-.13.33-.239.652-.377 1.108-.325.54-.583 1.006-.93 1.677-.154.303-.29.583-.4.837-.04.088-.081.18-.355.882-.031.085-.067.175-.32.963-.132.419-.263.812-.48 1.413-.057.139-.114.274-.599 1.044-.06.083-.123.163-.52.615-.133.145-.27.287-.763.753-.159.145-.32.288-.613.546-.103.09-.21.178-.737.632-.347.3-.671.587-.94.872-.21.21-.381.445-.541.691-.186.286-.355.587-.52.896-.081.159-.163.323-.553.996-.052.086-.096.17-.583.73-.154.13-.31.229-1.015.577-.215.436-.378.81-.517 1.143-.129.31-.244.583-.354.821-.021.047-.047.102-.47.787-.064.072-.132.143-.596.473-.405.28-.976.366-1.493.454-.174.204-.34.395-.708.812a57.736 57.736 0 0 1-1.319 1.463c-.094.1-.192.206-.61.633-.067.066-.14.14-.601.565-.155.131-.28.225-.757.52-.254.177-.466.341-1.102.912-.082.082-.154.16-.669.746a74.074 74.074 0 0 1-1.618 1.894c-.23.258-.46.512-1.088 1.156a16.79 16.79 0 0 1-.616.583c-.074.066-.149.149-.66.57-.08.23-.164.455-.526 1.261-.094.208-.185.417-.637 1.245-.206.36-.415.712-.992 1.569-.372.528-.748 1.04-1.125 1.54a80.662 80.662 0 0 0-2.096 2.878c-.24.358-.452.722-.665 1.087-.147.249-.301.493-.603 1.112a10.51 10.51 0 0 0-.6 1.479c-.075.254-.143.483-.511 1.51-.03.069-.06.14-.462.77-.011.015-.027.027-.593.484-.046.03-.091.063-.678.356-1.523.838-2.223 1.257-2.914 1.325-.405.033-.757.078-1.36.194-.191.04-.381.08-.804.225-.125.047-.252.092-.808.428-.088.069-.174.141-.641.877-.043.105-.08.211-.405 1.076-.014.043-.026.08-.243.986-.025.19-.041.372-.13 1.389-.02.139-.05.28-.257 1.015-.02.044-.043.087-.42.855.097.411.179.785.31 1.403.078.372.145.714.23 1.207.058.34.103.652.136.945.008.069.016.137.086 1.053.012.276.012.554.002 1.217-.01.37-.05.732-.127 1.188-.07.428-.16.849-.255 1.27-.101.444-.195.882-.281 1.543-.051.417-.082.832-.041 1.246.047.315.086.58.135.94.023.166.045.326.11 1.293a223.96 223.96 0 0 0-.046 1.622c-.004.166-.008.325-.02 1.21-.005.512-.001.987.028 2.02.03.597.072 1.174.155 1.74.037.38.068.725.09 1.05.005.102.005.198.015.957-.002.096-.013.195-.16 1.119-.045.156-.098.317-.354.902-.167.319-.304.585-.43.84-.044.085-.081.162-.36.772-.034.08-.07.162-.337.968-.084.523-.12 1.098-.155 1.709a15.335 15.335 0 0 1-.225 2.156c-.027.129-.049.258-.354 1.174-.237.448-.387.741-.64 1.273-.053.133-.086.247-.219 1.207a19.44 19.44 0 0 1-.19 1.008c-.053.297-.103.595-.191 1.143-.065.418-.116.827-.087 1.874.159.319.292.587.405.831.038.079.065.155.34 1.069.003.021.009.047-.298.853-.004.004-.008.008-.605.354-.055.02-.102.039-.644.154-.326.165-.59.37-1.054.818-.18.188-.356.378-.519.576-.156.19-.31.375-.872.993-.255.265-.476.517-1.004 1.17-.143.19-.286.38-.493.72-.153.268-.28.54-.39.88-.091.306-.144.617.036 1.255.076.15.143.317.244 1.158-.002.157-.015.323-.22 1.36-.034.106-.067.2-.32.851-.037.094-.07.18-.328.988-.026.133-.038.272.047 1.035.154.49.285.918.614 2.137.021.098.016.186.106.947.004.1.035.205-.024.927-.027.162-.062.327-.385 1.256-.137.33-.29.65-.542 1.102-.163.297-.34.58-.752 1.22-.528.77-1.107 1.49-1.68 2.194a39.12 39.12 0 0 0-1.11 1.393 18.97 18.97 0 0 0-.588.796c-.157.227-.292.468-.695 1.137-.21.391-.395.796-.548 1.225-.078.463-.145.866-.274 1.516-.045.229-.09.462-.295 1.111-.033.084-.073.16-.53.842-2.346 2.459-2.796 3.105-3.722 3.895-.188.162-.368.288-.792.6-.258.175-.513.327-.787 1.288-.007.037-.013.076-.377.834-.059.086-.125.17-.536.588a4.496 4.496 0 0 1-.73.503c-.082.356-.137.652-.182.92-.012.074-.024.15-.112 1.095-.002.22.012.392.12 1.102.015.078.033.174.139 1.015.013.145.025.294.056 1.096 0 .031.002.067-.115.994-.035.123-.072.235-.46.859-.05.043-.117.07-.694.278-1.147.33-1.624.731-2.117 1.15-.619.525-1.272 1.082-2.108 1.327-.37.244-.663.454-1.093.769-.233.176-.435.334-.941.786-.034.031-.063.063-.577.64-.194.227-.36.426-.955 1.225-.086.139-.163.27-.384.939-.02.34-.043.63-.09 1.043-.017.119-.04.234-.325.898-.007.011-.02.023-.538.536-.142.123-.324.205-.82.497-.181.078-.387.123-.991.303-.264.057-.544.086-1.086.153-.368.029-.742.04-1.104.04-.663 0-1.293-.036-1.811-.07-1.296-.068-2.284-.117-3.256-.117-2.12.149-2.565.203-3.04.203-3.03.174-3.366.454-4.42.726-.223.043-.5.09-.797.133-.45.063-.954.114-1.422.114-.554 0-1.056-.07-1.383-.292-1.837.384-2.683 1.027-3.905 1.027-.607-.403-.961-.632-1.063-.686-1.291-.703-2.28-.72-3.093-.411l.98.663c.026.172.035.337-.016.96-.003.016-.007.03-.322.815-.016.025-.032.05-.536.614a4.088 4.088 0 0 1-.644.426 4.759 4.759 0 0 1-.618.282c-.17.063-.33.112-1.096.286-.485.1-.912.219-1.636.462a8.422 8.422 0 0 0-1.066.479c-.311.18-.585.381-.94.714a4.224 4.224 0 0 0-.631.785c.16.19.284.367.454.751.04.098.09.2.08 1.094-.021.074-.047.146-.487.876-.076.088-.157.168-.695.52-.06.032-.115.07-.798.23-.534 0-.916-.14-1.205-.335l-1.313-.888a29.873 29.873 0 0 0-2.045-.46 5.475 5.475 0 0 0-1.056-.102c-1.959 1.174-2.354 1.714-3.119 1.994-.642.174-1.178.21-1.66.227-.742.05-1.294.07-1.875.54-.425.313-.828.61-1.233.888-.462.329-.904.66-1.332 1.01-.212.17-.427.336-.624.526-.276.256-.519.48-.746.685-.068.064-.137.125-.602.526-.17.145-.34.274-.74.565a5.62 5.62 0 0 1-.734.421l-.759.358c-.117.057-.215.102-.65.307l-.745.362c-.084.041-.158.08-.665.35-.055.032-.102.061-.575.539-.032.058-.063.101-.46.737-.06.082-.12.163-.652.716a3.37 3.37 0 0 1-.665.43 6.151 6.151 0 0 1-.647.263c-.25.092-.488.184-.908.37-.194.092-.368.193-.916.765-.305.514-.597.97-.927 1.463-.14.204-.268.372-.673.933-.163.212-.313.392-.677.834-.096.11-.176.19-.585.628-.09.088-.163.154-.587.538-.168.14-.307.246-.761.538-.057.112-.112.221-.452.828-.057.1-.114.193-.478.755a9.494 9.494 0 0 1-.651.837c-.157.174-.31.335-.998.98-.258.24-.45.427-1.084 1.15.053.07.1.142.333.946.013.127.037.244-.03 1.078-.119.354-.217.677-.3.974-.081.286-.148.546-.326 1.44a6.758 6.758 0 0 0-.078.959c0 .239.012.456.164 1.39.079.37.116.752.133 1.134.006.135.004.27.004 1.322-.004.417-.007.822.043 1.562.026.313.05.624.128.913.095.208.178.384.508 1.149.032.084.059.168.188 1.143-.006.287-.039.569-.088.95-.066.421-.162.824-.256 1.206-.149.923-.245 1.9-.34 2.807-.044.388-.057.707-.04 1.918.02.377.033.77.024 1.59-.008.188-.024.372-.169 1.297-.005.022-.007.042-.332.842-.045.084-.094.166-.548.71-.098.102-.192.194-.832.757l-.853.855c-.15.153-.295.294-.927.896-.041.04-.088.082-.575.482a46.897 46.897 0 0 1-1.972 1.498 59.67 59.67 0 0 0-2.074 1.62c-.411.339-.824.677-1.21 1.049-.342.278-.62.5-.854.693-.073.056-.114.093-.585.483-.135.115-.243.213-.617.618-.227.534-.432.996-.716 1.61-.184.396-.356.742-.847 1.648-.04.07-.08.14-.432.694a9.54 9.54 0 0 1-.691.883c-.284.326-.618.64-.937.939-.274.258-.527.51-.757.767-.192.211-.37.424-.7 1.25-.034.203-.046.419-.128 1.113-.035.204-.076.395-.391 1.395-.04.096-.082.184-.5.928a7.883 7.883 0 0 1-.549.698c-.094.108-.19.213-.757.843-.08.092-.147.19-.507.66-.325.42-.59.776-1.115 1.502-.157.233-.288.444-.634 1.149-.088.381-.15.669-.368 1.522-.017.055-.035.115-.383.779-.102.148-.216.29-.558.661a6.75 6.75 0 0 1-.624.59c-.427.355-.882.682-1.334.999-.433.301-.84.596-1.22.906-.303.246-.59.5-.829.786a9.387 9.387 0 0 1-.538.605c-.393.436-.806.85-1.418 1.397-.25.213-.519.41-1.182.911-.415.29-.85.568-1.311.836-.753.436-1.509.94-2.264 1.446-1.23.857-2.514 1.71-3.797 2.318-.149.217-.294.403-.936 1.049-.113.094-.219.166-.823.522a63.283 63.283 0 0 0-1.604 2.6c-.167.29-.31.55-.535.985-.082.16-.158.315-.422.93-.038.099-.069.193-.259 1.17-.023.263-.05.537-.232 1.574-.038.129-.08.258-.515 1.078-.346.491-.695.957-1.393 1.827-.211.26-.423.529-.714.855-.233.266-.47.513-1.15 1.231-.28.276-.566.532-1.18 1.09-.227.193-.458.366-1.178.931-.257.186-.519.348-1.205.8-.28.169-.564.313-1.239.673-.417.202-.841.384-1.27.544l-14.098-9.532c.209-.077.417-.16.677-.278-2.025-3.075-1.98-4.055-1.955-4.935.031-.436.194-1.866.522-1.917-.616-3.123-.082-4.901.515-5.824-1.434-1.047-1.996-1.814-2.176-2.74l-.086-.386c-.681-.265-1.119-.469-1.417-.67l-4.161-2.813a2.407 2.407 0 0 1-.384.252c-.837.374-1.55.651-2.156.651-8.435-5.673-12.658-8.51-12.67-8.506-.196.043-.4.054-.6.054-1.605-.01-2.358-.098-3.127-.342l-14.1-9.53c.193.06.384.113.588.154.61.13 1.336.18 2.54.186.08 0 .16-.001.243-.007-1.195-.028-1.848-.123-2.509-.333-.55-2.39.16-3.192.91-4.027.677-.787 1.389-1.587 2.185-2.303a23.263 23.263 0 0 1 1.552-1.238c.827-.609 1.602-1.22 2.158-1.935.305-.384.555-.75.808-1.133.434-.681.902-1.378 1.573-1.972.462-.435.988-.767 1.479-1.098.597-.401 1.178-.784 1.622-1.256.268-.33.536-.679.804-1.03.468-.608.931-1.236 1.571-1.864 1.305-1.604 2.428-2.929 3.686-2.946.069-.628.141-1.292.57-1.85.467-.662 1.447-1.15 2.39-1.621 3.634-2.336 5.373-3.504 7.21-4.463 1.679-.89 3.207-1.866 4.821-2.896l1.544-.976c1.254-.728 2.326-.96 3.412-.96 1.258-1.482 1.428-1.986 1.38-2.65-.232-2.144-.398-3.486.138-4.742-.367-.962-.686-1.794-.968-2.515l-7.662-5.18c.301.202.722.319 1.322.384.601.064 1.382.078 2.403.074.335.02.585.035.83.201l1.68 1.137c-.641-1.27-.975-1.298-1.649-1.336-2.673.005-3.7-.096-4.157-.944-.685-1.342.367-2.545.704-2.928.714-1.913 1.286-3.524 1.693-4.916l-11.626-7.858c.315.212.748.308 1.848.265-.55-.032-.822-.138-1.048-.309-.957-.835-.796-2.18-.663-3.173.1-1.673-.192-2.301-.564-3.103-.365-.904-.58-1.619-.7-2.23-.865-.01-1.47.165-2.075.34-.714.207-1.436.422-2.103.422-4.347-2.056-5.596-2.614-6.03-2.907l-14.099-9.53c.435.293 1.681.85 6.03 2.907.233 0 .472-.026.715-.07-5.478-2.59-5.914-2.746-6.11-3.056-.5-.61-.366-1.675-.239-2.512.068-1.15-.004-1.64-.076-2.11-.186-1.238-.392-2.512.59-3.68.887-2.649.828-2.964.795-3.017-1.796-1.585-1.904-2.631-1.982-3.486-.155-1.204-.364-1.69-.593-2.145-.436-.958-.939-2.04.168-3.382-.831-3.366-.31-4.64.077-5.563.634-2.25.796-3.07 1.4-3.713 2.26-1.327 2.21-1.937 2.082-2.878-.244-1.622-.293-2.336.454-3.749.386-1.43.485-1.867.687-2.303.274-.522.677-.784 1.011-.994-.328-.557-.53-1.324-.731-2.091-.172-.61-.325-1.239-.54-1.536-.591-.976-.703-1.272-.846-2.336-.14-.229-.271-.434-.393-.618l-2.851-1.927c.057.037.117.072.182.104.139.08.281.139.458.256l2.122 1.435c-.966-1.425-1.352-1.478-1.719-1.69-.51-.245-.753-.734-.982-1.17-.395-.36-.735-.706-1.028-1.039-.638.158-1.295.282-1.952.282-.773 0-1.541-.172-2.28-.671l-14.098-9.53c.738.499 1.507.67 2.28.67.144 0 .288-.005.432-.016-.893-.081-1.777-.434-2.6-1.29-1.37-1.43-1.356-3.053-1.346-4.622.017-.593.017-1.185-.051-1.778-.047-.75-.239-1.239-.515-1.867-.434-1.029-.682-1.342-.93-1.69-.232-.315-.482-.646-.71-1.1-.295-.471-.537-1.011-.265-1.483 2.692-.782 2.232-2.144 2.074-2.649-.922-2.152-1.394-3.046-1.657-3.61-2.132-.334-2.942-.677-3.425-1.003l-3.835-2.592c-1.033-.491-1.436-.58-1.845-.667-.894-.214-1.827-.411-2.63-.955l-4.157-2.81c-1.64-.23-2.373-.5-2.773-.769l-2.27-1.534c-.173-.021-.345-.044-.533-.044-.61 0-1.278.103-1.968.217-.695.119-1.423.229-2.114.229-1.087-.143-1.764-.392-2.205-.69l-14.1-9.53c.442.298 1.119.547 2.207.69.203 0 .41-.017.618-.036-2.296-.356-2.603-1.212-2.88-1.97l-.053-.14-3.138-2.12c.182.123.391.249.636.395.244.145.528.308.857.503l1.584 1.072c-.146-.357-.329-.713-.725-1.07-1.371-.82-1.933-1.065-2.392-1.797-.576-.976-.74-1.273-1.159-1.621-1.62-1.169-2.729-2.112-3.53-4.22-.334-.909-.537-2.163-.51-3.106.214-.973.303-1.644.32-2.146-.151.068-.288.134-.417.197-.084.042-.148.08-.222.12a7.474 7.474 0 0 0-.397.224c-.07.044-.132.087-.193.13-.096.067-.192.133-.274.197l-.17.135-.277.238c-.115.102-.231.203-.419.357-.363.307-.736.609-1.16.852-.645.409-1.371.604-2.08.818-.674.195-1.312.391-1.777.712-.19.357-.331.639-.453.88a34.37 34.37 0 0 1-.27.535c-.023.044-.047.078-.071.12-.042.075-.09.157-.164.277-.06.088-.122.167-.191.25a4.058 4.058 0 0 1-.278.356c-.036.042-.07.072-.108.108-.033.038-.07.072-.103.106-.03.028-.06.064-.09.088-.034.03-.066.035-.102.063a1.968 1.968 0 0 1-.377.23c-.05.024-.098.05-.148.066a1.553 1.553 0 0 1-.48.087c-.53 0-1.008-.267-1.389-.482a5.721 5.721 0 0 0-.834-.136 2.951 2.951 0 0 0-.51.006 1.943 1.943 0 0 0-.384.104 1.338 1.338 0 0 0-.504.4c-.034.04-.066.087-.1.13-.034.05-.07.096-.104.148-.08.122-.16.251-.247.397-.144.243-.29.487-.45.72-.025.04-.055.072-.081.11l-.11.142c-.062.081-.12.167-.185.243-.11.126-.226.244-.352.351-.05.042-.1.084-.153.124-1.365 1.031-3.123 2.24-4.527 2.24-1.35-.071-2.636-.586-3.78-1.031-.4-.178-.817-.34-1.2-.463-1.289-.373-2.524-.142-4.03-.301-3.763.124-4.238.16-4.697.195-2.691.92-3.353 1.267-3.952 1.267a1.97 1.97 0 0 1-.928-.337l-14.376-9.718c.121.082.255.155.409.215.153.058.325.102.518.122.05 0 .099-.002.15-.007-.32-.163-.55-.392-.749-.587a12.025 12.025 0 0 1-.314-.828c-1.218-.208-1.509-.258-1.772-.384a3.071 3.071 0 0 1-.214-.128l-9.65-7.78c3.085.694-2.003-.95-1.927-.909.223.108-1.819-.551-1-.408l-.373-.273a1.481 1.481 0 0 1-.075-.033 2.133 2.133 0 0 1-.584-.447l-9.383-6.837c.02.013.041.012.065 0zm41.026 18.418c-.255-.095-.504-.193-.747-.287a12.249 12.249 0 0 0-1.124-.437c.184.071.368.148.55.229.422.164.864.338 1.321.495zm-.92-126.08c.199.035.375.1.533.207l1.584 1.07c-.051-.156-.116-.3-.187-.424-.357-.687-.805-.882-1.476-.882l-.454.03zm52.764 140.517c.356.031.687.109.985.253.069.034.133.07.198.114l2.502 1.692c.575.14 1.354.274 2.456.391.457.055.765.165 1.001.325l1.989 1.345c-.617-.696-1.434-1.586-2.13-1.668-3.4-.366-3.816-.873-4.182-1.31-.317-.365-.598-.713-.974-.887-.409-.2-.879-.272-1.387-.272-.15 0-.302.006-.458.017zm11.578 5.776l.522.353c.615.135 1.372.373 4.328 2.007 1.868 1.24 2.82 1.863 2.855 1.873.874.22 2.163.44 4.151.655.162 0 .322-.013.504-.04-4.522-.511-5.208-1.053-5.797-1.547-.388-.296-.618-.628-.851-.941-3.188-1.761-3.82-1.9-4.471-2.041-.411-.098-.83-.193-1.24-.32zm14.906 4.474c1.354.18 3.052.742 5.142 1.809.388.262.782.35 1.567.505a18.658 18.658 0 0 0-.707-.506c-2.426-1.238-4.322-1.796-5.766-1.864l-.236.056zm19.893 28.845c.47.056.927.172 1.399.288.548.14 1.111.296 1.712.349a7.86 7.86 0 0 0 1.27.095c.776 0 1.561-.088 2.995.88l1.205.815c.054-.144.122-.28.208-.413-1.796-1.393-2.677-1.28-3.547-1.28-.427 0-.851-.03-1.27-.098-.6-.05-1.164-.209-1.712-.348-.661-.162-1.293-.323-1.97-.323l-.29.035zm109.37-153.96l.584.395c.074.004.129.023.213.021.08-.02.152-.044.22-.074-.556-.17-.733-.586-.831-.798-.069.166-.13.317-.186.457zm-87.123 216.635c.765.097 1.517.168 2.192.168.138 0 .273-.003.407-.009-.584-.024-1.211-.09-1.847-.172a5.917 5.917 0 0 0-.752.013zm5.934-.293l.568.383c.174.102.344.21.544.262.428.088.912.106 1.377.106.44 0 .865.004 1.374.346l2.174 1.47c-1.198-1.804-1.917-1.815-2.688-1.815-.464 0-.947-.02-1.376-.106-.528-.139-.949-.49-1.37-.82-.212.063-.413.121-.603.174zm20.597 19.27c-.761-1.432-1.803-1.836-3.138-2.129-.58-.113-.95-.186-1.248-.186-.134 0-.253.015-.369.047.209.032.454.08.756.14.73.16 1.372.354 1.93.73l2.069 1.398zm-28.53 62.53c.56.078 1.296.315 2.344.854l1.409.952a6.859 6.859 0 0 1-.548-.952c-1.687-.867-2.568-.954-3.205-.855zm14.33 8.417l1.49 1.008c-.478-.726-.908-1.271-1.165-1.352-.119.122-.226.237-.325.344zm8.644 5.843l1.81 1.224c-.506-.865-.87-.961-1.374-1.1a6.54 6.54 0 0 1-.436-.124zm6.063 4.322l2.582 1.746a2.722 2.722 0 0 0-1.253-1.13 87.15 87.15 0 0 1-1.329-.616zm86.316-84.185c.528.075 1.37.252 2.953.665 1.16.71 1.793 1.064 1.897 1.064.105-.004.208-.02.329-.053-.741-.157-1.093-.638-1.366-1.011-2.643-.691-3.222-.72-3.721-.72a29.94 29.94 0 0 0-.092.055zm14.199-8.373c.74.098 1.64.462 2.794 1.241.256-.001.495-.03.731-.08-1.48-1.07-2.609-1.328-3.525-1.161zm6.953.355c.297.111.69.153 1.113.153.147 0 .297-.005.447-.014-.398-.032-.743-.116-.97-.278-.208.043-.404.09-.59.14zm11.545-1.014c.744.017 1.538.057 2.503.106.518.033 1.148.072 1.812.072.124 0 .25 0 .389-.006-.489-.012-.947-.04-1.34-.064-1.296-.069-2.284-.116-3.256-.116l-.108.008z"/>
        <filter id="a" width="118.3%" height="118.2%" x="-9.2%" y="-5.3%" filterUnits="objectBoundingBox">
            <feOffset dy="16" in="SourceAlpha" result="shadowOffsetOuter1"/>
            <feGaussianBlur in="shadowOffsetOuter1" result="shadowBlurOuter1" stdDeviation="10"/>
            <feColorMatrix in="shadowBlurOuter1" values="0 0 0 0 0 0 0 0 0 0 0 0 0 0 0 0 0 0 0.15 0"/>
        </filter>
        <linearGradient id="c" x1="0%" y1="-1.52%" y2="101.339%">
            <stop offset="0%" stop-color="#2BC959"/>
            <stop offset="100%" stop-color="#10744D"/>
        </linearGradient>
        <filter id="d" width="161.3%" height="150%" x="-30.6%" y="-22.4%" filterUnits="objectBoundingBox">
            <feOffset dy="1" in="SourceAlpha" result="shadowOffsetOuter1"/>
            <feGaussianBlur in="shadowOffsetOuter1" result="shadowBlurOuter1" stdDeviation="3"/>
            <feColorMatrix in="shadowBlurOuter1" result="shadowMatrixOuter1" values="0 0 0 0 0 0 0 0 0 0 0 0 0 0 0 0 0 0 0.15 0"/>
            <feMerge>
                <feMergeNode in="shadowMatrixOuter1"/>
                <feMergeNode in="SourceGraphic"/>
            </feMerge>
        </filter>
        <filter id="e" width="152.6%" height="162.5%" x="-26.3%" y="-25%" filterUnits="objectBoundingBox">
            <feOffset dy="1" in="SourceAlpha" result="shadowOffsetOuter1"/>
            <feGaussianBlur in="shadowOffsetOuter1" result="shadowBlurOuter1" stdDeviation="1.5"/>
            <feColorMatrix in="shadowBlurOuter1" result="shadowMatrixOuter1" values="0 0 0 0 0 0 0 0 0 0 0 0 0 0 0 0 0 0 0.1 0"/>
            <feMerge>
                <feMergeNode in="shadowMatrixOuter1"/>
                <feMergeNode in="SourceGraphic"/>
            </feMerge>
        </filter>
        <filter id="f" width="161.3%" height="154.3%" x="-30.6%" y="-24.3%" filterUnits="objectBoundingBox">
            <feOffset dy="1" in="SourceAlpha" result="shadowOffsetOuter1"/>
            <feGaussianBlur in="shadowOffsetOuter1" result="shadowBlurOuter1" stdDeviation="3"/>
            <feColorMatrix in="shadowBlurOuter1" result="shadowMatrixOuter1" values="0 0 0 0 0 0 0 0 0 0 0 0 0 0 0 0 0 0 0.15 0"/>
            <feMerge>
                <feMergeNode in="shadowMatrixOuter1"/>
                <feMergeNode in="SourceGraphic"/>
            </feMerge>
        </filter>
        <linearGradient id="g" x1="0%" y1="0%" y2="100%">
            <stop offset="0%" stop-color="#88DE0E"/>
            <stop offset="100%" stop-color="#13A42F"/>
        </linearGradient>
        <filter id="h" width="152.6%" height="162.5%" x="-26.3%" y="-25%" filterUnits="objectBoundingBox">
            <feOffset dy="1" in="SourceAlpha" result="shadowOffsetOuter1"/>
            <feGaussianBlur in="shadowOffsetOuter1" result="shadowBlurOuter1" stdDeviation="1.5"/>
            <feColorMatrix in="shadowBlurOuter1" result="shadowMatrixOuter1" values="0 0 0 0 0 0 0 0 0 0 0 0 0 0 0 0 0 0 0.1 0"/>
            <feMerge>
                <feMergeNode in="shadowMatrixOuter1"/>
                <feMergeNode in="SourceGraphic"/>
            </feMerge>
        </filter>
        <filter id="i" width="161.3%" height="154.3%" x="-30.6%" y="-24.3%" filterUnits="objectBoundingBox">
            <feOffset dy="1" in="SourceAlpha" result="shadowOffsetOuter1"/>
            <feGaussianBlur in="shadowOffsetOuter1" result="shadowBlurOuter1" stdDeviation="3"/>
            <feColorMatrix in="shadowBlurOuter1" result="shadowMatrixOuter1" values="0 0 0 0 0 0 0 0 0 0 0 0 0 0 0 0 0 0 0.15 0"/>
            <feMerge>
                <feMergeNode in="shadowMatrixOuter1"/>
                <feMergeNode in="SourceGraphic"/>
            </feMerge>
        </filter>
        <filter id="j" width="152.6%" height="162.5%" x="-26.3%" y="-25%" filterUnits="objectBoundingBox">
            <feOffset dy="1" in="SourceAlpha" result="shadowOffsetOuter1"/>
            <feGaussianBlur in="shadowOffsetOuter1" result="shadowBlurOuter1" stdDeviation="1.5"/>
            <feColorMatrix in="shadowBlurOuter1" result="shadowMatrixOuter1" values="0 0 0 0 0 0 0 0 0 0 0 0 0 0 0 0 0 0 0.1 0"/>
            <feMerge>
                <feMergeNode in="shadowMatrixOuter1"/>
                <feMergeNode in="SourceGraphic"/>
            </feMerge>
        </filter>
        <filter id="k" width="161.3%" height="154.3%" x="-30.6%" y="-24.3%" filterUnits="objectBoundingBox">
            <feOffset dy="1" in="SourceAlpha" result="shadowOffsetOuter1"/>
            <feGaussianBlur in="shadowOffsetOuter1" result="shadowBlurOuter1" stdDeviation="3"/>
            <feColorMatrix in="shadowBlurOuter1" result="shadowMatrixOuter1" values="0 0 0 0 0 0 0 0 0 0 0 0 0 0 0 0 0 0 0.15 0"/>
            <feMerge>
                <feMergeNode in="shadowMatrixOuter1"/>
                <feMergeNode in="SourceGraphic"/>
            </feMerge>
        </filter>
        <filter id="l" width="152.6%" height="162.5%" x="-26.3%" y="-25%" filterUnits="objectBoundingBox">
            <feOffset dy="1" in="SourceAlpha" result="shadowOffsetOuter1"/>
            <feGaussianBlur in="shadowOffsetOuter1" result="shadowBlurOuter1" stdDeviation="1.5"/>
            <feColorMatrix in="shadowBlurOuter1" result="shadowMatrixOuter1" values="0 0 0 0 0 0 0 0 0 0 0 0 0 0 0 0 0 0 0.1 0"/>
            <feMerge>
                <feMergeNode in="shadowMatrixOuter1"/>
                <feMergeNode in="SourceGraphic"/>
            </feMerge>
        </filter>
        <filter id="m" width="161.3%" height="154.3%" x="-30.6%" y="-24.3%" filterUnits="objectBoundingBox">
            <feOffset dy="1" in="SourceAlpha" result="shadowOffsetOuter1"/>
            <feGaussianBlur in="shadowOffsetOuter1" result="shadowBlurOuter1" stdDeviation="3"/>
            <feColorMatrix in="shadowBlurOuter1" result="shadowMatrixOuter1" values="0 0 0 0 0 0 0 0 0 0 0 0 0 0 0 0 0 0 0.15 0"/>
            <feMerge>
                <feMergeNode in="shadowMatrixOuter1"/>
                <feMergeNode in="SourceGraphic"/>
            </feMerge>
        </filter>
        <filter id="n" width="152.6%" height="162.5%" x="-26.3%" y="-25%" filterUnits="objectBoundingBox">
            <feOffset dy="1" in="SourceAlpha" result="shadowOffsetOuter1"/>
            <feGaussianBlur in="shadowOffsetOuter1" result="shadowBlurOuter1" stdDeviation="1.5"/>
            <feColorMatrix in="shadowBlurOuter1" result="shadowMatrixOuter1" values="0 0 0 0 0 0 0 0 0 0 0 0 0 0 0 0 0 0 0.1 0"/>
            <feMerge>
                <feMergeNode in="shadowMatrixOuter1"/>
                <feMergeNode in="SourceGraphic"/>
            </feMerge>
        </filter>
        <filter id="o" width="161.3%" height="154.3%" x="-30.6%" y="-24.3%" filterUnits="objectBoundingBox">
            <feOffset dy="1" in="SourceAlpha" result="shadowOffsetOuter1"/>
            <feGaussianBlur in="shadowOffsetOuter1" result="shadowBlurOuter1" stdDeviation="3"/>
            <feColorMatrix in="shadowBlurOuter1" result="shadowMatrixOuter1" values="0 0 0 0 0 0 0 0 0 0 0 0 0 0 0 0 0 0 0.15 0"/>
            <feMerge>
                <feMergeNode in="shadowMatrixOuter1"/>
                <feMergeNode in="SourceGraphic"/>
            </feMerge>
        </filter>
        <filter id="p" width="152.6%" height="162.5%" x="-26.3%" y="-25%" filterUnits="objectBoundingBox">
            <feOffset dy="1" in="SourceAlpha" result="shadowOffsetOuter1"/>
            <feGaussianBlur in="shadowOffsetOuter1" result="shadowBlurOuter1" stdDeviation="1.5"/>
            <feColorMatrix in="shadowBlurOuter1" result="shadowMatrixOuter1" values="0 0 0 0 0 0 0 0 0 0 0 0 0 0 0 0 0 0 0.1 0"/>
            <feMerge>
                <feMergeNode in="shadowMatrixOuter1"/>
                <feMergeNode in="SourceGraphic"/>
            </feMerge>
        </filter>
        <filter id="q" width="161.3%" height="154.3%" x="-30.6%" y="-24.3%" filterUnits="objectBoundingBox">
            <feOffset dy="1" in="SourceAlpha" result="shadowOffsetOuter1"/>
            <feGaussianBlur in="shadowOffsetOuter1" result="shadowBlurOuter1" stdDeviation="3"/>
            <feColorMatrix in="shadowBlurOuter1" result="shadowMatrixOuter1" values="0 0 0 0 0 0 0 0 0 0 0 0 0 0 0 0 0 0 0.15 0"/>
            <feMerge>
                <feMergeNode in="shadowMatrixOuter1"/>
                <feMergeNode in="SourceGraphic"/>
            </feMerge>
        </filter>
        <filter id="r" width="152.6%" height="162.5%" x="-26.3%" y="-25%" filterUnits="objectBoundingBox">
            <feOffset dy="1" in="SourceAlpha" result="shadowOffsetOuter1"/>
            <feGaussianBlur in="shadowOffsetOuter1" result="shadowBlurOuter1" stdDeviation="1.5"/>
            <feColorMatrix in="shadowBlurOuter1" result="shadowMatrixOuter1" values="0 0 0 0 0 0 0 0 0 0 0 0 0 0 0 0 0 0 0.1 0"/>
            <feMerge>
                <feMergeNode in="shadowMatrixOuter1"/>
                <feMergeNode in="SourceGraphic"/>
            </feMerge>
        </filter>
        <filter id="s" width="161.3%" height="150%" x="-30.6%" y="-22.4%" filterUnits="objectBoundingBox">
            <feOffset dy="1" in="SourceAlpha" result="shadowOffsetOuter1"/>
            <feGaussianBlur in="shadowOffsetOuter1" result="shadowBlurOuter1" stdDeviation="3"/>
            <feColorMatrix in="shadowBlurOuter1" result="shadowMatrixOuter1" values="0 0 0 0 0 0 0 0 0 0 0 0 0 0 0 0 0 0 0.15 0"/>
            <feMerge>
                <feMergeNode in="shadowMatrixOuter1"/>
                <feMergeNode in="SourceGraphic"/>
            </feMerge>
        </filter>
        <filter id="t" width="152.6%" height="162.5%" x="-26.3%" y="-25%" filterUnits="objectBoundingBox">
            <feOffset dy="1" in="SourceAlpha" result="shadowOffsetOuter1"/>
            <feGaussianBlur in="shadowOffsetOuter1" result="shadowBlurOuter1" stdDeviation="1.5"/>
            <feColorMatrix in="shadowBlurOuter1" result="shadowMatrixOuter1" values="0 0 0 0 0 0 0 0 0 0 0 0 0 0 0 0 0 0 0.1 0"/>
            <feMerge>
                <feMergeNode in="shadowMatrixOuter1"/>
                <feMergeNode in="SourceGraphic"/>
            </feMerge>
        </filter>
        <filter id="u" width="161.3%" height="150%" x="-30.6%" y="-22.4%" filterUnits="objectBoundingBox">
            <feOffset dy="1" in="SourceAlpha" result="shadowOffsetOuter1"/>
            <feGaussianBlur in="shadowOffsetOuter1" result="shadowBlurOuter1" stdDeviation="3"/>
            <feColorMatrix in="shadowBlurOuter1" result="shadowMatrixOuter1" values="0 0 0 0 0 0 0 0 0 0 0 0 0 0 0 0 0 0 0.15 0"/>
            <feMerge>
                <feMergeNode in="shadowMatrixOuter1"/>
                <feMergeNode in="SourceGraphic"/>
            </feMerge>
        </filter>
        <filter id="v" width="152.6%" height="162.5%" x="-26.3%" y="-25%" filterUnits="objectBoundingBox">
            <feOffset dy="1" in="SourceAlpha" result="shadowOffsetOuter1"/>
            <feGaussianBlur in="shadowOffsetOuter1" result="shadowBlurOuter1" stdDeviation="1.5"/>
            <feColorMatrix in="shadowBlurOuter1" result="shadowMatrixOuter1" values="0 0 0 0 0 0 0 0 0 0 0 0 0 0 0 0 0 0 0.1 0"/>
            <feMerge>
                <feMergeNode in="shadowMatrixOuter1"/>
                <feMergeNode in="SourceGraphic"/>
            </feMerge>
        </filter>
        <filter id="w" width="161.3%" height="150%" x="-30.6%" y="-22.4%" filterUnits="objectBoundingBox">
            <feOffset dy="1" in="SourceAlpha" result="shadowOffsetOuter1"/>
            <feGaussianBlur in="shadowOffsetOuter1" result="shadowBlurOuter1" stdDeviation="3"/>
            <feColorMatrix in="shadowBlurOuter1" result="shadowMatrixOuter1" values="0 0 0 0 0 0 0 0 0 0 0 0 0 0 0 0 0 0 0.15 0"/>
            <feMerge>
                <feMergeNode in="shadowMatrixOuter1"/>
                <feMergeNode in="SourceGraphic"/>
            </feMerge>
        </filter>
        <filter id="x" width="152.6%" height="162.5%" x="-26.3%" y="-25%" filterUnits="objectBoundingBox">
            <feOffset dy="1" in="SourceAlpha" result="shadowOffsetOuter1"/>
            <feGaussianBlur in="shadowOffsetOuter1" result="shadowBlurOuter1" stdDeviation="1.5"/>
            <feColorMatrix in="shadowBlurOuter1" result="shadowMatrixOuter1" values="0 0 0 0 0 0 0 0 0 0 0 0 0 0 0 0 0 0 0.1 0"/>
            <feMerge>
                <feMergeNode in="shadowMatrixOuter1"/>
                <feMergeNode in="SourceGraphic"/>
            </feMerge>
        </filter>
        <filter id="y" width="161.3%" height="150%" x="-30.6%" y="-22.4%" filterUnits="objectBoundingBox">
            <feOffset dy="1" in="SourceAlpha" result="shadowOffsetOuter1"/>
            <feGaussianBlur in="shadowOffsetOuter1" result="shadowBlurOuter1" stdDeviation="3"/>
            <feColorMatrix in="shadowBlurOuter1" result="shadowMatrixOuter1" values="0 0 0 0 0 0 0 0 0 0 0 0 0 0 0 0 0 0 0.15 0"/>
            <feMerge>
                <feMergeNode in="shadowMatrixOuter1"/>
                <feMergeNode in="SourceGraphic"/>
            </feMerge>
        </filter>
        <filter id="z" width="152.6%" height="162.5%" x="-26.3%" y="-25%" filterUnits="objectBoundingBox">
            <feOffset dy="1" in="SourceAlpha" result="shadowOffsetOuter1"/>
            <feGaussianBlur in="shadowOffsetOuter1" result="shadowBlurOuter1" stdDeviation="1.5"/>
            <feColorMatrix in="shadowBlurOuter1" result="shadowMatrixOuter1" values="0 0 0 0 0 0 0 0 0 0 0 0 0 0 0 0 0 0 0.1 0"/>
            <feMerge>
                <feMergeNode in="shadowMatrixOuter1"/>
                <feMergeNode in="SourceGraphic"/>
            </feMerge>
        </filter>
        <filter id="A" width="161.3%" height="150%" x="-30.6%" y="-22.4%" filterUnits="objectBoundingBox">
            <feOffset dy="1" in="SourceAlpha" result="shadowOffsetOuter1"/>
            <feGaussianBlur in="shadowOffsetOuter1" result="shadowBlurOuter1" stdDeviation="3"/>
            <feColorMatrix in="shadowBlurOuter1" result="shadowMatrixOuter1" values="0 0 0 0 0 0 0 0 0 0 0 0 0 0 0 0 0 0 0.15 0"/>
            <feMerge>
                <feMergeNode in="shadowMatrixOuter1"/>
                <feMergeNode in="SourceGraphic"/>
            </feMerge>
        </filter>
        <filter id="B" width="152.6%" height="162.5%" x="-26.3%" y="-25%" filterUnits="objectBoundingBox">
            <feOffset dy="1" in="SourceAlpha" result="shadowOffsetOuter1"/>
            <feGaussianBlur in="shadowOffsetOuter1" result="shadowBlurOuter1" stdDeviation="1.5"/>
            <feColorMatrix in="shadowBlurOuter1" result="shadowMatrixOuter1" values="0 0 0 0 0 0 0 0 0 0 0 0 0 0 0 0 0 0 0.1 0"/>
            <feMerge>
                <feMergeNode in="shadowMatrixOuter1"/>
                <feMergeNode in="SourceGraphic"/>
            </feMerge>
        </filter>
    </defs>
    <g fill="none" fill-rule="evenodd">
        <circle cx="223.043" cy="225" r="193.239" fill="#F6F6F6"/>
        <g transform="translate(15.652 14.82)">
            <use fill="#000" filter="url(#a)" xlink:href="#b"/>
            <use fill="#116D3E" xlink:href="#b"/>
        </g>
        <path fill="#116D3E" d="M114.115 200.749l4.624 5.614 7.698 3.014 8.305 3.596 9.78 2.786 8.27 4.462 6.517 20.856 14.787 6.937v-6.457l-9.225-6.003-6.649-15.333-9.04-12.455-19.352-9.097-15.715-5.305z"/>
        <path fill="url(#c)" d="M142.846.975c3.46.035 3.479.646 3.5 1.045.597.786.867 1.013 1.068 1.745.165.87-.011 2.144-.598 2.808 1.412 1.743 2.44 1.97 3.073 3.87.34 1.326.597 1.954 1.393 3.017.623.542.889.82.865 1.657-.115.994-.908 1.604-1.542 2.091-1.29 1.135-1.66 2.006-2.05 2.931-.221.54-.464 1.115-.77 1.655-.382.664-.433 1.221-.472 1.953-.21 2.477-.435 5.424.207 6.488.974 1.413 1.094 2.058 1.197 2.616.443 2.528.574 3.383 1.092 3.887.804.82 1.239 1.256 1.79 2.39.329.557.532.663 1.026.923 5.114 2.39 5.488 3.158 5.601 3.96 1.46-.419 1.964-.558 2.191-.734 1.382-2.422 2.536-2.44 3.448-2.44.518 0 1 0 1.418-.176 1.654-1.555 2.123-1.624 2.58-1.624 4.258-1.93 4.765-2.14 5.96-2.402.44-.069.863-.094 1.27-.094.536 0 1.047.043 1.556.094.518.039.996.08 1.489.08a57.793 57.793 0 0 1 1.99-.049c1.14 0 2.289.08 3.623.37.835.233 1.506.328 2.007.328-.485-3.555-.624-4.112.188-4.775 2.148-2.18 2.551-1.814 2.886-1.466 1.59.591 2.446.12 3.21-.278.63-.348 1.225-.663 1.781-.82.252-.062 1.765-.467 3.344-.467 1.025 0 2.078.17 2.833.712a2.554 2.554 0 0 1 1.062 1.97c4.625 1.773 5.154 1.699 5.639 1.552.366-.121.7-.419 1.072-.732.405-.35.83-.716 1.334-.855 1.106-.102 1.573.106 2.006.298 4.065.575 4.099 1.185 4.124 1.48 1.002.198 3.363-.56 4.128-.958.623-1.256.722-1.708.961-2.25.276-.575.673-1.203 1.053-1.796.94-1.605 1.234-2.162 1.526-2.737 1.078-2.076 2.115-4.029 3.549-5.946.377-.49.835-.855 1.278-1.221.405-.33.774-.628 1.062-1.012.851-1.447 1.105-1.917 1.499-2.406.36-.54.808-1.133 1.258-1.743.538-.732 1.127-1.501 1.58-2.25 2.05.592 2.491.784 2.826 1.168 1.8 2.04 1.749 2.616 1.698 3.173-.053.628-.104 1.221.145 1.536 1.103.54 1.144.941 1.125 1.587-.059.82-.169 1.586-.294 2.353-.152 1.098-.303 2.145-.283 3.21 1.631.784 1.612 2.038 1.584 2.963-.015.558-.03 1.047.235 1.448.99.853 1.53 1.239 1.747 2.092.137.54.051 1.132-.049 1.657 2.317 3.19 2.673 3.4 2.968 3.923 3.34 1.22 4.184 1.796 4.808 2.86.982 1.743 1.177 4.516.395 5.946-.585 1.168-1.93 1.796-3.101 2.336-.61.28-1.15.54-1.59.837-1.355.941-3.249 2.72-3.519 3.696-1.28 1.342-1.833 2.006-2.735 3.436-.516 1.778-.75 2.598-1.385 3.173-.39.384-.965.61-1.575.873-.507.21-1.047.436-1.366.714-1.266.924-2.22 1.743-2.978 2.896-1.254 3.416-1.854 5.161-2.707 6.05-.014 1.028-.402 1.883-1.092 2.58-.64.628-1.313.698-1.779.751 2.329.435 2.71-.191 3.432-1.326.382-.714.634-1.115.969-1.342 1.351-5.58 1.398-5.981 1.897-6.61.34-.4 1.294-1.168 2.12-1.203 1.51.802 1.204 1.796.978 2.495-.572 1.849-1.403 3.226-2.413 4.218 1.507-.851 2.42-.933 3.103-.933 2.135.237 2.688.777 2.863 1.894.927 3.05 1.06 3.748 1.197 4.359.104.575.21 1.097.49 1.534.482.655 2.075 1.741 2.713 1.741 1.514-.8 2.023-1.13 2.596-1.27-.42-.383-.827-.575-1.168-.751-2.03-.644-2.334-.82-2.995-2.354-1.321-.837-2.072-1.029-2.274-1.76.69-1.865 1.575-2.057 2.094-2.127.25-3.89-1.869-4.43-3.015-4.708.17-1.692.894-1.692 1.582-1.692 3.683-2.233 3.743-3.716 5.457-4.064.865-.021 1.303.21 1.677.401 1.387.28 1.774.018 2.232-.295.456-.315.982-.681 1.609-.82 9.111-.018 9.788.384 10.363.732 1.882 1.029 2.325 1.238 2.76 1.64 1.259 1.115.913 1.76.157 2.86-1.862 3.015-2.73 4.445-4.572 5.545-.683.418-1.297.802-1.444 1.132.14 1.693.043 2.616-.892 2.843-1.08.035-1.344-.595-1.473-.872-.39.943-.542 1.43-.861 1.762.006.977-.018 1.761-.141 2.458 2.027-2.737 3.187-3.557 4.207-4.254.913-.61 1.35-.82 1.786-1.029.733-.348 1.414-.68 1.911-1.168 1.037-1.326 1.485-1.92 2.205-2.39 1.249-.82 1.458-.942 2.121-1.848.52-.698 1.67-1.674 2.593-2.04.45-.216.864-.294 1.254-.294.593 0 1.129.184 1.655.364 1.246.33 1.796.366 2.381.4.481.034.93.052 1.409.123 2.45.043 3.218.136 3.893.557 3.731 1.43 4.168 1.796 4.606 2.144 1.774 1.135 2.25 1.413 2.487 2.112 1.371-.024 2.318.193 3.14.4 2.485.488 4.369.838 5.394 1.709 4.214 1.937 4.66 2.545 5.108 3.156 1.542 1.465 1.898 1.692 2.203 2.388 1.763 3.4 2.824 4.778 1.914 6.453-.434.714-1.082 1.098-1.661 1.43-.7.384-1.086.628-1.188 1.168-.098.419-.008.873.065 1.36.53.732.915.49 1.285.21 1.108-1.378 1.503-1.918 2.027-2.215 1.407-.225 1.808-.034 2.133.121 1.403-.818 1.657-1.307 2.13-1.604.492-.26 1.028-.313 1.476-.366 1.107-.174 1.749-.33 2.408-.505.591-.139 1.182-.297 1.804-.419.612-.13 1.106-.203 1.538-.203.95 0 1.614.352 2.618 1.215 1.209 1.097 3.267 1.395 4.776 1.622 2.678-.016 3.193-.047 3.686-.047 1.091 0 2.083.158 2.715.831.302.313.462.714.534 1.168 1.407.157 3.48.61 4.59 1.481 1.043-.806 1.487-1.113 2.12-1.113.389 0 .849.116 1.502.347 8.81-.871 9.577-.61 10.327-.331.461.156.939.33 1.38.489 1.466.522 2.732 1.428 3.947 2.283.912.646 1.773 1.274 2.706 1.728 3.109 1.446 5.378 2.772 7.716 5.3.836.87 1.695 1.516 2.69 2.25 1.478 1.272 1.85 2.11 2.352 3.174.57 1.2 1.42 1.516 2.391 1.882.871.315 1.773.645 2.475 1.377 2.894 1.356 3.56 2.021 4.078 2.546 1.162.855 1.8.872 2.263.89 1.438.197 1.955.25 2.483.25 2.53-.088 3.094-.049 3.643-.006.55.034 1.117.069 1.695.069 3.793.14 4.16.593 4.51.994 2.705 2.25 2.61 3.208 2.531 4.081-.049.558-.082 1.082.075 1.622 1.512 2.475 1.443 3.035 1.36 3.557l-.09 2.51c.78.384 1.189.54 1.54.943.531.626.459 1.29.43 1.726.702 1.952 1.224 2.336 1.416 3.418.229 1.029-.113 1.516-.383 1.9.068 1.796.28 2.214.264 2.772-.79 5.267-1.632 9.87-2.088 10.777-1.223 2.302-1.843 3.47-2.226 4.848-1.358 2.267-1.7 3.365-2.006 4.359-.21.661-.399 1.291-.655 1.814-.548 1.044-1.609 1.952-2.632 2.825-.512.434-.99.835-1.364 1.236-.46.454-.75 1.012-1.06 1.587-.221.436-.458.908-.78 1.362-.431.54-.953.767-1.372.941-.898 1.814-.904 2.651-1.937 3.226-.405.278-.976.366-1.477.435-2.943 3.418-3.467 3.715-4.011 4.012-.914.627-1.342 1.149-1.77 1.656-1.572 1.9-2.73 3.226-3.98 4.202-.828 2.39-2.082 4.029-3.283 5.616-1.595 2.091-3.258 4.235-3.964 6.556-.554 1.9-.795 2.492-2.244 3.12-1.523.838-2.223 1.257-2.914 1.325-3.073.245-3.428 1.17-3.729 2.04-.518 1.257-.548 1.675-.585 2.32-.03.385-.04.837-.194 1.326-.064.454-.318.906-.57 1.307.703 3.017.823 4.202.774 5.877-.026.855-.204 1.655-.382 2.457-.217.943-.416 1.867-.322 2.792.185 1.272.258 1.761.244 2.23-.082 2.826-.154 4.726.118 6.592.158 1.675.266 2.685-.411 4.029-.583 1.133-.912 1.743-1.125 2.58-.084.523-.12 1.098-.155 1.709-.047 1.1-.098 2.214-.577 3.33-.657 1.238-.785 1.465-.802 2.075a17.65 17.65 0 0 1-.249 1.413c-.186 1.064-.409 2.162-.278 3.017.57 1.15.897 1.743.691 2.3-.194.752-1.008.891-1.49.961-.701.349-1.147.871-1.576 1.395-.303.366-.606.732-.872.992-1.225 1.274-2.016 2.374-2.037 3.716.33.434.52 1.047.39 1.97-.056.663-.296 1.221-.5 1.708-.277.681-.499 1.203-.281 2.023.725 2.285 1.103 3.453.31 5.267-.723 1.743-1.866 3.156-2.973 4.516-1.198 1.448-2.32 2.825-2.94 4.55-.314 1.85-.425 2.755-1.1 3.472-2.346 2.457-2.796 3.103-3.714 3.887-.548.472-1.056.785-1.565 1.082a2.107 2.107 0 0 1-.339 1.552c-.29.471-.767.872-1.326 1.185-.474 2.076-.245 2.493-.208 2.964.11.401.378 2.425.132 3.191-.214.803-.497 1.098-1.172 1.204-1.147.332-1.622.731-2.117 1.152-.619.523-1.272 1.08-2.108 1.325-2.071 1.377-2.29 1.847-2.611 2.197-.803.941-1.215 1.448-1.339 2.162-.068 1.168-.088 1.849-.95 2.475-.946.814-2.554.996-4.004.996-.663 0-1.293-.037-1.811-.07-1.296-.07-2.284-.116-3.256-.116-2.12.147-2.565.203-3.04.203-3.03.172-3.366.452-3.85.609-.038 0-1.54.364-2.789.364-.567 0-1.082-.077-1.383-.294-1.835.384-2.683 1.03-3.905 1.03-2.09-1.552-3.487-1.501-4.573-.908-.039.676.779.471 1.397.471.417 2.911-3.197 3.383-3.232 3.383-2.184.452-3.496 1.168-4.273 2.442.716.835.712 1.534.401 2.197-.384.75-1.07 1.236-1.847 1.272-1.12 0-1.567-.61-1.898-1.065-2.643-.69-3.222-.72-3.721-.72-1.959 1.174-2.354 1.714-3.119 1.994-.642.174-1.178.21-1.66.227-.742.053-1.294.07-1.875.54-.425.315-.828.61-1.233.89-.687.49-1.354.959-1.956 1.534-1.258 1.168-1.894 1.76-2.822 2.197-2.479 1.168-3.038 1.43-3.304 1.743-.86 1.71-1.697 2.023-2.514 2.319-.818.297-1.568.577-1.824 1.135-2.248 3.801-3.93 4.795-4.21 4.934-.986 1.955-1.783 2.686-2.579 3.4-.585.54-.922.889-1.084 1.15.348.455.45 1.1.301 2.024-.925 2.79-.745 3.713-.55 4.71.183.819.175 1.672.15 2.51-.009.888-.034 1.725.17 2.474.438.944.633 1.327.686 1.867.059.906-.139 1.796-.334 2.58-.149.926-.245 1.902-.34 2.808-.095.82-.057 1.36-.04 1.918.067 1.238.13 2.65-.47 3.715-.31.593-.874 1.062-1.387 1.481-1.242 1.239-1.686 1.728-2.355 2.233a45.281 45.281 0 0 1-1.972 1.498c-1.165.873-2.274 1.693-3.283 2.669-1.358 1.1-1.763 1.413-2.049 1.778-1.148 2.704-1.835 3.872-2.602 4.743-.303.368-.675.716-1.03 1.047-.496.471-.958.925-1.263 1.412-.202.401-.231.767-.245 1.272-.268 2.111-1.05 2.949-1.798 3.786-.358.383-.712.767-.982 1.184-.914 1.187-1.487 1.954-1.75 2.65-.255 1.118-.32 1.552-.557 1.99-.636 1.116-1.69 1.848-2.71 2.564-.772.54-1.512 1.044-2.048 1.69-1.233 1.516-2.645 2.702-4.45 3.749-.752.436-1.508.94-2.263 1.448-1.23.855-2.512 1.708-3.788 2.3-.72 1.065-1.35 1.378-1.768 1.587-2.706 4.187-2.763 4.919-2.82 5.686-.076.855-.139 1.831-.747 2.65-2.858 4.063-5.915 6.679-9.327 7.952-2.213-3.297-2.166-4.308-2.14-5.214.031-.436.194-1.866.522-1.917-.616-3.123-.082-4.901.515-5.825-1.434-1.047-1.996-1.814-2.176-2.739-.366-1.655-.624-2.84-2-3.487-5.067-2.3-5.221-2.842-5.347-3.279-.635-1.271-1.029-1.375-1.608-1.534a5.034 5.034 0 0 1-1.364-.54c-4.365-1.518-4.687-1.657-5.157-2.668-.835-1.446-1.79-2.964-2.234-3.103-.675.696-.982 1.15-1.577 1.463-.836.374-1.55.652-2.154.652-1.665-1.959-1.789-2.448-1.93-2.935-.185-.734-.387-1.483-.749-2.04-.442-.803-1.256-1.222-2.12-1.674-.697-.365-1.427-.733-2.03-1.344-.367-.33-.647-.855-.89-1.342-2.129-1.094-2.974-.945-3.664-.75-.382 1.521-1.145 1.633-1.889 1.633-1.604-.01-2.36-.098-3.126-.343-.55-2.389.16-3.191.91-4.026.677-.787 1.389-1.587 2.185-2.303a23.263 23.263 0 0 1 1.552-1.239c.827-.608 1.602-1.219 2.158-1.935.305-.383.555-.749.808-1.133.434-.68.902-1.377 1.573-1.972.462-.434.988-.767 1.479-1.097.597-.401 1.178-.785 1.622-1.256.268-.331.536-.68.804-1.03.468-.608.931-1.236 1.571-1.864 1.305-1.604 2.428-2.929 3.686-2.947.069-.628.141-1.29.57-1.849.467-.663 1.447-1.15 2.39-1.621 3.634-2.337 5.373-3.505 7.21-4.463 1.679-.89 3.207-1.867 4.821-2.896l1.544-.976c1.254-.728 2.326-.96 3.412-.96 1.258-1.482 1.428-1.987 1.38-2.65-.232-2.144-.398-3.487.138-4.743-2.721-7.131-2.84-7.166-4.044-7.235-2.673.006-3.7-.096-4.157-.943-.685-1.342.367-2.545.704-2.929 2.039-5.459 2.919-8.458 2.093-10.915-.778-2.215-1.952-2.722-3.543-3.07-.58-.114-.95-.186-1.248-.186-.48 0-.77.188-1.42.69-.46.421-1.018.664-1.472.856-2.487.227-3.103.14-3.543-.192-.957-.835-.796-2.18-.663-3.173.1-1.673-.192-2.301-.564-3.104-.964-2.388-.882-3.453-.757-4.777.137-1.763-.423-2.581-1.133-3.663-1.589-2.825-2.414-2.84-3.31-2.84-.464 0-.947-.02-1.376-.106-.528-.14-.949-.49-1.37-.82-1.531.454-2.41.636-3.484.636-.706 0-1.497-.079-2.3-.182-.98-.043-1.63.144-2.284.33-.712.208-1.434.425-2.101.425-5.618-2.657-6.06-2.814-6.257-3.127-.5-.61-.366-1.674-.239-2.512.068-1.15-.004-1.64-.076-2.109-.186-1.238-.392-2.512.59-3.68.887-2.65.828-2.964.795-3.017-1.796-1.585-1.904-2.632-1.982-3.487-.155-1.203-.364-1.69-.593-2.144-.436-.959-.939-2.04.168-3.383-.831-3.365-.31-4.639.077-5.562.634-2.25.796-3.07 1.4-3.714 2.26-1.326 2.21-1.937 2.082-2.878-.244-1.622-.293-2.336.454-3.748.386-1.43.485-1.867.687-2.303.274-.523.677-.785 1.011-.994-.328-.558-.53-1.325-.731-2.092-.172-.61-.325-1.238-.54-1.536-.591-.976-.703-1.271-.846-2.336-1.33-2.162-1.778-2.195-2.2-2.44-.511-.244-.754-.733-.983-1.17-2.735-2.492-2.837-4.306-2.915-5.771-.14-1.69-.235-2.614.272-3.4-1.796-1.394-2.677-1.28-3.547-1.28-.427 0-.851-.03-1.27-.098-.6-.05-1.164-.21-1.712-.348-.661-.163-1.293-.323-1.97-.323-1.178.131-1.767.288-2.34.446-.877.239-1.806.49-2.735.49-1.037 0-2.074-.316-3.03-1.31-1.369-1.43-1.355-3.052-1.345-4.621.017-.593.017-1.186-.051-1.779-.047-.749-.239-1.238-.515-1.866-.434-1.03-.682-1.342-.93-1.69-.232-.316-.482-.646-.71-1.1-.295-.472-.537-1.012-.265-1.483 2.692-.783 2.232-2.144 2.074-2.65-1.419-3.312-1.771-3.644-1.94-4.376-.15-.716-.199-2.005-.093-2.633.135-.505.403-.855.636-1.15.407-.96-.36-2.425-.664-2.634-1.285-.263-1.782-.313-2.273-.646-2.426-1.239-4.322-1.796-5.766-1.865-1.387.331-1.892.47-2.426.47-4.842-.522-5.549-1.08-6.153-1.587-.388-.295-.618-.628-.851-.94-3.188-1.762-3.82-1.9-4.471-2.042-1.027-.244-2.103-.47-2.978-1.22-.522-.42-.835-.871-1.117-1.272-.43-.628-.695-1.03-1.724-1.15-3.398-.366-3.815-.873-4.18-1.31-.318-.365-.6-.714-.975-.888-.409-.2-.879-.272-1.387-.272-.613 0-1.28.106-1.969.22-.696.119-1.422.226-2.115.226-2.516-.332-2.835-1.22-3.12-2.005-.178-.454-.337-.906-.84-1.36-1.371-.82-1.933-1.064-2.392-1.796-.576-.976-.74-1.274-1.159-1.622-1.62-1.168-2.729-2.111-3.53-4.22-.334-.908-.537-2.162-.51-3.105.517-2.354.31-2.945.088-3.626-.54-1.586-.85-3.871-.52-5.178.657-1.883.604-2.372.53-2.808-5.564-2.319-6.187-2.285-6.79-2.268-.723.036-1.465.053-1.936.315-3.561 1.552-4.273 1.761-4.897 1.935-1.378.558-1.837.959-2.332 1.395-.478.419-.973.855-1.55 1.186-.632.401-1.344.593-2.039.802-.661.192-1.287.384-1.743.699-.62 1.168-.753 1.586-1.127 2.02-.573.826-1.139 1.085-1.653 1.085-.519 0-.988-.263-1.362-.474-1.716-.415-2.048.045-2.631 1.03-.362.61-.742 1.238-1.305 1.656-1.339 1.012-3.062 2.198-4.44 2.198-1.324-.07-2.584-.576-3.707-1.012-.392-.174-.8-.332-1.176-.454-1.264-.366-2.477-.139-3.952-.295-3.69.121-4.156.156-4.604.192-2.641.901-3.291 1.242-3.878 1.242-.722-.074-1.123-.476-1.442-.789-1.272-3.017-.97-5.685-.741-7.638.336-3.244.792-5.842 1.447-8.249-.669.507-1.34 1.082-1.958 1.622-.902.767-1.221 1.1-1.542 1.43-.869.89-1.757 1.814-3.058 2.127-1.414.403-3.177.9-4.564.9-4.015-.725-4.497-.737-4.91-.935-.915-.487-1.097-1.307-1.232-2.039-.753-1.884-1.319-2.545-2.025-3.14-.85-.773-2.438-1.428-3.735-1.428-2.864-.28-3.06-.663-3.082-1.082-.029-.75.539-1.307 1.034-1.778.745-.715.978-1.012.428-1.69-.43-.578-.931-1.169-1.413-1.746-.849-1.03-1.731-2.074-2.404-3.174-.45-.54-.57-1.185-.689-1.796-2.82-3.138-2.524-3.801-2.285-4.341.012-.976-.286-1.36-.603-1.743-.448-.576-.931-1.153-1.168-1.885-.156-.522-.324-1.254.055-1.848.38-.61 1.121-.715 1.814-.818.031-4.604 1.995-6.924 3.934-7.9.86-4.604 1.166-6.348 1.405-6.854.297-.68.671-1.08 1.008-1.429.373-.383.675-.696.853-1.483.258-1.776.432-3.05.96-3.993.237-.434.658-.732 1.028-.994 1.281-1.988 1.713-2.04 2.11-2.091.484-.053.83-.106 1.306-.454.475-.331.864-.681 1.271-1.063.495-.454.992-.925 1.605-1.291 2.475-1.552 7.227-3.277 10.553-3.365 2.217.11 2.647.027 3.039-.262.814-1.307 1.195-2.006 2.168-2.266 2.295-.112 3.872.194 4.78.888 2.736.088 2.91-1.22 3.003-2.545.5-2.424.85-4.412 1.3-6.244.275-1.08.478-2.214.666-3.312.246-1.36.495-2.755.896-4.114 1.264-4.395 2.442-8.701 2.632-12.835.05-1.761-.047-1.918-1.067-2.982-.82-.855-1.367-1.552-1.453-2.18-.065-.68.324-1.097.54-1.342.495-1.604-1.703-3.627-3.274-4.132-1.039-.943-1.086-1.745-1.13-2.547-.046-2.023-.1-4.271.256-5.825.467-1.847 2.128-2.162 3.465-2.44 1.768-.43 2.242-.565 2.782-.565 1.12.164 1.477.39 1.763.583 1.663-.333 1.465-1.814 1.04-2.547-.356-.687-.804-.883-1.475-.883-3.122.221-3.84.03-4.292-.424-.685-.68-.673-1.708-.658-2.808.014-.487.012-1.012-.04-1.552-.216-2.65.958-3.365 2.93-4.22.634-.301 1.037-.44 1.462-.44 3.33.976 3.877.908 4.33.859 1.432-.086 2.14-.123 2.864-.157a31.159 31.159 0 0 1 2.19-.088c1.46.12 2.17.19 2.738.19 1.135-1.915 1.247-2.717 1.922-2.874.757-.018 1.191.624 1.402.959.97 1.268 1.693 1.054 2.043.802.458-.333.867-.82 1.295-1.325.607-.716 1.248-1.465 2.16-1.97 1.123.452 1.419.924 1.698 1.395.861 1.201 1.178 1.516 1.515 1.847 1.798 2.127 2.242 2.808 2.226 3.332-.088.644-.528.992-.88 1.272-.434 1.344.896 1.778 2.09 2.144.852.28 1.672.542 2.16.994.502.436.745.994.952 1.5.91 1.206 1.738 1.339 2.522 1.339.523 0 1.027-.059 1.354-.17 1.098-1.012 1.456-1.448 2.137-1.744.195-.078 1.6-.434 2.616-.434 1.614.644 1.485 1.567 1.379 2.246.55 0 .581-.47.904-.94.45-.654.96-.78 1.362-.78 1.398-1.103 1.48-1.575 1.87-1.958.548-.472 1.205-.505 1.773-.524 2.12-1.237 2.565-1.708 3.672-1.883.935-.156.935-.156 1.446-.54 1.039-.802 1.596-1.011 2.101-1.185.836-.298 1.235-.437 1.303-1.587-.205-1.22-.383-2.18.566-2.86.526-.313 1.197-.298 1.835-.313 5.1-1.832 5.175-2.634 5.003-3.192-4.921-.191-5.191-.385-5.891-.575-.427-.123-1.346.122-2.074-.4-.685-.717-.585-1.71-.509-2.583.06-1.534-.006-2.178-.072-2.806-1.063-2.006-.78-2.878-.648-3.226.26-.646.667-.994 1.02-1.292 1.118-1.743.938-2.091.578-2.702-.246-.436-.557-.976-.673-1.725-2.377-1.796-3.645-2.563-3.94-3.628-.174-.56-.02-1.117.39-1.586.35-.468 1.347-.623 2.388-.623 1.254 0 2.571.223 2.906.396.831.436 1.054 1.064 1.213 1.534.158.471.236.68 1.15.716 1.188.033 1.984.434 2.68.784.611.296 1.19.575 2.031.646 2.28-.05 3.059.037 3.64.419.524.313.75.817.929 1.218 2.835-1.533 2.673-2.457 3.623-3.173 1.059-.82 3.438-.941 5.833-.941 1.262.121 1.892.19 2.375.19 1.223-1.935 1.777-2.004 2.242-2.057 2.178-1.97 2.643-2.003 3.058-2.04 4.625-1.517 4.827-1.935 5.338-2.301.209-.716.878-1.15 1.387-1.499.808-.524.95-.698.857-1.064-1.202-1.256-1.988-2.11-1.605-2.843 3.632.387 4.264.307 4.66.262z" transform="translate(15.652 14.938)"/>
        <g>
            <g filter="url(#d)" transform="translate(221.087 342.391)">
                <ellipse cx="15.652" cy="35.446" fill="#000" opacity=".206" rx="9.783" ry="2.185"/>
                <path fill="#49C905" d="M24.674 2.613c1.601 1.03 2.906 2.283 3.915 3.76 1.025 1.505 1.658 3.131 1.898 4.88.256 1.83.063 3.679-.577 5.549-.8 2.29-2.09 4.675-3.867 7.156-2.322 3.266-5.141 6.417-8.456 9.453-.784.704-1.545 1.057-2.282 1.057-.72 0-1.473-.352-2.258-1.057-2.466-2.291-4.556-4.48-6.27-6.566-2.018-2.453-3.667-4.906-4.948-7.36C.563 16.979-.045 14.64.003 12.473c.064-3.117 1.36-5.875 3.892-8.274A15.27 15.27 0 0 1 9.876.7a5.44 5.44 0 0 1 .576-.182c3.043-.692 6.255-.692 9.634 0 1.649.46 3.178 1.158 4.588 2.094"/>
                <g fill="#FFF" filter="url(#e)" transform="translate(6.12 7.18)">
                    <path d="M7.21 2.752c-.574-.397-1.098-.615-1.502-.615a3.4 3.4 0 0 0-2.369.928 3.114 3.114 0 0 0-.97 2.268c0 .856.336 1.66.946 2.265l.215.193-1.645 1.503-.152-.136a5.217 5.217 0 0 1 0-7.591A5.682 5.682 0 0 1 5.688 0c.905 0 1.849.347 2.862 1.055l.396-.502c.077-.098.239-.057.256.064l.345 2.37a.138.138 0 0 1-.122.155l-2.476.33c-.127.016-.211-.122-.134-.219l.396-.501zM15.39 10.341l.458.439c.09.086.025.234-.102.234l-2.5-.003a.14.14 0 0 1-.143-.137l.003-2.394c0-.122.155-.183.245-.097l.43.413 1.35-1.198c.61-.605.946-1.409.946-2.265 0-.86-.34-1.667-.956-2.274-.516-.494-1.181-.672-1.958-.748-.715-.07-2.021.204-2.5.42L10.287.806c.623-.204 1.764-.633 2.876-.633 1.384 0 2.611.475 3.55 1.374a5.196 5.196 0 0 1 1.616 3.785 5.303 5.303 0 0 1-1.612 3.82l-.018.017-1.309 1.171zM4.091 11.284l-.46.485c-.086.09-.243.037-.25-.085l-.118-2.391A.14.14 0 0 1 3.4 9.15l2.496-.113c.128-.006.199.138.113.229l-.457.48 3.671 3.166 2.439-2.194 1.562 1.587-3.165 2.854-.014.012a1.344 1.344 0 0 1-.822.292c-.298 0-.582-.1-.822-.292l-.014-.012-4.296-3.875z"/>
                    <path d="M13.312 12.226l-1.65-1.508-2.439 2.194s-1.124 1.132-2.672.591l1.729 1.56s.954 1.022 2.095-.188l2.937-2.649zM10.287.808s1.353-.675 3.03-.635c1.822.043 4.01.91 4.852 3.863 0 0-3.75-2.794-7.506-1.306L10.287.808zM1.885 9.294s-4.029-3.55-.209-7.678c.282.975.461 1.71.728 4.128.03.567.41 1.446 1.126 2.047L1.885 9.294z"/>
                </g>
            </g>
            <g transform="translate(309.65 256.741)">
                <ellipse cx="15.298" cy="34.968" fill="#000" opacity=".206" rx="10.927" ry="2.185"/>
                <g filter="url(#f)">
                    <path fill="url(#g)" d="M24.674 2.613c1.601 1.03 2.906 2.283 3.915 3.76 1.025 1.505 1.658 3.131 1.898 4.88.256 1.83.063 3.679-.577 5.549-.8 2.29-2.09 4.675-3.867 7.156-2.322 3.266-5.141 6.417-8.456 9.453-.784.704-1.545 1.057-2.282 1.057-.72 0-1.473-.352-2.258-1.057-2.466-2.291-4.556-4.48-6.27-6.566-2.018-2.453-3.667-4.906-4.948-7.36C.563 16.979-.045 14.64.003 12.473c.064-3.117 1.36-5.875 3.892-8.274A15.27 15.27 0 0 1 9.876.7a5.44 5.44 0 0 1 .576-.182c3.043-.692 6.255-.692 9.634 0 1.649.46 3.178 1.158 4.588 2.094"/>
                    <g fill="#FFF" filter="url(#h)" transform="translate(6.12 7.18)">
                        <path d="M7.21 2.752c-.574-.397-1.098-.615-1.502-.615a3.4 3.4 0 0 0-2.369.928 3.114 3.114 0 0 0-.97 2.268c0 .856.336 1.66.946 2.265l.215.193-1.645 1.503-.152-.136a5.217 5.217 0 0 1 0-7.591A5.682 5.682 0 0 1 5.688 0c.905 0 1.849.347 2.862 1.055l.396-.502c.077-.098.239-.057.256.064l.345 2.37a.138.138 0 0 1-.122.155l-2.476.33c-.127.016-.211-.122-.134-.219l.396-.501zM15.39 10.341l.458.439c.09.086.025.234-.102.234l-2.5-.003a.14.14 0 0 1-.143-.137l.003-2.394c0-.122.155-.183.245-.097l.43.413 1.35-1.198c.61-.605.946-1.409.946-2.265 0-.86-.34-1.667-.956-2.274-.516-.494-1.181-.672-1.958-.748-.715-.07-2.021.204-2.5.42L10.287.806c.623-.204 1.764-.633 2.876-.633 1.384 0 2.611.475 3.55 1.374a5.196 5.196 0 0 1 1.616 3.785 5.303 5.303 0 0 1-1.612 3.82l-.018.017-1.309 1.171zM4.091 11.284l-.46.485c-.086.09-.243.037-.25-.085l-.118-2.391A.14.14 0 0 1 3.4 9.15l2.496-.113c.128-.006.199.138.113.229l-.457.48 3.671 3.166 2.439-2.194 1.562 1.587-3.165 2.854-.014.012a1.344 1.344 0 0 1-.822.292c-.298 0-.582-.1-.822-.292l-.014-.012-4.296-3.875z"/>
                        <path d="M13.312 12.226l-1.65-1.508-2.439 2.194s-1.124 1.132-2.672.591l1.729 1.56s.954 1.022 2.095-.188l2.937-2.649zM10.287.808s1.353-.675 3.03-.635c1.822.043 4.01.91 4.852 3.863 0 0-3.75-2.794-7.506-1.306L10.287.808zM1.885 9.294s-4.029-3.55-.209-7.678c.282.975.461 1.71.728 4.128.03.567.41 1.446 1.126 2.047L1.885 9.294z"/>
                    </g>
                </g>
            </g>
            <g transform="translate(242.609 285.652)">
                <ellipse cx="15.652" cy="35.446" fill="#000" opacity=".206" rx="9.783" ry="2.185"/>
                <g filter="url(#i)">
                    <path fill="url(#g)" d="M24.674 2.613c1.601 1.03 2.906 2.283 3.915 3.76 1.025 1.505 1.658 3.131 1.898 4.88.256 1.83.063 3.679-.577 5.549-.8 2.29-2.09 4.675-3.867 7.156-2.322 3.266-5.141 6.417-8.456 9.453-.784.704-1.545 1.057-2.282 1.057-.72 0-1.473-.352-2.258-1.057-2.466-2.291-4.556-4.48-6.27-6.566-2.018-2.453-3.667-4.906-4.948-7.36C.563 16.979-.045 14.64.003 12.473c.064-3.117 1.36-5.875 3.892-8.274A15.27 15.27 0 0 1 9.876.7a5.44 5.44 0 0 1 .576-.182c3.043-.692 6.255-.692 9.634 0 1.649.46 3.178 1.158 4.588 2.094"/>
                    <g fill="#FFF" filter="url(#j)" transform="translate(6.12 7.18)">
                        <path d="M7.21 2.752c-.574-.397-1.098-.615-1.502-.615a3.4 3.4 0 0 0-2.369.928 3.114 3.114 0 0 0-.97 2.268c0 .856.336 1.66.946 2.265l.215.193-1.645 1.503-.152-.136a5.217 5.217 0 0 1 0-7.591A5.682 5.682 0 0 1 5.688 0c.905 0 1.849.347 2.862 1.055l.396-.502c.077-.098.239-.057.256.064l.345 2.37a.138.138 0 0 1-.122.155l-2.476.33c-.127.016-.211-.122-.134-.219l.396-.501zM15.39 10.341l.458.439c.09.086.025.234-.102.234l-2.5-.003a.14.14 0 0 1-.143-.137l.003-2.394c0-.122.155-.183.245-.097l.43.413 1.35-1.198c.61-.605.946-1.409.946-2.265 0-.86-.34-1.667-.956-2.274-.516-.494-1.181-.672-1.958-.748-.715-.07-2.021.204-2.5.42L10.287.806c.623-.204 1.764-.633 2.876-.633 1.384 0 2.611.475 3.55 1.374a5.196 5.196 0 0 1 1.616 3.785 5.303 5.303 0 0 1-1.612 3.82l-.018.017-1.309 1.171zM4.091 11.284l-.46.485c-.086.09-.243.037-.25-.085l-.118-2.391A.14.14 0 0 1 3.4 9.15l2.496-.113c.128-.006.199.138.113.229l-.457.48 3.671 3.166 2.439-2.194 1.562 1.587-3.165 2.854-.014.012a1.344 1.344 0 0 1-.822.292c-.298 0-.582-.1-.822-.292l-.014-.012-4.296-3.875z"/>
                        <path d="M13.312 12.226l-1.65-1.508-2.439 2.194s-1.124 1.132-2.672.591l1.729 1.56s.954 1.022 2.095-.188l2.937-2.649zM10.287.808s1.353-.675 3.03-.635c1.822.043 4.01.91 4.852 3.863 0 0-3.75-2.794-7.506-1.306L10.287.808zM1.885 9.294s-4.029-3.55-.209-7.678c.282.975.461 1.71.728 4.128.03.567.41 1.446 1.126 2.047L1.885 9.294z"/>
                    </g>
                </g>
            </g>
            <g transform="translate(201.876 229.142)">
                <ellipse cx="15.298" cy="35.217" fill="#000" opacity=".206" rx="9.783" ry="2.185"/>
                <g filter="url(#k)">
                    <path fill="url(#g)" d="M24.674 2.613c1.601 1.03 2.906 2.283 3.915 3.76 1.025 1.505 1.658 3.131 1.898 4.88.256 1.83.063 3.679-.577 5.549-.8 2.29-2.09 4.675-3.867 7.156-2.322 3.266-5.141 6.417-8.456 9.453-.784.704-1.545 1.057-2.282 1.057-.72 0-1.473-.352-2.258-1.057-2.466-2.291-4.556-4.48-6.27-6.566-2.018-2.453-3.667-4.906-4.948-7.36C.563 16.979-.045 14.64.003 12.473c.064-3.117 1.36-5.875 3.892-8.274A15.27 15.27 0 0 1 9.876.7a5.44 5.44 0 0 1 .576-.182c3.043-.692 6.255-.692 9.634 0 1.649.46 3.178 1.158 4.588 2.094"/>
                    <g fill="#FFF" filter="url(#l)" transform="translate(6.12 7.18)">
                        <path d="M7.21 2.752c-.574-.397-1.098-.615-1.502-.615a3.4 3.4 0 0 0-2.369.928 3.114 3.114 0 0 0-.97 2.268c0 .856.336 1.66.946 2.265l.215.193-1.645 1.503-.152-.136a5.217 5.217 0 0 1 0-7.591A5.682 5.682 0 0 1 5.688 0c.905 0 1.849.347 2.862 1.055l.396-.502c.077-.098.239-.057.256.064l.345 2.37a.138.138 0 0 1-.122.155l-2.476.33c-.127.016-.211-.122-.134-.219l.396-.501zM15.39 10.341l.458.439c.09.086.025.234-.102.234l-2.5-.003a.14.14 0 0 1-.143-.137l.003-2.394c0-.122.155-.183.245-.097l.43.413 1.35-1.198c.61-.605.946-1.409.946-2.265 0-.86-.34-1.667-.956-2.274-.516-.494-1.181-.672-1.958-.748-.715-.07-2.021.204-2.5.42L10.287.806c.623-.204 1.764-.633 2.876-.633 1.384 0 2.611.475 3.55 1.374a5.196 5.196 0 0 1 1.616 3.785 5.303 5.303 0 0 1-1.612 3.82l-.018.017-1.309 1.171zM4.091 11.284l-.46.485c-.086.09-.243.037-.25-.085l-.118-2.391A.14.14 0 0 1 3.4 9.15l2.496-.113c.128-.006.199.138.113.229l-.457.48 3.671 3.166 2.439-2.194 1.562 1.587-3.165 2.854-.014.012a1.344 1.344 0 0 1-.822.292c-.298 0-.582-.1-.822-.292l-.014-.012-4.296-3.875z"/>
                        <path d="M13.312 12.226l-1.65-1.508-2.439 2.194s-1.124 1.132-2.672.591l1.729 1.56s.954 1.022 2.095-.188l2.937-2.649zM10.287.808s1.353-.675 3.03-.635c1.822.043 4.01.91 4.852 3.863 0 0-3.75-2.794-7.506-1.306L10.287.808zM1.885 9.294s-4.029-3.55-.209-7.678c.282.975.461 1.71.728 4.128.03.567.41 1.446 1.126 2.047L1.885 9.294z"/>
                    </g>
                </g>
            </g>
            <g transform="translate(362.79 131.025)">
                <ellipse cx="15.652" cy="35.446" fill="#000" opacity=".206" rx="9.783" ry="2.185"/>
                <g filter="url(#m)">
                    <path fill="url(#g)" d="M24.674 2.613c1.601 1.03 2.906 2.283 3.915 3.76 1.025 1.505 1.658 3.131 1.898 4.88.256 1.83.063 3.679-.577 5.549-.8 2.29-2.09 4.675-3.867 7.156-2.322 3.266-5.141 6.417-8.456 9.453-.784.704-1.545 1.057-2.282 1.057-.72 0-1.473-.352-2.258-1.057-2.466-2.291-4.556-4.48-6.27-6.566-2.018-2.453-3.667-4.906-4.948-7.36C.563 16.979-.045 14.64.003 12.473c.064-3.117 1.36-5.875 3.892-8.274A15.27 15.27 0 0 1 9.876.7a5.44 5.44 0 0 1 .576-.182c3.043-.692 6.255-.692 9.634 0 1.649.46 3.178 1.158 4.588 2.094"/>
                    <g fill="#FFF" filter="url(#n)" transform="translate(6.12 7.18)">
                        <path d="M7.21 2.752c-.574-.397-1.098-.615-1.502-.615a3.4 3.4 0 0 0-2.369.928 3.114 3.114 0 0 0-.97 2.268c0 .856.336 1.66.946 2.265l.215.193-1.645 1.503-.152-.136a5.217 5.217 0 0 1 0-7.591A5.682 5.682 0 0 1 5.688 0c.905 0 1.849.347 2.862 1.055l.396-.502c.077-.098.239-.057.256.064l.345 2.37a.138.138 0 0 1-.122.155l-2.476.33c-.127.016-.211-.122-.134-.219l.396-.501zM15.39 10.341l.458.439c.09.086.025.234-.102.234l-2.5-.003a.14.14 0 0 1-.143-.137l.003-2.394c0-.122.155-.183.245-.097l.43.413 1.35-1.198c.61-.605.946-1.409.946-2.265 0-.86-.34-1.667-.956-2.274-.516-.494-1.181-.672-1.958-.748-.715-.07-2.021.204-2.5.42L10.287.806c.623-.204 1.764-.633 2.876-.633 1.384 0 2.611.475 3.55 1.374a5.196 5.196 0 0 1 1.616 3.785 5.303 5.303 0 0 1-1.612 3.82l-.018.017-1.309 1.171zM4.091 11.284l-.46.485c-.086.09-.243.037-.25-.085l-.118-2.391A.14.14 0 0 1 3.4 9.15l2.496-.113c.128-.006.199.138.113.229l-.457.48 3.671 3.166 2.439-2.194 1.562 1.587-3.165 2.854-.014.012a1.344 1.344 0 0 1-.822.292c-.298 0-.582-.1-.822-.292l-.014-.012-4.296-3.875z"/>
                        <path d="M13.312 12.226l-1.65-1.508-2.439 2.194s-1.124 1.132-2.672.591l1.729 1.56s.954 1.022 2.095-.188l2.937-2.649zM10.287.808s1.353-.675 3.03-.635c1.822.043 4.01.91 4.852 3.863 0 0-3.75-2.794-7.506-1.306L10.287.808zM1.885 9.294s-4.029-3.55-.209-7.678c.282.975.461 1.71.728 4.128.03.567.41 1.446 1.126 2.047L1.885 9.294z"/>
                    </g>
                </g>
            </g>
            <g transform="translate(311.961 190.72)">
                <ellipse cx="15.652" cy="35.446" fill="#000" opacity=".206" rx="9.783" ry="2.185"/>
                <g filter="url(#o)">
                    <path fill="url(#g)" d="M24.674 2.613c1.601 1.03 2.906 2.283 3.915 3.76 1.025 1.505 1.658 3.131 1.898 4.88.256 1.83.063 3.679-.577 5.549-.8 2.29-2.09 4.675-3.867 7.156-2.322 3.266-5.141 6.417-8.456 9.453-.784.704-1.545 1.057-2.282 1.057-.72 0-1.473-.352-2.258-1.057-2.466-2.291-4.556-4.48-6.27-6.566-2.018-2.453-3.667-4.906-4.948-7.36C.563 16.979-.045 14.64.003 12.473c.064-3.117 1.36-5.875 3.892-8.274A15.27 15.27 0 0 1 9.876.7a5.44 5.44 0 0 1 .576-.182c3.043-.692 6.255-.692 9.634 0 1.649.46 3.178 1.158 4.588 2.094"/>
                    <g fill="#FFF" filter="url(#p)" transform="translate(6.12 7.18)">
                        <path d="M7.21 2.752c-.574-.397-1.098-.615-1.502-.615a3.4 3.4 0 0 0-2.369.928 3.114 3.114 0 0 0-.97 2.268c0 .856.336 1.66.946 2.265l.215.193-1.645 1.503-.152-.136a5.217 5.217 0 0 1 0-7.591A5.682 5.682 0 0 1 5.688 0c.905 0 1.849.347 2.862 1.055l.396-.502c.077-.098.239-.057.256.064l.345 2.37a.138.138 0 0 1-.122.155l-2.476.33c-.127.016-.211-.122-.134-.219l.396-.501zM15.39 10.341l.458.439c.09.086.025.234-.102.234l-2.5-.003a.14.14 0 0 1-.143-.137l.003-2.394c0-.122.155-.183.245-.097l.43.413 1.35-1.198c.61-.605.946-1.409.946-2.265 0-.86-.34-1.667-.956-2.274-.516-.494-1.181-.672-1.958-.748-.715-.07-2.021.204-2.5.42L10.287.806c.623-.204 1.764-.633 2.876-.633 1.384 0 2.611.475 3.55 1.374a5.196 5.196 0 0 1 1.616 3.785 5.303 5.303 0 0 1-1.612 3.82l-.018.017-1.309 1.171zM4.091 11.284l-.46.485c-.086.09-.243.037-.25-.085l-.118-2.391A.14.14 0 0 1 3.4 9.15l2.496-.113c.128-.006.199.138.113.229l-.457.48 3.671 3.166 2.439-2.194 1.562 1.587-3.165 2.854-.014.012a1.344 1.344 0 0 1-.822.292c-.298 0-.582-.1-.822-.292l-.014-.012-4.296-3.875z"/>
                        <path d="M13.312 12.226l-1.65-1.508-2.439 2.194s-1.124 1.132-2.672.591l1.729 1.56s.954 1.022 2.095-.188l2.937-2.649zM10.287.808s1.353-.675 3.03-.635c1.822.043 4.01.91 4.852 3.863 0 0-3.75-2.794-7.506-1.306L10.287.808zM1.885 9.294s-4.029-3.55-.209-7.678c.282.975.461 1.71.728 4.128.03.567.41 1.446 1.126 2.047L1.885 9.294z"/>
                    </g>
                </g>
            </g>
            <g transform="translate(277.451 102.842)">
                <ellipse cx="15.652" cy="35.446" fill="#000" opacity=".206" rx="9.783" ry="2.185"/>
                <g filter="url(#q)">
                    <path fill="url(#g)" d="M24.674 2.613c1.601 1.03 2.906 2.283 3.915 3.76 1.025 1.505 1.658 3.131 1.898 4.88.256 1.83.063 3.679-.577 5.549-.8 2.29-2.09 4.675-3.867 7.156-2.322 3.266-5.141 6.417-8.456 9.453-.784.704-1.545 1.057-2.282 1.057-.72 0-1.473-.352-2.258-1.057-2.466-2.291-4.556-4.48-6.27-6.566-2.018-2.453-3.667-4.906-4.948-7.36C.563 16.979-.045 14.64.003 12.473c.064-3.117 1.36-5.875 3.892-8.274A15.27 15.27 0 0 1 9.876.7a5.44 5.44 0 0 1 .576-.182c3.043-.692 6.255-.692 9.634 0 1.649.46 3.178 1.158 4.588 2.094"/>
                    <g fill="#FFF" filter="url(#r)" transform="translate(6.12 7.18)">
                        <path d="M7.21 2.752c-.574-.397-1.098-.615-1.502-.615a3.4 3.4 0 0 0-2.369.928 3.114 3.114 0 0 0-.97 2.268c0 .856.336 1.66.946 2.265l.215.193-1.645 1.503-.152-.136a5.217 5.217 0 0 1 0-7.591A5.682 5.682 0 0 1 5.688 0c.905 0 1.849.347 2.862 1.055l.396-.502c.077-.098.239-.057.256.064l.345 2.37a.138.138 0 0 1-.122.155l-2.476.33c-.127.016-.211-.122-.134-.219l.396-.501zM15.39 10.341l.458.439c.09.086.025.234-.102.234l-2.5-.003a.14.14 0 0 1-.143-.137l.003-2.394c0-.122.155-.183.245-.097l.43.413 1.35-1.198c.61-.605.946-1.409.946-2.265 0-.86-.34-1.667-.956-2.274-.516-.494-1.181-.672-1.958-.748-.715-.07-2.021.204-2.5.42L10.287.806c.623-.204 1.764-.633 2.876-.633 1.384 0 2.611.475 3.55 1.374a5.196 5.196 0 0 1 1.616 3.785 5.303 5.303 0 0 1-1.612 3.82l-.018.017-1.309 1.171zM4.091 11.284l-.46.485c-.086.09-.243.037-.25-.085l-.118-2.391A.14.14 0 0 1 3.4 9.15l2.496-.113c.128-.006.199.138.113.229l-.457.48 3.671 3.166 2.439-2.194 1.562 1.587-3.165 2.854-.014.012a1.344 1.344 0 0 1-.822.292c-.298 0-.582-.1-.822-.292l-.014-.012-4.296-3.875z"/>
                        <path d="M13.312 12.226l-1.65-1.508-2.439 2.194s-1.124 1.132-2.672.591l1.729 1.56s.954 1.022 2.095-.188l2.937-2.649zM10.287.808s1.353-.675 3.03-.635c1.822.043 4.01.91 4.852 3.863 0 0-3.75-2.794-7.506-1.306L10.287.808zM1.885 9.294s-4.029-3.55-.209-7.678c.282.975.461 1.71.728 4.128.03.567.41 1.446 1.126 2.047L1.885 9.294z"/>
                    </g>
                </g>
            </g>
            <g filter="url(#s)" transform="translate(240.652 172.174)">
                <ellipse cx="15.652" cy="35.446" fill="#000" opacity=".206" rx="9.783" ry="2.185"/>
                <path fill="url(#g)" d="M24.674 2.613c1.601 1.03 2.906 2.283 3.915 3.76 1.025 1.505 1.658 3.131 1.898 4.88.256 1.83.063 3.679-.577 5.549-.8 2.29-2.09 4.675-3.867 7.156-2.322 3.266-5.141 6.417-8.456 9.453-.784.704-1.545 1.057-2.282 1.057-.72 0-1.473-.352-2.258-1.057-2.466-2.291-4.556-4.48-6.27-6.566-2.018-2.453-3.667-4.906-4.948-7.36C.563 16.979-.045 14.64.003 12.473c.064-3.117 1.36-5.875 3.892-8.274A15.27 15.27 0 0 1 9.876.7a5.44 5.44 0 0 1 .576-.182c3.043-.692 6.255-.692 9.634 0 1.649.46 3.178 1.158 4.588 2.094"/>
                <g fill="#FFF" filter="url(#t)" transform="translate(6.12 7.18)">
                    <path d="M7.21 2.752c-.574-.397-1.098-.615-1.502-.615a3.4 3.4 0 0 0-2.369.928 3.114 3.114 0 0 0-.97 2.268c0 .856.336 1.66.946 2.265l.215.193-1.645 1.503-.152-.136a5.217 5.217 0 0 1 0-7.591A5.682 5.682 0 0 1 5.688 0c.905 0 1.849.347 2.862 1.055l.396-.502c.077-.098.239-.057.256.064l.345 2.37a.138.138 0 0 1-.122.155l-2.476.33c-.127.016-.211-.122-.134-.219l.396-.501zM15.39 10.341l.458.439c.09.086.025.234-.102.234l-2.5-.003a.14.14 0 0 1-.143-.137l.003-2.394c0-.122.155-.183.245-.097l.43.413 1.35-1.198c.61-.605.946-1.409.946-2.265 0-.86-.34-1.667-.956-2.274-.516-.494-1.181-.672-1.958-.748-.715-.07-2.021.204-2.5.42L10.287.806c.623-.204 1.764-.633 2.876-.633 1.384 0 2.611.475 3.55 1.374a5.196 5.196 0 0 1 1.616 3.785 5.303 5.303 0 0 1-1.612 3.82l-.018.017-1.309 1.171zM4.091 11.284l-.46.485c-.086.09-.243.037-.25-.085l-.118-2.391A.14.14 0 0 1 3.4 9.15l2.496-.113c.128-.006.199.138.113.229l-.457.48 3.671 3.166 2.439-2.194 1.562 1.587-3.165 2.854-.014.012a1.344 1.344 0 0 1-.822.292c-.298 0-.582-.1-.822-.292l-.014-.012-4.296-3.875z"/>
                    <path d="M13.312 12.226l-1.65-1.508-2.439 2.194s-1.124 1.132-2.672.591l1.729 1.56s.954 1.022 2.095-.188l2.937-2.649zM10.287.808s1.353-.675 3.03-.635c1.822.043 4.01.91 4.852 3.863 0 0-3.75-2.794-7.506-1.306L10.287.808zM1.885 9.294s-4.029-3.55-.209-7.678c.282.975.461 1.71.728 4.128.03.567.41 1.446 1.126 2.047L1.885 9.294z"/>
                </g>
            </g>
            <g filter="url(#u)" transform="translate(197.609 84.13)">
                <ellipse cx="15.652" cy="35.446" fill="#000" opacity=".206" rx="9.783" ry="2.185"/>
                <path fill="url(#g)" d="M24.674 2.613c1.601 1.03 2.906 2.283 3.915 3.76 1.025 1.505 1.658 3.131 1.898 4.88.256 1.83.063 3.679-.577 5.549-.8 2.29-2.09 4.675-3.867 7.156-2.322 3.266-5.141 6.417-8.456 9.453-.784.704-1.545 1.057-2.282 1.057-.72 0-1.473-.352-2.258-1.057-2.466-2.291-4.556-4.48-6.27-6.566-2.018-2.453-3.667-4.906-4.948-7.36C.563 16.979-.045 14.64.003 12.473c.064-3.117 1.36-5.875 3.892-8.274A15.27 15.27 0 0 1 9.876.7a5.44 5.44 0 0 1 .576-.182c3.043-.692 6.255-.692 9.634 0 1.649.46 3.178 1.158 4.588 2.094"/>
                <g fill="#FFF" filter="url(#v)" transform="translate(6.12 7.18)">
                    <path d="M7.21 2.752c-.574-.397-1.098-.615-1.502-.615a3.4 3.4 0 0 0-2.369.928 3.114 3.114 0 0 0-.97 2.268c0 .856.336 1.66.946 2.265l.215.193-1.645 1.503-.152-.136a5.217 5.217 0 0 1 0-7.591A5.682 5.682 0 0 1 5.688 0c.905 0 1.849.347 2.862 1.055l.396-.502c.077-.098.239-.057.256.064l.345 2.37a.138.138 0 0 1-.122.155l-2.476.33c-.127.016-.211-.122-.134-.219l.396-.501zM15.39 10.341l.458.439c.09.086.025.234-.102.234l-2.5-.003a.14.14 0 0 1-.143-.137l.003-2.394c0-.122.155-.183.245-.097l.43.413 1.35-1.198c.61-.605.946-1.409.946-2.265 0-.86-.34-1.667-.956-2.274-.516-.494-1.181-.672-1.958-.748-.715-.07-2.021.204-2.5.42L10.287.806c.623-.204 1.764-.633 2.876-.633 1.384 0 2.611.475 3.55 1.374a5.196 5.196 0 0 1 1.616 3.785 5.303 5.303 0 0 1-1.612 3.82l-.018.017-1.309 1.171zM4.091 11.284l-.46.485c-.086.09-.243.037-.25-.085l-.118-2.391A.14.14 0 0 1 3.4 9.15l2.496-.113c.128-.006.199.138.113.229l-.457.48 3.671 3.166 2.439-2.194 1.562 1.587-3.165 2.854-.014.012a1.344 1.344 0 0 1-.822.292c-.298 0-.582-.1-.822-.292l-.014-.012-4.296-3.875z"/>
                    <path d="M13.312 12.226l-1.65-1.508-2.439 2.194s-1.124 1.132-2.672.591l1.729 1.56s.954 1.022 2.095-.188l2.937-2.649zM10.287.808s1.353-.675 3.03-.635c1.822.043 4.01.91 4.852 3.863 0 0-3.75-2.794-7.506-1.306L10.287.808zM1.885 9.294s-4.029-3.55-.209-7.678c.282.975.461 1.71.728 4.128.03.567.41 1.446 1.126 2.047L1.885 9.294z"/>
                </g>
            </g>
            <g filter="url(#w)" transform="translate(115.955 76.512)">
                <ellipse cx="15.132" cy="35.238" fill="#000" opacity=".206" rx="9.783" ry="2.185"/>
                <path fill="url(#g)" d="M24.674 2.613c1.601 1.03 2.906 2.283 3.915 3.76 1.025 1.505 1.658 3.131 1.898 4.88.256 1.83.063 3.679-.577 5.549-.8 2.29-2.09 4.675-3.867 7.156-2.322 3.266-5.141 6.417-8.456 9.453-.784.704-1.545 1.057-2.282 1.057-.72 0-1.473-.352-2.258-1.057-2.466-2.291-4.556-4.48-6.27-6.566-2.018-2.453-3.667-4.906-4.948-7.36C.563 16.979-.045 14.64.003 12.473c.064-3.117 1.36-5.875 3.892-8.274A15.27 15.27 0 0 1 9.876.7a5.44 5.44 0 0 1 .576-.182c3.043-.692 6.255-.692 9.634 0 1.649.46 3.178 1.158 4.588 2.094"/>
                <g fill="#FFF" filter="url(#x)" transform="translate(6.12 7.18)">
                    <path d="M7.21 2.752c-.574-.397-1.098-.615-1.502-.615a3.4 3.4 0 0 0-2.369.928 3.114 3.114 0 0 0-.97 2.268c0 .856.336 1.66.946 2.265l.215.193-1.645 1.503-.152-.136a5.217 5.217 0 0 1 0-7.591A5.682 5.682 0 0 1 5.688 0c.905 0 1.849.347 2.862 1.055l.396-.502c.077-.098.239-.057.256.064l.345 2.37a.138.138 0 0 1-.122.155l-2.476.33c-.127.016-.211-.122-.134-.219l.396-.501zM15.39 10.341l.458.439c.09.086.025.234-.102.234l-2.5-.003a.14.14 0 0 1-.143-.137l.003-2.394c0-.122.155-.183.245-.097l.43.413 1.35-1.198c.61-.605.946-1.409.946-2.265 0-.86-.34-1.667-.956-2.274-.516-.494-1.181-.672-1.958-.748-.715-.07-2.021.204-2.5.42L10.287.806c.623-.204 1.764-.633 2.876-.633 1.384 0 2.611.475 3.55 1.374a5.196 5.196 0 0 1 1.616 3.785 5.303 5.303 0 0 1-1.612 3.82l-.018.017-1.309 1.171zM4.091 11.284l-.46.485c-.086.09-.243.037-.25-.085l-.118-2.391A.14.14 0 0 1 3.4 9.15l2.496-.113c.128-.006.199.138.113.229l-.457.48 3.671 3.166 2.439-2.194 1.562 1.587-3.165 2.854-.014.012a1.344 1.344 0 0 1-.822.292c-.298 0-.582-.1-.822-.292l-.014-.012-4.296-3.875z"/>
                    <path d="M13.312 12.226l-1.65-1.508-2.439 2.194s-1.124 1.132-2.672.591l1.729 1.56s.954 1.022 2.095-.188l2.937-2.649zM10.287.808s1.353-.675 3.03-.635c1.822.043 4.01.91 4.852 3.863 0 0-3.75-2.794-7.506-1.306L10.287.808zM1.885 9.294s-4.029-3.55-.209-7.678c.282.975.461 1.71.728 4.128.03.567.41 1.446 1.126 2.047L1.885 9.294z"/>
                </g>
            </g>
            <g filter="url(#y)" transform="translate(57.759 129.068)">
                <ellipse cx="15.652" cy="35.446" fill="#000" opacity=".206" rx="9.783" ry="2.185"/>
                <path fill="url(#g)" d="M24.674 2.613c1.601 1.03 2.906 2.283 3.915 3.76 1.025 1.505 1.658 3.131 1.898 4.88.256 1.83.063 3.679-.577 5.549-.8 2.29-2.09 4.675-3.867 7.156-2.322 3.266-5.141 6.417-8.456 9.453-.784.704-1.545 1.057-2.282 1.057-.72 0-1.473-.352-2.258-1.057-2.466-2.291-4.556-4.48-6.27-6.566-2.018-2.453-3.667-4.906-4.948-7.36C.563 16.979-.045 14.64.003 12.473c.064-3.117 1.36-5.875 3.892-8.274A15.27 15.27 0 0 1 9.876.7a5.44 5.44 0 0 1 .576-.182c3.043-.692 6.255-.692 9.634 0 1.649.46 3.178 1.158 4.588 2.094"/>
                <g fill="#FFF" filter="url(#z)" transform="translate(6.12 7.18)">
                    <path d="M7.21 2.752c-.574-.397-1.098-.615-1.502-.615a3.4 3.4 0 0 0-2.369.928 3.114 3.114 0 0 0-.97 2.268c0 .856.336 1.66.946 2.265l.215.193-1.645 1.503-.152-.136a5.217 5.217 0 0 1 0-7.591A5.682 5.682 0 0 1 5.688 0c.905 0 1.849.347 2.862 1.055l.396-.502c.077-.098.239-.057.256.064l.345 2.37a.138.138 0 0 1-.122.155l-2.476.33c-.127.016-.211-.122-.134-.219l.396-.501zM15.39 10.341l.458.439c.09.086.025.234-.102.234l-2.5-.003a.14.14 0 0 1-.143-.137l.003-2.394c0-.122.155-.183.245-.097l.43.413 1.35-1.198c.61-.605.946-1.409.946-2.265 0-.86-.34-1.667-.956-2.274-.516-.494-1.181-.672-1.958-.748-.715-.07-2.021.204-2.5.42L10.287.806c.623-.204 1.764-.633 2.876-.633 1.384 0 2.611.475 3.55 1.374a5.196 5.196 0 0 1 1.616 3.785 5.303 5.303 0 0 1-1.612 3.82l-.018.017-1.309 1.171zM4.091 11.284l-.46.485c-.086.09-.243.037-.25-.085l-.118-2.391A.14.14 0 0 1 3.4 9.15l2.496-.113c.128-.006.199.138.113.229l-.457.48 3.671 3.166 2.439-2.194 1.562 1.587-3.165 2.854-.014.012a1.344 1.344 0 0 1-.822.292c-.298 0-.582-.1-.822-.292l-.014-.012-4.296-3.875z"/>
                    <path d="M13.312 12.226l-1.65-1.508-2.439 2.194s-1.124 1.132-2.672.591l1.729 1.56s.954 1.022 2.095-.188l2.937-2.649zM10.287.808s1.353-.675 3.03-.635c1.822.043 4.01.91 4.852 3.863 0 0-3.75-2.794-7.506-1.306L10.287.808zM1.885 9.294s-4.029-3.55-.209-7.678c.282.975.461 1.71.728 4.128.03.567.41 1.446 1.126 2.047L1.885 9.294z"/>
                </g>
            </g>
            <g filter="url(#A)" transform="translate(150.652 158.478)">
                <ellipse cx="15.652" cy="35.446" fill="#000" opacity=".206" rx="9.783" ry="2.185"/>
                <path fill="url(#g)" d="M24.674 2.613c1.601 1.03 2.906 2.283 3.915 3.76 1.025 1.505 1.658 3.131 1.898 4.88.256 1.83.063 3.679-.577 5.549-.8 2.29-2.09 4.675-3.867 7.156-2.322 3.266-5.141 6.417-8.456 9.453-.784.704-1.545 1.057-2.282 1.057-.72 0-1.473-.352-2.258-1.057-2.466-2.291-4.556-4.48-6.27-6.566-2.018-2.453-3.667-4.906-4.948-7.36C.563 16.979-.045 14.64.003 12.473c.064-3.117 1.36-5.875 3.892-8.274A15.27 15.27 0 0 1 9.876.7a5.44 5.44 0 0 1 .576-.182c3.043-.692 6.255-.692 9.634 0 1.649.46 3.178 1.158 4.588 2.094"/>
                <g fill="#FFF" filter="url(#B)" transform="translate(6.12 7.18)">
                    <path d="M7.21 2.752c-.574-.397-1.098-.615-1.502-.615a3.4 3.4 0 0 0-2.369.928 3.114 3.114 0 0 0-.97 2.268c0 .856.336 1.66.946 2.265l.215.193-1.645 1.503-.152-.136a5.217 5.217 0 0 1 0-7.591A5.682 5.682 0 0 1 5.688 0c.905 0 1.849.347 2.862 1.055l.396-.502c.077-.098.239-.057.256.064l.345 2.37a.138.138 0 0 1-.122.155l-2.476.33c-.127.016-.211-.122-.134-.219l.396-.501zM15.39 10.341l.458.439c.09.086.025.234-.102.234l-2.5-.003a.14.14 0 0 1-.143-.137l.003-2.394c0-.122.155-.183.245-.097l.43.413 1.35-1.198c.61-.605.946-1.409.946-2.265 0-.86-.34-1.667-.956-2.274-.516-.494-1.181-.672-1.958-.748-.715-.07-2.021.204-2.5.42L10.287.806c.623-.204 1.764-.633 2.876-.633 1.384 0 2.611.475 3.55 1.374a5.196 5.196 0 0 1 1.616 3.785 5.303 5.303 0 0 1-1.612 3.82l-.018.017-1.309 1.171zM4.091 11.284l-.46.485c-.086.09-.243.037-.25-.085l-.118-2.391A.14.14 0 0 1 3.4 9.15l2.496-.113c.128-.006.199.138.113.229l-.457.48 3.671 3.166 2.439-2.194 1.562 1.587-3.165 2.854-.014.012a1.344 1.344 0 0 1-.822.292c-.298 0-.582-.1-.822-.292l-.014-.012-4.296-3.875z"/>
                    <path d="M13.312 12.226l-1.65-1.508-2.439 2.194s-1.124 1.132-2.672.591l1.729 1.56s.954 1.022 2.095-.188l2.937-2.649zM10.287.808s1.353-.675 3.03-.635c1.822.043 4.01.91 4.852 3.863 0 0-3.75-2.794-7.506-1.306L10.287.808zM1.885 9.294s-4.029-3.55-.209-7.678c.282.975.461 1.71.728 4.128.03.567.41 1.446 1.126 2.047L1.885 9.294z"/>
                </g>
            </g>
        </g>
    </g>
</svg>
